G04 #@! TF.GenerationSoftware,KiCad,Pcbnew,5.1.5+dfsg1-2build2*
G04 #@! TF.CreationDate,2021-02-08T21:47:53-05:00*
G04 #@! TF.ProjectId,hbridgechassis,68627269-6467-4656-9368-61737369732e,rev?*
G04 #@! TF.SameCoordinates,Original*
G04 #@! TF.FileFunction,Copper,L1,Top*
G04 #@! TF.FilePolarity,Positive*
%FSLAX46Y46*%
G04 Gerber Fmt 4.6, Leading zero omitted, Abs format (unit mm)*
G04 Created by KiCad (PCBNEW 5.1.5+dfsg1-2build2) date 2021-02-08 21:47:53*
%MOMM*%
%LPD*%
G04 APERTURE LIST*
%ADD10C,0.100000*%
%ADD11R,2.200000X1.840000*%
%ADD12R,1.000000X1.500000*%
%ADD13R,1.000000X1.800000*%
%ADD14R,2.500000X1.800000*%
%ADD15O,1.700000X1.700000*%
%ADD16R,1.700000X1.700000*%
%ADD17C,2.400000*%
%ADD18R,2.400000X2.400000*%
%ADD19R,1.500000X0.600000*%
%ADD20C,0.800000*%
%ADD21C,0.500000*%
%ADD22C,0.254000*%
G04 APERTURE END LIST*
G04 #@! TA.AperFunction,SMDPad,CuDef*
D10*
G36*
X128059000Y-70654800D02*
G01*
X128759000Y-69654800D01*
X129559000Y-69654800D01*
X130259000Y-70654800D01*
X128059000Y-70654800D01*
G37*
G04 #@! TD.AperFunction*
D11*
X129159000Y-71564500D03*
D12*
X127659000Y-68751000D03*
D13*
X129159000Y-68897500D03*
D12*
X130659000Y-68751000D03*
G04 #@! TA.AperFunction,SMDPad,CuDef*
D10*
G36*
X130259000Y-72473000D02*
G01*
X129659000Y-73323000D01*
X128659000Y-73323000D01*
X128059000Y-72473000D01*
X130259000Y-72473000D01*
G37*
G04 #@! TD.AperFunction*
G04 #@! TA.AperFunction,SMDPad,CuDef*
G36*
X64120000Y-75679398D02*
G01*
X64095466Y-75679398D01*
X64046635Y-75674588D01*
X63998510Y-75665016D01*
X63951555Y-75650772D01*
X63906222Y-75631995D01*
X63862949Y-75608864D01*
X63822150Y-75581604D01*
X63784221Y-75550476D01*
X63749524Y-75515779D01*
X63718396Y-75477850D01*
X63691136Y-75437051D01*
X63668005Y-75393778D01*
X63649228Y-75348445D01*
X63634984Y-75301490D01*
X63625412Y-75253365D01*
X63620602Y-75204534D01*
X63620602Y-75180000D01*
X63620000Y-75180000D01*
X63620000Y-74680000D01*
X63620602Y-74680000D01*
X63620602Y-74655466D01*
X63625412Y-74606635D01*
X63634984Y-74558510D01*
X63649228Y-74511555D01*
X63668005Y-74466222D01*
X63691136Y-74422949D01*
X63718396Y-74382150D01*
X63749524Y-74344221D01*
X63784221Y-74309524D01*
X63822150Y-74278396D01*
X63862949Y-74251136D01*
X63906222Y-74228005D01*
X63951555Y-74209228D01*
X63998510Y-74194984D01*
X64046635Y-74185412D01*
X64095466Y-74180602D01*
X64120000Y-74180602D01*
X64120000Y-74180000D01*
X64620000Y-74180000D01*
X64620000Y-75680000D01*
X64120000Y-75680000D01*
X64120000Y-75679398D01*
G37*
G04 #@! TD.AperFunction*
G04 #@! TA.AperFunction,SMDPad,CuDef*
G36*
X64920000Y-74180000D02*
G01*
X65420000Y-74180000D01*
X65420000Y-74180602D01*
X65444534Y-74180602D01*
X65493365Y-74185412D01*
X65541490Y-74194984D01*
X65588445Y-74209228D01*
X65633778Y-74228005D01*
X65677051Y-74251136D01*
X65717850Y-74278396D01*
X65755779Y-74309524D01*
X65790476Y-74344221D01*
X65821604Y-74382150D01*
X65848864Y-74422949D01*
X65871995Y-74466222D01*
X65890772Y-74511555D01*
X65905016Y-74558510D01*
X65914588Y-74606635D01*
X65919398Y-74655466D01*
X65919398Y-74680000D01*
X65920000Y-74680000D01*
X65920000Y-75180000D01*
X65919398Y-75180000D01*
X65919398Y-75204534D01*
X65914588Y-75253365D01*
X65905016Y-75301490D01*
X65890772Y-75348445D01*
X65871995Y-75393778D01*
X65848864Y-75437051D01*
X65821604Y-75477850D01*
X65790476Y-75515779D01*
X65755779Y-75550476D01*
X65717850Y-75581604D01*
X65677051Y-75608864D01*
X65633778Y-75631995D01*
X65588445Y-75650772D01*
X65541490Y-75665016D01*
X65493365Y-75674588D01*
X65444534Y-75679398D01*
X65420000Y-75679398D01*
X65420000Y-75680000D01*
X64920000Y-75680000D01*
X64920000Y-74180000D01*
G37*
G04 #@! TD.AperFunction*
G04 #@! TA.AperFunction,SMDPad,CuDef*
G36*
X65420000Y-52590602D02*
G01*
X65444534Y-52590602D01*
X65493365Y-52595412D01*
X65541490Y-52604984D01*
X65588445Y-52619228D01*
X65633778Y-52638005D01*
X65677051Y-52661136D01*
X65717850Y-52688396D01*
X65755779Y-52719524D01*
X65790476Y-52754221D01*
X65821604Y-52792150D01*
X65848864Y-52832949D01*
X65871995Y-52876222D01*
X65890772Y-52921555D01*
X65905016Y-52968510D01*
X65914588Y-53016635D01*
X65919398Y-53065466D01*
X65919398Y-53090000D01*
X65920000Y-53090000D01*
X65920000Y-53590000D01*
X65919398Y-53590000D01*
X65919398Y-53614534D01*
X65914588Y-53663365D01*
X65905016Y-53711490D01*
X65890772Y-53758445D01*
X65871995Y-53803778D01*
X65848864Y-53847051D01*
X65821604Y-53887850D01*
X65790476Y-53925779D01*
X65755779Y-53960476D01*
X65717850Y-53991604D01*
X65677051Y-54018864D01*
X65633778Y-54041995D01*
X65588445Y-54060772D01*
X65541490Y-54075016D01*
X65493365Y-54084588D01*
X65444534Y-54089398D01*
X65420000Y-54089398D01*
X65420000Y-54090000D01*
X64920000Y-54090000D01*
X64920000Y-52590000D01*
X65420000Y-52590000D01*
X65420000Y-52590602D01*
G37*
G04 #@! TD.AperFunction*
G04 #@! TA.AperFunction,SMDPad,CuDef*
G36*
X64620000Y-54090000D02*
G01*
X64120000Y-54090000D01*
X64120000Y-54089398D01*
X64095466Y-54089398D01*
X64046635Y-54084588D01*
X63998510Y-54075016D01*
X63951555Y-54060772D01*
X63906222Y-54041995D01*
X63862949Y-54018864D01*
X63822150Y-53991604D01*
X63784221Y-53960476D01*
X63749524Y-53925779D01*
X63718396Y-53887850D01*
X63691136Y-53847051D01*
X63668005Y-53803778D01*
X63649228Y-53758445D01*
X63634984Y-53711490D01*
X63625412Y-53663365D01*
X63620602Y-53614534D01*
X63620602Y-53590000D01*
X63620000Y-53590000D01*
X63620000Y-53090000D01*
X63620602Y-53090000D01*
X63620602Y-53065466D01*
X63625412Y-53016635D01*
X63634984Y-52968510D01*
X63649228Y-52921555D01*
X63668005Y-52876222D01*
X63691136Y-52832949D01*
X63718396Y-52792150D01*
X63749524Y-52754221D01*
X63784221Y-52719524D01*
X63822150Y-52688396D01*
X63862949Y-52661136D01*
X63906222Y-52638005D01*
X63951555Y-52619228D01*
X63998510Y-52604984D01*
X64046635Y-52595412D01*
X64095466Y-52590602D01*
X64120000Y-52590602D01*
X64120000Y-52590000D01*
X64620000Y-52590000D01*
X64620000Y-54090000D01*
G37*
G04 #@! TD.AperFunction*
D12*
X123190000Y-62230000D03*
G04 #@! TA.AperFunction,SMDPad,CuDef*
D10*
G36*
X121890000Y-62979398D02*
G01*
X121865466Y-62979398D01*
X121816635Y-62974588D01*
X121768510Y-62965016D01*
X121721555Y-62950772D01*
X121676222Y-62931995D01*
X121632949Y-62908864D01*
X121592150Y-62881604D01*
X121554221Y-62850476D01*
X121519524Y-62815779D01*
X121488396Y-62777850D01*
X121461136Y-62737051D01*
X121438005Y-62693778D01*
X121419228Y-62648445D01*
X121404984Y-62601490D01*
X121395412Y-62553365D01*
X121390602Y-62504534D01*
X121390602Y-62480000D01*
X121390000Y-62480000D01*
X121390000Y-61980000D01*
X121390602Y-61980000D01*
X121390602Y-61955466D01*
X121395412Y-61906635D01*
X121404984Y-61858510D01*
X121419228Y-61811555D01*
X121438005Y-61766222D01*
X121461136Y-61722949D01*
X121488396Y-61682150D01*
X121519524Y-61644221D01*
X121554221Y-61609524D01*
X121592150Y-61578396D01*
X121632949Y-61551136D01*
X121676222Y-61528005D01*
X121721555Y-61509228D01*
X121768510Y-61494984D01*
X121816635Y-61485412D01*
X121865466Y-61480602D01*
X121890000Y-61480602D01*
X121890000Y-61480000D01*
X122440000Y-61480000D01*
X122440000Y-62980000D01*
X121890000Y-62980000D01*
X121890000Y-62979398D01*
G37*
G04 #@! TD.AperFunction*
G04 #@! TA.AperFunction,SMDPad,CuDef*
G36*
X123940000Y-61480000D02*
G01*
X124490000Y-61480000D01*
X124490000Y-61480602D01*
X124514534Y-61480602D01*
X124563365Y-61485412D01*
X124611490Y-61494984D01*
X124658445Y-61509228D01*
X124703778Y-61528005D01*
X124747051Y-61551136D01*
X124787850Y-61578396D01*
X124825779Y-61609524D01*
X124860476Y-61644221D01*
X124891604Y-61682150D01*
X124918864Y-61722949D01*
X124941995Y-61766222D01*
X124960772Y-61811555D01*
X124975016Y-61858510D01*
X124984588Y-61906635D01*
X124989398Y-61955466D01*
X124989398Y-61980000D01*
X124990000Y-61980000D01*
X124990000Y-62480000D01*
X124989398Y-62480000D01*
X124989398Y-62504534D01*
X124984588Y-62553365D01*
X124975016Y-62601490D01*
X124960772Y-62648445D01*
X124941995Y-62693778D01*
X124918864Y-62737051D01*
X124891604Y-62777850D01*
X124860476Y-62815779D01*
X124825779Y-62850476D01*
X124787850Y-62881604D01*
X124747051Y-62908864D01*
X124703778Y-62931995D01*
X124658445Y-62950772D01*
X124611490Y-62965016D01*
X124563365Y-62974588D01*
X124514534Y-62979398D01*
X124490000Y-62979398D01*
X124490000Y-62980000D01*
X123940000Y-62980000D01*
X123940000Y-61480000D01*
G37*
G04 #@! TD.AperFunction*
G04 #@! TA.AperFunction,SMDPad,CuDef*
G36*
X131163142Y-63346174D02*
G01*
X131186803Y-63349684D01*
X131210007Y-63355496D01*
X131232529Y-63363554D01*
X131254153Y-63373782D01*
X131274670Y-63386079D01*
X131293883Y-63400329D01*
X131311607Y-63416393D01*
X131327671Y-63434117D01*
X131341921Y-63453330D01*
X131354218Y-63473847D01*
X131364446Y-63495471D01*
X131372504Y-63517993D01*
X131378316Y-63541197D01*
X131381826Y-63564858D01*
X131383000Y-63588750D01*
X131383000Y-64076250D01*
X131381826Y-64100142D01*
X131378316Y-64123803D01*
X131372504Y-64147007D01*
X131364446Y-64169529D01*
X131354218Y-64191153D01*
X131341921Y-64211670D01*
X131327671Y-64230883D01*
X131311607Y-64248607D01*
X131293883Y-64264671D01*
X131274670Y-64278921D01*
X131254153Y-64291218D01*
X131232529Y-64301446D01*
X131210007Y-64309504D01*
X131186803Y-64315316D01*
X131163142Y-64318826D01*
X131139250Y-64320000D01*
X130226750Y-64320000D01*
X130202858Y-64318826D01*
X130179197Y-64315316D01*
X130155993Y-64309504D01*
X130133471Y-64301446D01*
X130111847Y-64291218D01*
X130091330Y-64278921D01*
X130072117Y-64264671D01*
X130054393Y-64248607D01*
X130038329Y-64230883D01*
X130024079Y-64211670D01*
X130011782Y-64191153D01*
X130001554Y-64169529D01*
X129993496Y-64147007D01*
X129987684Y-64123803D01*
X129984174Y-64100142D01*
X129983000Y-64076250D01*
X129983000Y-63588750D01*
X129984174Y-63564858D01*
X129987684Y-63541197D01*
X129993496Y-63517993D01*
X130001554Y-63495471D01*
X130011782Y-63473847D01*
X130024079Y-63453330D01*
X130038329Y-63434117D01*
X130054393Y-63416393D01*
X130072117Y-63400329D01*
X130091330Y-63386079D01*
X130111847Y-63373782D01*
X130133471Y-63363554D01*
X130155993Y-63355496D01*
X130179197Y-63349684D01*
X130202858Y-63346174D01*
X130226750Y-63345000D01*
X131139250Y-63345000D01*
X131163142Y-63346174D01*
G37*
G04 #@! TD.AperFunction*
G04 #@! TA.AperFunction,SMDPad,CuDef*
G36*
X131163142Y-65221174D02*
G01*
X131186803Y-65224684D01*
X131210007Y-65230496D01*
X131232529Y-65238554D01*
X131254153Y-65248782D01*
X131274670Y-65261079D01*
X131293883Y-65275329D01*
X131311607Y-65291393D01*
X131327671Y-65309117D01*
X131341921Y-65328330D01*
X131354218Y-65348847D01*
X131364446Y-65370471D01*
X131372504Y-65392993D01*
X131378316Y-65416197D01*
X131381826Y-65439858D01*
X131383000Y-65463750D01*
X131383000Y-65951250D01*
X131381826Y-65975142D01*
X131378316Y-65998803D01*
X131372504Y-66022007D01*
X131364446Y-66044529D01*
X131354218Y-66066153D01*
X131341921Y-66086670D01*
X131327671Y-66105883D01*
X131311607Y-66123607D01*
X131293883Y-66139671D01*
X131274670Y-66153921D01*
X131254153Y-66166218D01*
X131232529Y-66176446D01*
X131210007Y-66184504D01*
X131186803Y-66190316D01*
X131163142Y-66193826D01*
X131139250Y-66195000D01*
X130226750Y-66195000D01*
X130202858Y-66193826D01*
X130179197Y-66190316D01*
X130155993Y-66184504D01*
X130133471Y-66176446D01*
X130111847Y-66166218D01*
X130091330Y-66153921D01*
X130072117Y-66139671D01*
X130054393Y-66123607D01*
X130038329Y-66105883D01*
X130024079Y-66086670D01*
X130011782Y-66066153D01*
X130001554Y-66044529D01*
X129993496Y-66022007D01*
X129987684Y-65998803D01*
X129984174Y-65975142D01*
X129983000Y-65951250D01*
X129983000Y-65463750D01*
X129984174Y-65439858D01*
X129987684Y-65416197D01*
X129993496Y-65392993D01*
X130001554Y-65370471D01*
X130011782Y-65348847D01*
X130024079Y-65328330D01*
X130038329Y-65309117D01*
X130054393Y-65291393D01*
X130072117Y-65275329D01*
X130091330Y-65261079D01*
X130111847Y-65248782D01*
X130133471Y-65238554D01*
X130155993Y-65230496D01*
X130179197Y-65224684D01*
X130202858Y-65221174D01*
X130226750Y-65220000D01*
X131139250Y-65220000D01*
X131163142Y-65221174D01*
G37*
G04 #@! TD.AperFunction*
G04 #@! TA.AperFunction,SMDPad,CuDef*
G36*
X128216742Y-65170374D02*
G01*
X128240403Y-65173884D01*
X128263607Y-65179696D01*
X128286129Y-65187754D01*
X128307753Y-65197982D01*
X128328270Y-65210279D01*
X128347483Y-65224529D01*
X128365207Y-65240593D01*
X128381271Y-65258317D01*
X128395521Y-65277530D01*
X128407818Y-65298047D01*
X128418046Y-65319671D01*
X128426104Y-65342193D01*
X128431916Y-65365397D01*
X128435426Y-65389058D01*
X128436600Y-65412950D01*
X128436600Y-65900450D01*
X128435426Y-65924342D01*
X128431916Y-65948003D01*
X128426104Y-65971207D01*
X128418046Y-65993729D01*
X128407818Y-66015353D01*
X128395521Y-66035870D01*
X128381271Y-66055083D01*
X128365207Y-66072807D01*
X128347483Y-66088871D01*
X128328270Y-66103121D01*
X128307753Y-66115418D01*
X128286129Y-66125646D01*
X128263607Y-66133704D01*
X128240403Y-66139516D01*
X128216742Y-66143026D01*
X128192850Y-66144200D01*
X127280350Y-66144200D01*
X127256458Y-66143026D01*
X127232797Y-66139516D01*
X127209593Y-66133704D01*
X127187071Y-66125646D01*
X127165447Y-66115418D01*
X127144930Y-66103121D01*
X127125717Y-66088871D01*
X127107993Y-66072807D01*
X127091929Y-66055083D01*
X127077679Y-66035870D01*
X127065382Y-66015353D01*
X127055154Y-65993729D01*
X127047096Y-65971207D01*
X127041284Y-65948003D01*
X127037774Y-65924342D01*
X127036600Y-65900450D01*
X127036600Y-65412950D01*
X127037774Y-65389058D01*
X127041284Y-65365397D01*
X127047096Y-65342193D01*
X127055154Y-65319671D01*
X127065382Y-65298047D01*
X127077679Y-65277530D01*
X127091929Y-65258317D01*
X127107993Y-65240593D01*
X127125717Y-65224529D01*
X127144930Y-65210279D01*
X127165447Y-65197982D01*
X127187071Y-65187754D01*
X127209593Y-65179696D01*
X127232797Y-65173884D01*
X127256458Y-65170374D01*
X127280350Y-65169200D01*
X128192850Y-65169200D01*
X128216742Y-65170374D01*
G37*
G04 #@! TD.AperFunction*
G04 #@! TA.AperFunction,SMDPad,CuDef*
G36*
X128216742Y-63295374D02*
G01*
X128240403Y-63298884D01*
X128263607Y-63304696D01*
X128286129Y-63312754D01*
X128307753Y-63322982D01*
X128328270Y-63335279D01*
X128347483Y-63349529D01*
X128365207Y-63365593D01*
X128381271Y-63383317D01*
X128395521Y-63402530D01*
X128407818Y-63423047D01*
X128418046Y-63444671D01*
X128426104Y-63467193D01*
X128431916Y-63490397D01*
X128435426Y-63514058D01*
X128436600Y-63537950D01*
X128436600Y-64025450D01*
X128435426Y-64049342D01*
X128431916Y-64073003D01*
X128426104Y-64096207D01*
X128418046Y-64118729D01*
X128407818Y-64140353D01*
X128395521Y-64160870D01*
X128381271Y-64180083D01*
X128365207Y-64197807D01*
X128347483Y-64213871D01*
X128328270Y-64228121D01*
X128307753Y-64240418D01*
X128286129Y-64250646D01*
X128263607Y-64258704D01*
X128240403Y-64264516D01*
X128216742Y-64268026D01*
X128192850Y-64269200D01*
X127280350Y-64269200D01*
X127256458Y-64268026D01*
X127232797Y-64264516D01*
X127209593Y-64258704D01*
X127187071Y-64250646D01*
X127165447Y-64240418D01*
X127144930Y-64228121D01*
X127125717Y-64213871D01*
X127107993Y-64197807D01*
X127091929Y-64180083D01*
X127077679Y-64160870D01*
X127065382Y-64140353D01*
X127055154Y-64118729D01*
X127047096Y-64096207D01*
X127041284Y-64073003D01*
X127037774Y-64049342D01*
X127036600Y-64025450D01*
X127036600Y-63537950D01*
X127037774Y-63514058D01*
X127041284Y-63490397D01*
X127047096Y-63467193D01*
X127055154Y-63444671D01*
X127065382Y-63423047D01*
X127077679Y-63402530D01*
X127091929Y-63383317D01*
X127107993Y-63365593D01*
X127125717Y-63349529D01*
X127144930Y-63335279D01*
X127165447Y-63322982D01*
X127187071Y-63312754D01*
X127209593Y-63304696D01*
X127232797Y-63298884D01*
X127256458Y-63295374D01*
X127280350Y-63294200D01*
X128192850Y-63294200D01*
X128216742Y-63295374D01*
G37*
G04 #@! TD.AperFunction*
D14*
X126270000Y-58420000D03*
X130270000Y-58420000D03*
D15*
X138912600Y-53060600D03*
X138912600Y-55600600D03*
X138912600Y-58140600D03*
X138912600Y-60680600D03*
X138912600Y-63220600D03*
X138912600Y-65760600D03*
D16*
X138912600Y-68300600D03*
D17*
X145288000Y-77978000D03*
D18*
X145288000Y-81478000D03*
D17*
X54712000Y-81478000D03*
D18*
X54712000Y-77978000D03*
D17*
X126690000Y-77500000D03*
D18*
X123190000Y-77500000D03*
D19*
X69545400Y-60147200D03*
X69545400Y-61417200D03*
X69545400Y-62687200D03*
X69545400Y-63957200D03*
X69545400Y-65227200D03*
X69545400Y-66497200D03*
X69545400Y-67767200D03*
X69545400Y-69037200D03*
X69545400Y-70307200D03*
X69545400Y-71577200D03*
X60045400Y-71577200D03*
X60045400Y-70307200D03*
X60045400Y-69037200D03*
X60045400Y-67767200D03*
X60045400Y-60147200D03*
X60045400Y-61417200D03*
X60045400Y-62687200D03*
X60045400Y-63957200D03*
X60045400Y-65227200D03*
X60045400Y-66497200D03*
D20*
X57150000Y-63500000D03*
X55880000Y-74930000D03*
X67310000Y-62230000D03*
X69850000Y-81279996D03*
X72390000Y-68580000D03*
X134620000Y-82550000D03*
X76200000Y-77470000D03*
X72390000Y-58420000D03*
X69849994Y-77470000D03*
X71120000Y-81279998D03*
X71120000Y-74930000D03*
X72390000Y-81280000D03*
X62230000Y-62230000D03*
X124138986Y-86038987D03*
X135890000Y-67310000D03*
X135890000Y-64770000D03*
X133350000Y-67310000D03*
X133350000Y-59689984D03*
X63500000Y-69850000D03*
X64770000Y-60960000D03*
X78740000Y-55880000D03*
X120650000Y-82550000D03*
D21*
X55682000Y-81478000D02*
X54712000Y-81478000D01*
X57150000Y-80010000D02*
X55682000Y-81478000D01*
X57150000Y-70682600D02*
X57150000Y-80010000D01*
X58795400Y-69037200D02*
X57150000Y-70682600D01*
X60045400Y-69037200D02*
X58795400Y-69037200D01*
X57962800Y-62687200D02*
X57150000Y-63500000D01*
X60045400Y-62687200D02*
X57962800Y-62687200D01*
X55880000Y-74930000D02*
X54610000Y-76200000D01*
X54712000Y-76278000D02*
X54712000Y-77978000D01*
X54634000Y-76200000D02*
X54712000Y-76278000D01*
X54610000Y-76200000D02*
X54634000Y-76200000D01*
X67767200Y-62687200D02*
X67310000Y-62230000D01*
X69545400Y-62687200D02*
X67767200Y-62687200D01*
X69850000Y-85089982D02*
X69850000Y-81845681D01*
X119380000Y-95250000D02*
X80010018Y-95250000D01*
X69850000Y-81845681D02*
X69850000Y-81279996D01*
X80010018Y-95250000D02*
X69850000Y-85089982D01*
X134620000Y-80010000D02*
X119380000Y-95250000D01*
X139700000Y-80010000D02*
X134620000Y-80010000D01*
X143590944Y-77978000D02*
X141558944Y-80010000D01*
X145288000Y-77978000D02*
X143590944Y-77978000D01*
X141558944Y-80010000D02*
X139700000Y-80010000D01*
X71932800Y-69037200D02*
X72390000Y-68580000D01*
X69545400Y-69037200D02*
X71932800Y-69037200D01*
X144216000Y-82550000D02*
X145288000Y-81478000D01*
X134620000Y-82550000D02*
X144216000Y-82550000D01*
X70795400Y-61417200D02*
X69545400Y-61417200D01*
X72390000Y-59822600D02*
X70795400Y-61417200D01*
X72390000Y-58420000D02*
X72390000Y-59822600D01*
X76200000Y-77470000D02*
X69849994Y-77470000D01*
X71120000Y-81845683D02*
X71120000Y-81279998D01*
X71120000Y-85090000D02*
X71120000Y-81845683D01*
X80010000Y-93980000D02*
X71120000Y-85090000D01*
X118885018Y-93980000D02*
X80010000Y-93980000D01*
X134125018Y-78740000D02*
X118885018Y-93980000D01*
X138430000Y-78740000D02*
X134125018Y-78740000D01*
X147320000Y-69850000D02*
X138430000Y-78740000D01*
X147320000Y-64008000D02*
X147320000Y-69850000D01*
X138912600Y-55600600D02*
X147320000Y-64008000D01*
X70795400Y-70307200D02*
X69545400Y-70307200D01*
X71120000Y-70631800D02*
X70795400Y-70307200D01*
X71120000Y-74930000D02*
X71120000Y-70631800D01*
X135180071Y-76200000D02*
X118670071Y-92710000D01*
X72390000Y-81845685D02*
X72390000Y-81280000D01*
X138912600Y-58140600D02*
X146050000Y-65278000D01*
X139700000Y-76200000D02*
X135180071Y-76200000D01*
X118670071Y-92710000D02*
X80010000Y-92710000D01*
X80010000Y-92710000D02*
X72390000Y-85090000D01*
X72390000Y-85090000D02*
X72390000Y-81845685D01*
X146050000Y-65278000D02*
X146050000Y-69850000D01*
X146050000Y-69850000D02*
X139700000Y-76200000D01*
X61417200Y-61417200D02*
X62230000Y-62230000D01*
X60045400Y-61417200D02*
X61417200Y-61417200D01*
X124538985Y-85638988D02*
X124138986Y-86038987D01*
X141959963Y-72390000D02*
X137787973Y-72390000D01*
X144780000Y-69569963D02*
X141959963Y-72390000D01*
X144780000Y-66548000D02*
X144780000Y-69569963D01*
X137787973Y-72390000D02*
X124538985Y-85638988D01*
X138912600Y-60680600D02*
X144780000Y-66548000D01*
X143510000Y-69849999D02*
X139069970Y-69849999D01*
X118749969Y-90170000D02*
X80010000Y-90170000D01*
X139069970Y-69849999D02*
X118749969Y-90170000D01*
X80010000Y-90170000D02*
X74510002Y-84670002D01*
X58795400Y-70307200D02*
X60045400Y-70307200D01*
X62230000Y-78740000D02*
X58420000Y-74930000D01*
X72390000Y-78740000D02*
X62230000Y-78740000D01*
X138912600Y-63220600D02*
X143510000Y-67818000D01*
X74510002Y-80860002D02*
X72390000Y-78740000D01*
X74510002Y-84670002D02*
X74510002Y-80860002D01*
X143510000Y-67818000D02*
X143510000Y-69849999D01*
X58420000Y-74930000D02*
X58420000Y-70682600D01*
X58420000Y-70682600D02*
X58795400Y-70307200D01*
X126270000Y-58420000D02*
X123190000Y-58420000D01*
X121890000Y-59720000D02*
X121890000Y-62230000D01*
X123190000Y-58420000D02*
X121890000Y-59720000D01*
X57525400Y-66497200D02*
X60045400Y-66497200D01*
X58795400Y-67767200D02*
X57525400Y-66497200D01*
X60045400Y-67767200D02*
X58795400Y-67767200D01*
X58795400Y-63957200D02*
X60045400Y-63957200D01*
X57525400Y-65227200D02*
X58795400Y-63957200D01*
X60045400Y-65227200D02*
X57525400Y-65227200D01*
X57525400Y-65227200D02*
X57525400Y-66497200D01*
X70795400Y-63957200D02*
X72390000Y-65551800D01*
X69545400Y-63957200D02*
X70795400Y-63957200D01*
X70795400Y-67767200D02*
X72390000Y-66172600D01*
X69545400Y-67767200D02*
X70795400Y-67767200D01*
X71444600Y-65227200D02*
X69545400Y-65227200D01*
X70795400Y-66497200D02*
X71252600Y-66040000D01*
X69545400Y-66497200D02*
X70795400Y-66497200D01*
X72390000Y-66040000D02*
X71444600Y-65227200D01*
X71252600Y-66040000D02*
X72390000Y-66040000D01*
X72390000Y-66172600D02*
X72390000Y-66040000D01*
X60045400Y-63957200D02*
X62687200Y-63957200D01*
X62687200Y-63957200D02*
X69545400Y-63957200D01*
X60045400Y-65227200D02*
X69545400Y-65227200D01*
X60045400Y-66497200D02*
X69545400Y-66497200D01*
X60045400Y-67767200D02*
X69545400Y-67767200D01*
X80010000Y-87630000D02*
X119380000Y-87630000D01*
X77470000Y-85090000D02*
X80010000Y-87630000D01*
X77470000Y-68580000D02*
X77470000Y-85090000D01*
X119380000Y-87630000D02*
X126690000Y-80320000D01*
X75387200Y-66497200D02*
X77470000Y-68580000D01*
X126690000Y-80320000D02*
X126690000Y-77500000D01*
X69545400Y-66497200D02*
X75387200Y-66497200D01*
X126690000Y-77500000D02*
X129260000Y-74930000D01*
X129159000Y-74829000D02*
X129159000Y-72898000D01*
X129260000Y-74930000D02*
X129159000Y-74829000D01*
X129159000Y-67079100D02*
X127736600Y-65656700D01*
X129159000Y-68897500D02*
X129159000Y-67079100D01*
X136880600Y-68300600D02*
X135890000Y-67310000D01*
X138912600Y-68300600D02*
X136880600Y-68300600D01*
X134952500Y-63832500D02*
X135890000Y-64770000D01*
X130683000Y-63832500D02*
X134952500Y-63832500D01*
X131858200Y-73323000D02*
X136880600Y-68300600D01*
X129584000Y-73323000D02*
X131858200Y-73323000D01*
X129159000Y-72898000D02*
X129584000Y-73323000D01*
X129159000Y-68897500D02*
X129159000Y-72898000D01*
X126184900Y-62230000D02*
X127736600Y-63781700D01*
X124490000Y-62230000D02*
X126184900Y-62230000D01*
X126718300Y-63781700D02*
X127736600Y-63781700D01*
X125730000Y-64770000D02*
X126718300Y-63781700D01*
X125730000Y-67139000D02*
X125730000Y-64770000D01*
X127342000Y-68751000D02*
X125730000Y-67139000D01*
X127659000Y-68751000D02*
X127342000Y-68751000D01*
X138859500Y-65707500D02*
X138912600Y-65760600D01*
X130683000Y-65707500D02*
X138859500Y-65707500D01*
X131909000Y-68751000D02*
X133350000Y-67310000D01*
X130659000Y-68751000D02*
X131909000Y-68751000D01*
X130659000Y-65731500D02*
X130683000Y-65707500D01*
X130659000Y-68751000D02*
X130659000Y-65731500D01*
X130270000Y-58420000D02*
X132080016Y-58420000D01*
X132080016Y-58420000D02*
X133350000Y-59689984D01*
X69545400Y-60147200D02*
X69545400Y-55575400D01*
X69545400Y-55575400D02*
X67310000Y-53340000D01*
X67310000Y-53340000D02*
X65420000Y-53340000D01*
X61772800Y-71577200D02*
X63500000Y-69850000D01*
X60045400Y-71577200D02*
X61772800Y-71577200D01*
X66852800Y-60147200D02*
X69545400Y-60147200D01*
X66040000Y-60960000D02*
X66852800Y-60147200D01*
X64770000Y-60960000D02*
X66040000Y-60960000D01*
X76200000Y-53340000D02*
X78740000Y-55880000D01*
X67310000Y-53340000D02*
X76200000Y-53340000D01*
X121490000Y-77500000D02*
X123190000Y-77500000D01*
X120650000Y-78340000D02*
X121490000Y-77500000D01*
X120650000Y-82550000D02*
X120650000Y-78340000D01*
X60045400Y-74015400D02*
X60045400Y-71577200D01*
X60045400Y-74015400D02*
X60960000Y-74930000D01*
X60960000Y-74930000D02*
X64120000Y-74930000D01*
X123190000Y-77500000D02*
X123190000Y-62230000D01*
X64120000Y-53340000D02*
X62230000Y-53340000D01*
X60045400Y-55524600D02*
X62230000Y-53340000D01*
X60045400Y-60147200D02*
X60045400Y-55524600D01*
X69545400Y-73964600D02*
X69545400Y-71577200D01*
X69545400Y-73964600D02*
X68580000Y-74930000D01*
X68580000Y-74930000D02*
X65420000Y-74930000D01*
D22*
G36*
X55753000Y-64770000D02*
G01*
X55755440Y-64794776D01*
X55762667Y-64818601D01*
X55774403Y-64840557D01*
X55790197Y-64859803D01*
X55809443Y-64875597D01*
X55831399Y-64887333D01*
X55855224Y-64894560D01*
X55880000Y-64897000D01*
X58293000Y-64897000D01*
X58293000Y-67183000D01*
X55880000Y-67183000D01*
X55855224Y-67185440D01*
X55831399Y-67192667D01*
X55809443Y-67204403D01*
X55790197Y-67220197D01*
X55774403Y-67239443D01*
X55762667Y-67261399D01*
X55755440Y-67285224D01*
X55753000Y-67310000D01*
X55753000Y-73533000D01*
X50927000Y-73533000D01*
X50927000Y-58547000D01*
X55753000Y-58547000D01*
X55753000Y-64770000D01*
G37*
X55753000Y-64770000D02*
X55755440Y-64794776D01*
X55762667Y-64818601D01*
X55774403Y-64840557D01*
X55790197Y-64859803D01*
X55809443Y-64875597D01*
X55831399Y-64887333D01*
X55855224Y-64894560D01*
X55880000Y-64897000D01*
X58293000Y-64897000D01*
X58293000Y-67183000D01*
X55880000Y-67183000D01*
X55855224Y-67185440D01*
X55831399Y-67192667D01*
X55809443Y-67204403D01*
X55790197Y-67220197D01*
X55774403Y-67239443D01*
X55762667Y-67261399D01*
X55755440Y-67285224D01*
X55753000Y-67310000D01*
X55753000Y-73533000D01*
X50927000Y-73533000D01*
X50927000Y-58547000D01*
X55753000Y-58547000D01*
X55753000Y-64770000D01*
G36*
X78613000Y-73533000D02*
G01*
X73787000Y-73533000D01*
X73787000Y-67310000D01*
X73784560Y-67285224D01*
X73777333Y-67261399D01*
X73765597Y-67239443D01*
X73749803Y-67220197D01*
X73730557Y-67204403D01*
X73708601Y-67192667D01*
X73684776Y-67185440D01*
X73660000Y-67183000D01*
X71247000Y-67183000D01*
X71247000Y-64897000D01*
X73660000Y-64897000D01*
X73684776Y-64894560D01*
X73708601Y-64887333D01*
X73730557Y-64875597D01*
X73749803Y-64859803D01*
X73765597Y-64840557D01*
X73777333Y-64818601D01*
X73784560Y-64794776D01*
X73787000Y-64770000D01*
X73787000Y-58547000D01*
X78613000Y-58547000D01*
X78613000Y-73533000D01*
G37*
X78613000Y-73533000D02*
X73787000Y-73533000D01*
X73787000Y-67310000D01*
X73784560Y-67285224D01*
X73777333Y-67261399D01*
X73765597Y-67239443D01*
X73749803Y-67220197D01*
X73730557Y-67204403D01*
X73708601Y-67192667D01*
X73684776Y-67185440D01*
X73660000Y-67183000D01*
X71247000Y-67183000D01*
X71247000Y-64897000D01*
X73660000Y-64897000D01*
X73684776Y-64894560D01*
X73708601Y-64887333D01*
X73730557Y-64875597D01*
X73749803Y-64859803D01*
X73765597Y-64840557D01*
X73777333Y-64818601D01*
X73784560Y-64794776D01*
X73787000Y-64770000D01*
X73787000Y-58547000D01*
X78613000Y-58547000D01*
X78613000Y-73533000D01*
G36*
X67183000Y-68453000D02*
G01*
X62357000Y-68453000D01*
X62357000Y-63627000D01*
X67183000Y-63627000D01*
X67183000Y-68453000D01*
G37*
X67183000Y-68453000D02*
X62357000Y-68453000D01*
X62357000Y-63627000D01*
X67183000Y-63627000D01*
X67183000Y-68453000D01*
G36*
X148463000Y-148463000D02*
G01*
X52197000Y-148463000D01*
X52197000Y-145279872D01*
X52265000Y-145279872D01*
X52265000Y-145720128D01*
X52350890Y-146151925D01*
X52519369Y-146558669D01*
X52763962Y-146924729D01*
X53075271Y-147236038D01*
X53441331Y-147480631D01*
X53848075Y-147649110D01*
X54279872Y-147735000D01*
X54720128Y-147735000D01*
X55151925Y-147649110D01*
X55558669Y-147480631D01*
X55924729Y-147236038D01*
X56236038Y-146924729D01*
X56480631Y-146558669D01*
X56649110Y-146151925D01*
X56735000Y-145720128D01*
X56735000Y-145279872D01*
X143265000Y-145279872D01*
X143265000Y-145720128D01*
X143350890Y-146151925D01*
X143519369Y-146558669D01*
X143763962Y-146924729D01*
X144075271Y-147236038D01*
X144441331Y-147480631D01*
X144848075Y-147649110D01*
X145279872Y-147735000D01*
X145720128Y-147735000D01*
X146151925Y-147649110D01*
X146558669Y-147480631D01*
X146924729Y-147236038D01*
X147236038Y-146924729D01*
X147480631Y-146558669D01*
X147649110Y-146151925D01*
X147735000Y-145720128D01*
X147735000Y-145279872D01*
X147649110Y-144848075D01*
X147480631Y-144441331D01*
X147236038Y-144075271D01*
X146924729Y-143763962D01*
X146558669Y-143519369D01*
X146151925Y-143350890D01*
X145720128Y-143265000D01*
X145279872Y-143265000D01*
X144848075Y-143350890D01*
X144441331Y-143519369D01*
X144075271Y-143763962D01*
X143763962Y-144075271D01*
X143519369Y-144441331D01*
X143350890Y-144848075D01*
X143265000Y-145279872D01*
X56735000Y-145279872D01*
X56649110Y-144848075D01*
X56480631Y-144441331D01*
X56236038Y-144075271D01*
X55924729Y-143763962D01*
X55558669Y-143519369D01*
X55151925Y-143350890D01*
X54720128Y-143265000D01*
X54279872Y-143265000D01*
X53848075Y-143350890D01*
X53441331Y-143519369D01*
X53075271Y-143763962D01*
X52763962Y-144075271D01*
X52519369Y-144441331D01*
X52350890Y-144848075D01*
X52265000Y-145279872D01*
X52197000Y-145279872D01*
X52197000Y-85217000D01*
X68973228Y-85217000D01*
X68975006Y-85235050D01*
X68977805Y-85263472D01*
X68978283Y-85265048D01*
X69028411Y-85430294D01*
X69110589Y-85584040D01*
X69221183Y-85718799D01*
X69254956Y-85746516D01*
X79353488Y-95845049D01*
X79381201Y-95878817D01*
X79414969Y-95906530D01*
X79414971Y-95906532D01*
X79486470Y-95965210D01*
X79515959Y-95989411D01*
X79669705Y-96071589D01*
X79836528Y-96122195D01*
X79966541Y-96135000D01*
X79966551Y-96135000D01*
X80010017Y-96139281D01*
X80053483Y-96135000D01*
X119336531Y-96135000D01*
X119380000Y-96139281D01*
X119423469Y-96135000D01*
X119423477Y-96135000D01*
X119553490Y-96122195D01*
X119720313Y-96071589D01*
X119874059Y-95989411D01*
X120008817Y-95878817D01*
X120036534Y-95845044D01*
X133622613Y-82258966D01*
X133585000Y-82448061D01*
X133585000Y-82651939D01*
X133624774Y-82851898D01*
X133702795Y-83040256D01*
X133816063Y-83209774D01*
X133960226Y-83353937D01*
X134129744Y-83467205D01*
X134318102Y-83545226D01*
X134518061Y-83585000D01*
X134721939Y-83585000D01*
X134921898Y-83545226D01*
X135110256Y-83467205D01*
X135158454Y-83435000D01*
X144172531Y-83435000D01*
X144216000Y-83439281D01*
X144259469Y-83435000D01*
X144259477Y-83435000D01*
X144389490Y-83422195D01*
X144556313Y-83371589D01*
X144660179Y-83316072D01*
X146488000Y-83316072D01*
X146612482Y-83303812D01*
X146732180Y-83267502D01*
X146842494Y-83208537D01*
X146939185Y-83129185D01*
X147018537Y-83032494D01*
X147077502Y-82922180D01*
X147113812Y-82802482D01*
X147126072Y-82678000D01*
X147126072Y-80278000D01*
X147113812Y-80153518D01*
X147077502Y-80033820D01*
X147018537Y-79923506D01*
X146939185Y-79826815D01*
X146842494Y-79747463D01*
X146732180Y-79688498D01*
X146612482Y-79652188D01*
X146488000Y-79639928D01*
X146070838Y-79639928D01*
X146157199Y-79604156D01*
X146457744Y-79403338D01*
X146713338Y-79147744D01*
X146914156Y-78847199D01*
X147052482Y-78513250D01*
X147123000Y-78158732D01*
X147123000Y-77797268D01*
X147052482Y-77442750D01*
X146914156Y-77108801D01*
X146713338Y-76808256D01*
X146457744Y-76552662D01*
X146157199Y-76351844D01*
X145823250Y-76213518D01*
X145468732Y-76143000D01*
X145107268Y-76143000D01*
X144752750Y-76213518D01*
X144418801Y-76351844D01*
X144118256Y-76552662D01*
X143862662Y-76808256D01*
X143672402Y-77093000D01*
X143634413Y-77093000D01*
X143590944Y-77088719D01*
X143547475Y-77093000D01*
X143547467Y-77093000D01*
X143432250Y-77104348D01*
X143417453Y-77105805D01*
X143366847Y-77121157D01*
X143250631Y-77156411D01*
X143096885Y-77238589D01*
X143096883Y-77238590D01*
X143096884Y-77238590D01*
X142995897Y-77321468D01*
X142995895Y-77321470D01*
X142962127Y-77349183D01*
X142934414Y-77382951D01*
X141192366Y-79125000D01*
X139296578Y-79125000D01*
X147915049Y-70506530D01*
X147948817Y-70478817D01*
X147976533Y-70445046D01*
X148059411Y-70344059D01*
X148141589Y-70190314D01*
X148192195Y-70023490D01*
X148196944Y-69975272D01*
X148205000Y-69893477D01*
X148205000Y-69893469D01*
X148209281Y-69850000D01*
X148205000Y-69806531D01*
X148205000Y-64051465D01*
X148209281Y-64007999D01*
X148205000Y-63964533D01*
X148205000Y-63964523D01*
X148192195Y-63834510D01*
X148141589Y-63667687D01*
X148059411Y-63513941D01*
X147999866Y-63441386D01*
X147976532Y-63412953D01*
X147976530Y-63412951D01*
X147948817Y-63379183D01*
X147915051Y-63351472D01*
X140383139Y-55819561D01*
X140397600Y-55746860D01*
X140397600Y-55454340D01*
X140340532Y-55167442D01*
X140228590Y-54897189D01*
X140066075Y-54653968D01*
X139859232Y-54447125D01*
X139684840Y-54330600D01*
X139760759Y-54279872D01*
X143265000Y-54279872D01*
X143265000Y-54720128D01*
X143350890Y-55151925D01*
X143519369Y-55558669D01*
X143763962Y-55924729D01*
X144075271Y-56236038D01*
X144441331Y-56480631D01*
X144848075Y-56649110D01*
X145279872Y-56735000D01*
X145720128Y-56735000D01*
X146151925Y-56649110D01*
X146558669Y-56480631D01*
X146924729Y-56236038D01*
X147236038Y-55924729D01*
X147480631Y-55558669D01*
X147649110Y-55151925D01*
X147735000Y-54720128D01*
X147735000Y-54279872D01*
X147649110Y-53848075D01*
X147480631Y-53441331D01*
X147236038Y-53075271D01*
X146924729Y-52763962D01*
X146558669Y-52519369D01*
X146151925Y-52350890D01*
X145720128Y-52265000D01*
X145279872Y-52265000D01*
X144848075Y-52350890D01*
X144441331Y-52519369D01*
X144075271Y-52763962D01*
X143763962Y-53075271D01*
X143519369Y-53441331D01*
X143350890Y-53848075D01*
X143265000Y-54279872D01*
X139760759Y-54279872D01*
X139859232Y-54214075D01*
X140066075Y-54007232D01*
X140228590Y-53764011D01*
X140340532Y-53493758D01*
X140397600Y-53206860D01*
X140397600Y-52914340D01*
X140340532Y-52627442D01*
X140228590Y-52357189D01*
X140066075Y-52113968D01*
X139859232Y-51907125D01*
X139616011Y-51744610D01*
X139345758Y-51632668D01*
X139058860Y-51575600D01*
X138766340Y-51575600D01*
X138479442Y-51632668D01*
X138209189Y-51744610D01*
X137965968Y-51907125D01*
X137759125Y-52113968D01*
X137596610Y-52357189D01*
X137484668Y-52627442D01*
X137427600Y-52914340D01*
X137427600Y-53206860D01*
X137484668Y-53493758D01*
X137596610Y-53764011D01*
X137759125Y-54007232D01*
X137965968Y-54214075D01*
X138140360Y-54330600D01*
X137965968Y-54447125D01*
X137759125Y-54653968D01*
X137596610Y-54897189D01*
X137484668Y-55167442D01*
X137427600Y-55454340D01*
X137427600Y-55746860D01*
X137484668Y-56033758D01*
X137596610Y-56304011D01*
X137759125Y-56547232D01*
X137965968Y-56754075D01*
X138140360Y-56870600D01*
X137965968Y-56987125D01*
X137759125Y-57193968D01*
X137596610Y-57437189D01*
X137484668Y-57707442D01*
X137427600Y-57994340D01*
X137427600Y-58286860D01*
X137484668Y-58573758D01*
X137596610Y-58844011D01*
X137759125Y-59087232D01*
X137965968Y-59294075D01*
X138140360Y-59410600D01*
X137965968Y-59527125D01*
X137759125Y-59733968D01*
X137596610Y-59977189D01*
X137484668Y-60247442D01*
X137427600Y-60534340D01*
X137427600Y-60826860D01*
X137484668Y-61113758D01*
X137596610Y-61384011D01*
X137759125Y-61627232D01*
X137965968Y-61834075D01*
X138140360Y-61950600D01*
X137965968Y-62067125D01*
X137759125Y-62273968D01*
X137596610Y-62517189D01*
X137484668Y-62787442D01*
X137427600Y-63074340D01*
X137427600Y-63366860D01*
X137484668Y-63653758D01*
X137596610Y-63924011D01*
X137759125Y-64167232D01*
X137965968Y-64374075D01*
X138140360Y-64490600D01*
X137965968Y-64607125D01*
X137759125Y-64813968D01*
X137753424Y-64822500D01*
X131771657Y-64822500D01*
X131834185Y-64771185D01*
X131913537Y-64674494D01*
X131972502Y-64564180D01*
X132008812Y-64444482D01*
X132021072Y-64320000D01*
X132018000Y-64118250D01*
X131859250Y-63959500D01*
X130810000Y-63959500D01*
X130810000Y-63979500D01*
X130556000Y-63979500D01*
X130556000Y-63959500D01*
X129506750Y-63959500D01*
X129348000Y-64118250D01*
X129344928Y-64320000D01*
X129357188Y-64444482D01*
X129393498Y-64564180D01*
X129452463Y-64674494D01*
X129531815Y-64771185D01*
X129609564Y-64834992D01*
X129603208Y-64840208D01*
X129493542Y-64973836D01*
X129412053Y-65126291D01*
X129361872Y-65291715D01*
X129344928Y-65463750D01*
X129344928Y-65951250D01*
X129361872Y-66123285D01*
X129412053Y-66288709D01*
X129493542Y-66441164D01*
X129603208Y-66574792D01*
X129736836Y-66684458D01*
X129774001Y-66704323D01*
X129774000Y-67370754D01*
X129659000Y-67359428D01*
X129444750Y-67362500D01*
X129286000Y-67521250D01*
X129286000Y-68770500D01*
X129306000Y-68770500D01*
X129306000Y-69016728D01*
X129286000Y-69016728D01*
X129286000Y-71437500D01*
X130735250Y-71437500D01*
X130894000Y-71278750D01*
X130897072Y-70644500D01*
X130896835Y-70642098D01*
X130896922Y-70640969D01*
X130895837Y-70631957D01*
X130884812Y-70520018D01*
X130848502Y-70400320D01*
X130789537Y-70290006D01*
X130710185Y-70193315D01*
X130644090Y-70139072D01*
X131159000Y-70139072D01*
X131283482Y-70126812D01*
X131403180Y-70090502D01*
X131513494Y-70031537D01*
X131610185Y-69952185D01*
X131689537Y-69855494D01*
X131748502Y-69745180D01*
X131781621Y-69636000D01*
X131865531Y-69636000D01*
X131909000Y-69640281D01*
X131952469Y-69636000D01*
X131952477Y-69636000D01*
X132082490Y-69623195D01*
X132249313Y-69572589D01*
X132403059Y-69490411D01*
X132537817Y-69379817D01*
X132565534Y-69346044D01*
X133595044Y-68316535D01*
X133651898Y-68305226D01*
X133840256Y-68227205D01*
X134009774Y-68113937D01*
X134153937Y-67969774D01*
X134267205Y-67800256D01*
X134345226Y-67611898D01*
X134385000Y-67411939D01*
X134385000Y-67208061D01*
X134345226Y-67008102D01*
X134267205Y-66819744D01*
X134153937Y-66650226D01*
X134096211Y-66592500D01*
X137682464Y-66592500D01*
X137759125Y-66707232D01*
X137890980Y-66839087D01*
X137818420Y-66861098D01*
X137708106Y-66920063D01*
X137611415Y-66999415D01*
X137532063Y-67096106D01*
X137473098Y-67206420D01*
X137436788Y-67326118D01*
X137424528Y-67450600D01*
X137427600Y-68014850D01*
X137586350Y-68173600D01*
X138785600Y-68173600D01*
X138785600Y-68153600D01*
X139039600Y-68153600D01*
X139039600Y-68173600D01*
X140238850Y-68173600D01*
X140397600Y-68014850D01*
X140400672Y-67450600D01*
X140388412Y-67326118D01*
X140352102Y-67206420D01*
X140293137Y-67096106D01*
X140213785Y-66999415D01*
X140117094Y-66920063D01*
X140006780Y-66861098D01*
X139934220Y-66839087D01*
X140066075Y-66707232D01*
X140228590Y-66464011D01*
X140340532Y-66193758D01*
X140389252Y-65948830D01*
X142625000Y-68184579D01*
X142625001Y-68964999D01*
X140399662Y-68964999D01*
X140397600Y-68586350D01*
X140238850Y-68427600D01*
X139039600Y-68427600D01*
X139039600Y-68447600D01*
X138785600Y-68447600D01*
X138785600Y-68427600D01*
X137586350Y-68427600D01*
X137427600Y-68586350D01*
X137424528Y-69150600D01*
X137436788Y-69275082D01*
X137473098Y-69394780D01*
X137532063Y-69505094D01*
X137611415Y-69601785D01*
X137708106Y-69681137D01*
X137818420Y-69740102D01*
X137902717Y-69765673D01*
X118383391Y-89285000D01*
X80376579Y-89285000D01*
X76308578Y-85217000D01*
X81280000Y-85217000D01*
X81304776Y-85214560D01*
X81328601Y-85207333D01*
X81350557Y-85195597D01*
X81369803Y-85179803D01*
X81385597Y-85160557D01*
X81397333Y-85138601D01*
X81404560Y-85114776D01*
X81407000Y-85090000D01*
X81407000Y-82448061D01*
X119615000Y-82448061D01*
X119615000Y-82651939D01*
X119654774Y-82851898D01*
X119732795Y-83040256D01*
X119846063Y-83209774D01*
X119990226Y-83353937D01*
X120159744Y-83467205D01*
X120348102Y-83545226D01*
X120548061Y-83585000D01*
X120751939Y-83585000D01*
X120951898Y-83545226D01*
X121140256Y-83467205D01*
X121309774Y-83353937D01*
X121453937Y-83209774D01*
X121567205Y-83040256D01*
X121645226Y-82851898D01*
X121685000Y-82651939D01*
X121685000Y-82448061D01*
X121645226Y-82248102D01*
X121567205Y-82059744D01*
X121535000Y-82011546D01*
X121535000Y-79146536D01*
X121538815Y-79151185D01*
X121635506Y-79230537D01*
X121745820Y-79289502D01*
X121865518Y-79325812D01*
X121990000Y-79338072D01*
X124390000Y-79338072D01*
X124514482Y-79325812D01*
X124634180Y-79289502D01*
X124744494Y-79230537D01*
X124841185Y-79151185D01*
X124920537Y-79054494D01*
X124979502Y-78944180D01*
X125015812Y-78824482D01*
X125020391Y-78777980D01*
X125591626Y-78777980D01*
X125711514Y-79062836D01*
X126035210Y-79223699D01*
X126384069Y-79318322D01*
X126744684Y-79343067D01*
X127103198Y-79296985D01*
X127445833Y-79181846D01*
X127668486Y-79062836D01*
X127788374Y-78777980D01*
X126690000Y-77679605D01*
X125591626Y-78777980D01*
X125020391Y-78777980D01*
X125028072Y-78700000D01*
X125028072Y-78293097D01*
X125127164Y-78478486D01*
X125412020Y-78598374D01*
X126510395Y-77500000D01*
X126869605Y-77500000D01*
X127967980Y-78598374D01*
X128252836Y-78478486D01*
X128413699Y-78154790D01*
X128508322Y-77805931D01*
X128533067Y-77445316D01*
X128486985Y-77086802D01*
X128371846Y-76744167D01*
X128252836Y-76521514D01*
X127967980Y-76401626D01*
X126869605Y-77500000D01*
X126510395Y-77500000D01*
X125412020Y-76401626D01*
X125127164Y-76521514D01*
X125028072Y-76720912D01*
X125028072Y-76300000D01*
X125020392Y-76222020D01*
X125591626Y-76222020D01*
X126690000Y-77320395D01*
X127788374Y-76222020D01*
X127668486Y-75937164D01*
X127344790Y-75776301D01*
X126995931Y-75681678D01*
X126635316Y-75656933D01*
X126276802Y-75703015D01*
X125934167Y-75818154D01*
X125711514Y-75937164D01*
X125591626Y-76222020D01*
X125020392Y-76222020D01*
X125015812Y-76175518D01*
X124979502Y-76055820D01*
X124920537Y-75945506D01*
X124841185Y-75848815D01*
X124744494Y-75769463D01*
X124634180Y-75710498D01*
X124514482Y-75674188D01*
X124390000Y-75661928D01*
X124075000Y-75661928D01*
X124075000Y-72484500D01*
X127420928Y-72484500D01*
X127421251Y-72487777D01*
X127421137Y-72489342D01*
X127422422Y-72499669D01*
X127433188Y-72608982D01*
X127469498Y-72728680D01*
X127528463Y-72838994D01*
X127607815Y-72935685D01*
X127704506Y-73015037D01*
X127723145Y-73025000D01*
X127667623Y-73025000D01*
X128137716Y-73690965D01*
X128207815Y-73774185D01*
X128304506Y-73853537D01*
X128414820Y-73912502D01*
X128534518Y-73948812D01*
X128659000Y-73961072D01*
X129032000Y-73961072D01*
X129032000Y-73025000D01*
X129012000Y-73025000D01*
X129012000Y-72980750D01*
X129032000Y-72960750D01*
X129032000Y-71691500D01*
X129286000Y-71691500D01*
X129286000Y-72960750D01*
X129306000Y-72980750D01*
X129306000Y-73025000D01*
X129286000Y-73025000D01*
X129286000Y-73961072D01*
X129659000Y-73961072D01*
X129767413Y-73951795D01*
X129888001Y-73918562D01*
X129999790Y-73862443D01*
X130098481Y-73785593D01*
X130180284Y-73690965D01*
X130650377Y-73025000D01*
X130594855Y-73025000D01*
X130613494Y-73015037D01*
X130710185Y-72935685D01*
X130789537Y-72838994D01*
X130848502Y-72728680D01*
X130884812Y-72608982D01*
X130897072Y-72484500D01*
X130897019Y-72473539D01*
X130897072Y-72473000D01*
X130897013Y-72472405D01*
X130894000Y-71850250D01*
X130735250Y-71691500D01*
X129286000Y-71691500D01*
X129032000Y-71691500D01*
X127582750Y-71691500D01*
X127424000Y-71850250D01*
X127420928Y-72484500D01*
X124075000Y-72484500D01*
X124075000Y-63618072D01*
X124490000Y-63618072D01*
X124514450Y-63615664D01*
X124539009Y-63615664D01*
X124663490Y-63603404D01*
X124759623Y-63584282D01*
X124879319Y-63547973D01*
X124969875Y-63510464D01*
X125080192Y-63451498D01*
X125161691Y-63397042D01*
X125258382Y-63317690D01*
X125327690Y-63248382D01*
X125407042Y-63151691D01*
X125431558Y-63115000D01*
X125818322Y-63115000D01*
X125975871Y-63272550D01*
X125134951Y-64113471D01*
X125101184Y-64141183D01*
X125073471Y-64174951D01*
X125073468Y-64174954D01*
X124990590Y-64275941D01*
X124908412Y-64429687D01*
X124857805Y-64596510D01*
X124840719Y-64770000D01*
X124845001Y-64813479D01*
X124845000Y-67095531D01*
X124840719Y-67139000D01*
X124845000Y-67182469D01*
X124845000Y-67182476D01*
X124853960Y-67273450D01*
X124857805Y-67312490D01*
X124866975Y-67342718D01*
X124908411Y-67479312D01*
X124990589Y-67633058D01*
X125101183Y-67767817D01*
X125134956Y-67795534D01*
X126520928Y-69181507D01*
X126520928Y-69501000D01*
X126533188Y-69625482D01*
X126569498Y-69745180D01*
X126628463Y-69855494D01*
X126707815Y-69952185D01*
X126804506Y-70031537D01*
X126914820Y-70090502D01*
X127034518Y-70126812D01*
X127159000Y-70139072D01*
X127673910Y-70139072D01*
X127607815Y-70193315D01*
X127528463Y-70290006D01*
X127469498Y-70400320D01*
X127433188Y-70520018D01*
X127420928Y-70644500D01*
X127420976Y-70654317D01*
X127420928Y-70654800D01*
X127420980Y-70655333D01*
X127424000Y-71278750D01*
X127582750Y-71437500D01*
X129032000Y-71437500D01*
X129032000Y-69016728D01*
X129012000Y-69016728D01*
X129012000Y-68770500D01*
X129032000Y-68770500D01*
X129032000Y-67521250D01*
X128873250Y-67362500D01*
X128659000Y-67359428D01*
X128534518Y-67371688D01*
X128414820Y-67407998D01*
X128405726Y-67412859D01*
X128403180Y-67411498D01*
X128283482Y-67375188D01*
X128159000Y-67362928D01*
X127205507Y-67362928D01*
X126615000Y-66772422D01*
X126615000Y-66619665D01*
X126682106Y-66674737D01*
X126792420Y-66733702D01*
X126912118Y-66770012D01*
X127036600Y-66782272D01*
X127450850Y-66779200D01*
X127609600Y-66620450D01*
X127609600Y-65783700D01*
X127863600Y-65783700D01*
X127863600Y-66620450D01*
X128022350Y-66779200D01*
X128436600Y-66782272D01*
X128561082Y-66770012D01*
X128680780Y-66733702D01*
X128791094Y-66674737D01*
X128887785Y-66595385D01*
X128967137Y-66498694D01*
X129026102Y-66388380D01*
X129062412Y-66268682D01*
X129074672Y-66144200D01*
X129071600Y-65942450D01*
X128912850Y-65783700D01*
X127863600Y-65783700D01*
X127609600Y-65783700D01*
X127589600Y-65783700D01*
X127589600Y-65529700D01*
X127609600Y-65529700D01*
X127609600Y-65509700D01*
X127863600Y-65509700D01*
X127863600Y-65529700D01*
X128912850Y-65529700D01*
X129071600Y-65370950D01*
X129074672Y-65169200D01*
X129062412Y-65044718D01*
X129026102Y-64925020D01*
X128967137Y-64814706D01*
X128887785Y-64718015D01*
X128810036Y-64654208D01*
X128816392Y-64648992D01*
X128926058Y-64515364D01*
X129007547Y-64362909D01*
X129057728Y-64197485D01*
X129074672Y-64025450D01*
X129074672Y-63537950D01*
X129057728Y-63365915D01*
X129051384Y-63345000D01*
X129344928Y-63345000D01*
X129348000Y-63546750D01*
X129506750Y-63705500D01*
X130556000Y-63705500D01*
X130556000Y-62868750D01*
X130810000Y-62868750D01*
X130810000Y-63705500D01*
X131859250Y-63705500D01*
X132018000Y-63546750D01*
X132021072Y-63345000D01*
X132008812Y-63220518D01*
X131972502Y-63100820D01*
X131913537Y-62990506D01*
X131834185Y-62893815D01*
X131737494Y-62814463D01*
X131627180Y-62755498D01*
X131507482Y-62719188D01*
X131383000Y-62706928D01*
X130968750Y-62710000D01*
X130810000Y-62868750D01*
X130556000Y-62868750D01*
X130397250Y-62710000D01*
X129983000Y-62706928D01*
X129858518Y-62719188D01*
X129738820Y-62755498D01*
X129628506Y-62814463D01*
X129531815Y-62893815D01*
X129452463Y-62990506D01*
X129393498Y-63100820D01*
X129357188Y-63220518D01*
X129344928Y-63345000D01*
X129051384Y-63345000D01*
X129007547Y-63200491D01*
X128926058Y-63048036D01*
X128816392Y-62914408D01*
X128682764Y-62804742D01*
X128530309Y-62723253D01*
X128364885Y-62673072D01*
X128192850Y-62656128D01*
X127862607Y-62656128D01*
X126841434Y-61634956D01*
X126813717Y-61601183D01*
X126678959Y-61490589D01*
X126525213Y-61408411D01*
X126358390Y-61357805D01*
X126228377Y-61345000D01*
X126228369Y-61345000D01*
X126184900Y-61340719D01*
X126141431Y-61345000D01*
X125431558Y-61345000D01*
X125407042Y-61308309D01*
X125327690Y-61211618D01*
X125258382Y-61142310D01*
X125161691Y-61062958D01*
X125080192Y-61008502D01*
X124969875Y-60949536D01*
X124879319Y-60912027D01*
X124759623Y-60875718D01*
X124663490Y-60856596D01*
X124539009Y-60844336D01*
X124514450Y-60844336D01*
X124490000Y-60841928D01*
X123940000Y-60841928D01*
X123815518Y-60854188D01*
X123815000Y-60854345D01*
X123814482Y-60854188D01*
X123690000Y-60841928D01*
X122775000Y-60841928D01*
X122775000Y-60086578D01*
X123556579Y-59305000D01*
X124381928Y-59305000D01*
X124381928Y-59320000D01*
X124394188Y-59444482D01*
X124430498Y-59564180D01*
X124489463Y-59674494D01*
X124568815Y-59771185D01*
X124665506Y-59850537D01*
X124775820Y-59909502D01*
X124895518Y-59945812D01*
X125020000Y-59958072D01*
X127520000Y-59958072D01*
X127644482Y-59945812D01*
X127764180Y-59909502D01*
X127874494Y-59850537D01*
X127971185Y-59771185D01*
X128050537Y-59674494D01*
X128109502Y-59564180D01*
X128145812Y-59444482D01*
X128158072Y-59320000D01*
X128158072Y-57520000D01*
X128381928Y-57520000D01*
X128381928Y-59320000D01*
X128394188Y-59444482D01*
X128430498Y-59564180D01*
X128489463Y-59674494D01*
X128568815Y-59771185D01*
X128665506Y-59850537D01*
X128775820Y-59909502D01*
X128895518Y-59945812D01*
X129020000Y-59958072D01*
X131520000Y-59958072D01*
X131644482Y-59945812D01*
X131764180Y-59909502D01*
X131874494Y-59850537D01*
X131971185Y-59771185D01*
X132050537Y-59674494D01*
X132061821Y-59653383D01*
X132343465Y-59935028D01*
X132354774Y-59991882D01*
X132432795Y-60180240D01*
X132546063Y-60349758D01*
X132690226Y-60493921D01*
X132859744Y-60607189D01*
X133048102Y-60685210D01*
X133248061Y-60724984D01*
X133451939Y-60724984D01*
X133651898Y-60685210D01*
X133840256Y-60607189D01*
X134009774Y-60493921D01*
X134153937Y-60349758D01*
X134267205Y-60180240D01*
X134345226Y-59991882D01*
X134385000Y-59791923D01*
X134385000Y-59588045D01*
X134345226Y-59388086D01*
X134267205Y-59199728D01*
X134153937Y-59030210D01*
X134009774Y-58886047D01*
X133840256Y-58772779D01*
X133651898Y-58694758D01*
X133595044Y-58683449D01*
X132736550Y-57824956D01*
X132708833Y-57791183D01*
X132574075Y-57680589D01*
X132420329Y-57598411D01*
X132253506Y-57547805D01*
X132158072Y-57538406D01*
X132158072Y-57520000D01*
X132145812Y-57395518D01*
X132109502Y-57275820D01*
X132050537Y-57165506D01*
X131971185Y-57068815D01*
X131874494Y-56989463D01*
X131764180Y-56930498D01*
X131644482Y-56894188D01*
X131520000Y-56881928D01*
X129020000Y-56881928D01*
X128895518Y-56894188D01*
X128775820Y-56930498D01*
X128665506Y-56989463D01*
X128568815Y-57068815D01*
X128489463Y-57165506D01*
X128430498Y-57275820D01*
X128394188Y-57395518D01*
X128381928Y-57520000D01*
X128158072Y-57520000D01*
X128145812Y-57395518D01*
X128109502Y-57275820D01*
X128050537Y-57165506D01*
X127971185Y-57068815D01*
X127874494Y-56989463D01*
X127764180Y-56930498D01*
X127644482Y-56894188D01*
X127520000Y-56881928D01*
X125020000Y-56881928D01*
X124895518Y-56894188D01*
X124775820Y-56930498D01*
X124665506Y-56989463D01*
X124568815Y-57068815D01*
X124489463Y-57165506D01*
X124430498Y-57275820D01*
X124394188Y-57395518D01*
X124381928Y-57520000D01*
X124381928Y-57535000D01*
X123233469Y-57535000D01*
X123190000Y-57530719D01*
X123146531Y-57535000D01*
X123146523Y-57535000D01*
X123016510Y-57547805D01*
X122849686Y-57598411D01*
X122695941Y-57680589D01*
X122594953Y-57763468D01*
X122594951Y-57763470D01*
X122561183Y-57791183D01*
X122533470Y-57824951D01*
X121294956Y-59063466D01*
X121261183Y-59091183D01*
X121150589Y-59225942D01*
X121068411Y-59379688D01*
X121017805Y-59546511D01*
X121005000Y-59676524D01*
X121005000Y-59676531D01*
X121000719Y-59720000D01*
X121005000Y-59763469D01*
X121005001Y-61269265D01*
X120972958Y-61308309D01*
X120918502Y-61389808D01*
X120859536Y-61500125D01*
X120822027Y-61590681D01*
X120785718Y-61710377D01*
X120766596Y-61806510D01*
X120754336Y-61930991D01*
X120754336Y-61955550D01*
X120751928Y-61980000D01*
X120751928Y-62480000D01*
X120754336Y-62504450D01*
X120754336Y-62529009D01*
X120766596Y-62653490D01*
X120785718Y-62749623D01*
X120822027Y-62869319D01*
X120859536Y-62959875D01*
X120918502Y-63070192D01*
X120972958Y-63151691D01*
X121052310Y-63248382D01*
X121121618Y-63317690D01*
X121218309Y-63397042D01*
X121299808Y-63451498D01*
X121410125Y-63510464D01*
X121500681Y-63547973D01*
X121620377Y-63584282D01*
X121716510Y-63603404D01*
X121840991Y-63615664D01*
X121865550Y-63615664D01*
X121890000Y-63618072D01*
X122305001Y-63618072D01*
X122305000Y-75661928D01*
X121990000Y-75661928D01*
X121865518Y-75674188D01*
X121745820Y-75710498D01*
X121635506Y-75769463D01*
X121538815Y-75848815D01*
X121459463Y-75945506D01*
X121400498Y-76055820D01*
X121364188Y-76175518D01*
X121351928Y-76300000D01*
X121351928Y-76624317D01*
X121316510Y-76627805D01*
X121149687Y-76678411D01*
X120995941Y-76760589D01*
X120995939Y-76760590D01*
X120995940Y-76760590D01*
X120894953Y-76843468D01*
X120894951Y-76843470D01*
X120861183Y-76871183D01*
X120833470Y-76904951D01*
X120054951Y-77683471D01*
X120021184Y-77711183D01*
X119993471Y-77744951D01*
X119993468Y-77744954D01*
X119910590Y-77845941D01*
X119828412Y-77999687D01*
X119777805Y-78166510D01*
X119760719Y-78340000D01*
X119765001Y-78383479D01*
X119765000Y-82011545D01*
X119732795Y-82059744D01*
X119654774Y-82248102D01*
X119615000Y-82448061D01*
X81407000Y-82448061D01*
X81407000Y-50927000D01*
X148463000Y-50927000D01*
X148463000Y-148463000D01*
G37*
X148463000Y-148463000D02*
X52197000Y-148463000D01*
X52197000Y-145279872D01*
X52265000Y-145279872D01*
X52265000Y-145720128D01*
X52350890Y-146151925D01*
X52519369Y-146558669D01*
X52763962Y-146924729D01*
X53075271Y-147236038D01*
X53441331Y-147480631D01*
X53848075Y-147649110D01*
X54279872Y-147735000D01*
X54720128Y-147735000D01*
X55151925Y-147649110D01*
X55558669Y-147480631D01*
X55924729Y-147236038D01*
X56236038Y-146924729D01*
X56480631Y-146558669D01*
X56649110Y-146151925D01*
X56735000Y-145720128D01*
X56735000Y-145279872D01*
X143265000Y-145279872D01*
X143265000Y-145720128D01*
X143350890Y-146151925D01*
X143519369Y-146558669D01*
X143763962Y-146924729D01*
X144075271Y-147236038D01*
X144441331Y-147480631D01*
X144848075Y-147649110D01*
X145279872Y-147735000D01*
X145720128Y-147735000D01*
X146151925Y-147649110D01*
X146558669Y-147480631D01*
X146924729Y-147236038D01*
X147236038Y-146924729D01*
X147480631Y-146558669D01*
X147649110Y-146151925D01*
X147735000Y-145720128D01*
X147735000Y-145279872D01*
X147649110Y-144848075D01*
X147480631Y-144441331D01*
X147236038Y-144075271D01*
X146924729Y-143763962D01*
X146558669Y-143519369D01*
X146151925Y-143350890D01*
X145720128Y-143265000D01*
X145279872Y-143265000D01*
X144848075Y-143350890D01*
X144441331Y-143519369D01*
X144075271Y-143763962D01*
X143763962Y-144075271D01*
X143519369Y-144441331D01*
X143350890Y-144848075D01*
X143265000Y-145279872D01*
X56735000Y-145279872D01*
X56649110Y-144848075D01*
X56480631Y-144441331D01*
X56236038Y-144075271D01*
X55924729Y-143763962D01*
X55558669Y-143519369D01*
X55151925Y-143350890D01*
X54720128Y-143265000D01*
X54279872Y-143265000D01*
X53848075Y-143350890D01*
X53441331Y-143519369D01*
X53075271Y-143763962D01*
X52763962Y-144075271D01*
X52519369Y-144441331D01*
X52350890Y-144848075D01*
X52265000Y-145279872D01*
X52197000Y-145279872D01*
X52197000Y-85217000D01*
X68973228Y-85217000D01*
X68975006Y-85235050D01*
X68977805Y-85263472D01*
X68978283Y-85265048D01*
X69028411Y-85430294D01*
X69110589Y-85584040D01*
X69221183Y-85718799D01*
X69254956Y-85746516D01*
X79353488Y-95845049D01*
X79381201Y-95878817D01*
X79414969Y-95906530D01*
X79414971Y-95906532D01*
X79486470Y-95965210D01*
X79515959Y-95989411D01*
X79669705Y-96071589D01*
X79836528Y-96122195D01*
X79966541Y-96135000D01*
X79966551Y-96135000D01*
X80010017Y-96139281D01*
X80053483Y-96135000D01*
X119336531Y-96135000D01*
X119380000Y-96139281D01*
X119423469Y-96135000D01*
X119423477Y-96135000D01*
X119553490Y-96122195D01*
X119720313Y-96071589D01*
X119874059Y-95989411D01*
X120008817Y-95878817D01*
X120036534Y-95845044D01*
X133622613Y-82258966D01*
X133585000Y-82448061D01*
X133585000Y-82651939D01*
X133624774Y-82851898D01*
X133702795Y-83040256D01*
X133816063Y-83209774D01*
X133960226Y-83353937D01*
X134129744Y-83467205D01*
X134318102Y-83545226D01*
X134518061Y-83585000D01*
X134721939Y-83585000D01*
X134921898Y-83545226D01*
X135110256Y-83467205D01*
X135158454Y-83435000D01*
X144172531Y-83435000D01*
X144216000Y-83439281D01*
X144259469Y-83435000D01*
X144259477Y-83435000D01*
X144389490Y-83422195D01*
X144556313Y-83371589D01*
X144660179Y-83316072D01*
X146488000Y-83316072D01*
X146612482Y-83303812D01*
X146732180Y-83267502D01*
X146842494Y-83208537D01*
X146939185Y-83129185D01*
X147018537Y-83032494D01*
X147077502Y-82922180D01*
X147113812Y-82802482D01*
X147126072Y-82678000D01*
X147126072Y-80278000D01*
X147113812Y-80153518D01*
X147077502Y-80033820D01*
X147018537Y-79923506D01*
X146939185Y-79826815D01*
X146842494Y-79747463D01*
X146732180Y-79688498D01*
X146612482Y-79652188D01*
X146488000Y-79639928D01*
X146070838Y-79639928D01*
X146157199Y-79604156D01*
X146457744Y-79403338D01*
X146713338Y-79147744D01*
X146914156Y-78847199D01*
X147052482Y-78513250D01*
X147123000Y-78158732D01*
X147123000Y-77797268D01*
X147052482Y-77442750D01*
X146914156Y-77108801D01*
X146713338Y-76808256D01*
X146457744Y-76552662D01*
X146157199Y-76351844D01*
X145823250Y-76213518D01*
X145468732Y-76143000D01*
X145107268Y-76143000D01*
X144752750Y-76213518D01*
X144418801Y-76351844D01*
X144118256Y-76552662D01*
X143862662Y-76808256D01*
X143672402Y-77093000D01*
X143634413Y-77093000D01*
X143590944Y-77088719D01*
X143547475Y-77093000D01*
X143547467Y-77093000D01*
X143432250Y-77104348D01*
X143417453Y-77105805D01*
X143366847Y-77121157D01*
X143250631Y-77156411D01*
X143096885Y-77238589D01*
X143096883Y-77238590D01*
X143096884Y-77238590D01*
X142995897Y-77321468D01*
X142995895Y-77321470D01*
X142962127Y-77349183D01*
X142934414Y-77382951D01*
X141192366Y-79125000D01*
X139296578Y-79125000D01*
X147915049Y-70506530D01*
X147948817Y-70478817D01*
X147976533Y-70445046D01*
X148059411Y-70344059D01*
X148141589Y-70190314D01*
X148192195Y-70023490D01*
X148196944Y-69975272D01*
X148205000Y-69893477D01*
X148205000Y-69893469D01*
X148209281Y-69850000D01*
X148205000Y-69806531D01*
X148205000Y-64051465D01*
X148209281Y-64007999D01*
X148205000Y-63964533D01*
X148205000Y-63964523D01*
X148192195Y-63834510D01*
X148141589Y-63667687D01*
X148059411Y-63513941D01*
X147999866Y-63441386D01*
X147976532Y-63412953D01*
X147976530Y-63412951D01*
X147948817Y-63379183D01*
X147915051Y-63351472D01*
X140383139Y-55819561D01*
X140397600Y-55746860D01*
X140397600Y-55454340D01*
X140340532Y-55167442D01*
X140228590Y-54897189D01*
X140066075Y-54653968D01*
X139859232Y-54447125D01*
X139684840Y-54330600D01*
X139760759Y-54279872D01*
X143265000Y-54279872D01*
X143265000Y-54720128D01*
X143350890Y-55151925D01*
X143519369Y-55558669D01*
X143763962Y-55924729D01*
X144075271Y-56236038D01*
X144441331Y-56480631D01*
X144848075Y-56649110D01*
X145279872Y-56735000D01*
X145720128Y-56735000D01*
X146151925Y-56649110D01*
X146558669Y-56480631D01*
X146924729Y-56236038D01*
X147236038Y-55924729D01*
X147480631Y-55558669D01*
X147649110Y-55151925D01*
X147735000Y-54720128D01*
X147735000Y-54279872D01*
X147649110Y-53848075D01*
X147480631Y-53441331D01*
X147236038Y-53075271D01*
X146924729Y-52763962D01*
X146558669Y-52519369D01*
X146151925Y-52350890D01*
X145720128Y-52265000D01*
X145279872Y-52265000D01*
X144848075Y-52350890D01*
X144441331Y-52519369D01*
X144075271Y-52763962D01*
X143763962Y-53075271D01*
X143519369Y-53441331D01*
X143350890Y-53848075D01*
X143265000Y-54279872D01*
X139760759Y-54279872D01*
X139859232Y-54214075D01*
X140066075Y-54007232D01*
X140228590Y-53764011D01*
X140340532Y-53493758D01*
X140397600Y-53206860D01*
X140397600Y-52914340D01*
X140340532Y-52627442D01*
X140228590Y-52357189D01*
X140066075Y-52113968D01*
X139859232Y-51907125D01*
X139616011Y-51744610D01*
X139345758Y-51632668D01*
X139058860Y-51575600D01*
X138766340Y-51575600D01*
X138479442Y-51632668D01*
X138209189Y-51744610D01*
X137965968Y-51907125D01*
X137759125Y-52113968D01*
X137596610Y-52357189D01*
X137484668Y-52627442D01*
X137427600Y-52914340D01*
X137427600Y-53206860D01*
X137484668Y-53493758D01*
X137596610Y-53764011D01*
X137759125Y-54007232D01*
X137965968Y-54214075D01*
X138140360Y-54330600D01*
X137965968Y-54447125D01*
X137759125Y-54653968D01*
X137596610Y-54897189D01*
X137484668Y-55167442D01*
X137427600Y-55454340D01*
X137427600Y-55746860D01*
X137484668Y-56033758D01*
X137596610Y-56304011D01*
X137759125Y-56547232D01*
X137965968Y-56754075D01*
X138140360Y-56870600D01*
X137965968Y-56987125D01*
X137759125Y-57193968D01*
X137596610Y-57437189D01*
X137484668Y-57707442D01*
X137427600Y-57994340D01*
X137427600Y-58286860D01*
X137484668Y-58573758D01*
X137596610Y-58844011D01*
X137759125Y-59087232D01*
X137965968Y-59294075D01*
X138140360Y-59410600D01*
X137965968Y-59527125D01*
X137759125Y-59733968D01*
X137596610Y-59977189D01*
X137484668Y-60247442D01*
X137427600Y-60534340D01*
X137427600Y-60826860D01*
X137484668Y-61113758D01*
X137596610Y-61384011D01*
X137759125Y-61627232D01*
X137965968Y-61834075D01*
X138140360Y-61950600D01*
X137965968Y-62067125D01*
X137759125Y-62273968D01*
X137596610Y-62517189D01*
X137484668Y-62787442D01*
X137427600Y-63074340D01*
X137427600Y-63366860D01*
X137484668Y-63653758D01*
X137596610Y-63924011D01*
X137759125Y-64167232D01*
X137965968Y-64374075D01*
X138140360Y-64490600D01*
X137965968Y-64607125D01*
X137759125Y-64813968D01*
X137753424Y-64822500D01*
X131771657Y-64822500D01*
X131834185Y-64771185D01*
X131913537Y-64674494D01*
X131972502Y-64564180D01*
X132008812Y-64444482D01*
X132021072Y-64320000D01*
X132018000Y-64118250D01*
X131859250Y-63959500D01*
X130810000Y-63959500D01*
X130810000Y-63979500D01*
X130556000Y-63979500D01*
X130556000Y-63959500D01*
X129506750Y-63959500D01*
X129348000Y-64118250D01*
X129344928Y-64320000D01*
X129357188Y-64444482D01*
X129393498Y-64564180D01*
X129452463Y-64674494D01*
X129531815Y-64771185D01*
X129609564Y-64834992D01*
X129603208Y-64840208D01*
X129493542Y-64973836D01*
X129412053Y-65126291D01*
X129361872Y-65291715D01*
X129344928Y-65463750D01*
X129344928Y-65951250D01*
X129361872Y-66123285D01*
X129412053Y-66288709D01*
X129493542Y-66441164D01*
X129603208Y-66574792D01*
X129736836Y-66684458D01*
X129774001Y-66704323D01*
X129774000Y-67370754D01*
X129659000Y-67359428D01*
X129444750Y-67362500D01*
X129286000Y-67521250D01*
X129286000Y-68770500D01*
X129306000Y-68770500D01*
X129306000Y-69016728D01*
X129286000Y-69016728D01*
X129286000Y-71437500D01*
X130735250Y-71437500D01*
X130894000Y-71278750D01*
X130897072Y-70644500D01*
X130896835Y-70642098D01*
X130896922Y-70640969D01*
X130895837Y-70631957D01*
X130884812Y-70520018D01*
X130848502Y-70400320D01*
X130789537Y-70290006D01*
X130710185Y-70193315D01*
X130644090Y-70139072D01*
X131159000Y-70139072D01*
X131283482Y-70126812D01*
X131403180Y-70090502D01*
X131513494Y-70031537D01*
X131610185Y-69952185D01*
X131689537Y-69855494D01*
X131748502Y-69745180D01*
X131781621Y-69636000D01*
X131865531Y-69636000D01*
X131909000Y-69640281D01*
X131952469Y-69636000D01*
X131952477Y-69636000D01*
X132082490Y-69623195D01*
X132249313Y-69572589D01*
X132403059Y-69490411D01*
X132537817Y-69379817D01*
X132565534Y-69346044D01*
X133595044Y-68316535D01*
X133651898Y-68305226D01*
X133840256Y-68227205D01*
X134009774Y-68113937D01*
X134153937Y-67969774D01*
X134267205Y-67800256D01*
X134345226Y-67611898D01*
X134385000Y-67411939D01*
X134385000Y-67208061D01*
X134345226Y-67008102D01*
X134267205Y-66819744D01*
X134153937Y-66650226D01*
X134096211Y-66592500D01*
X137682464Y-66592500D01*
X137759125Y-66707232D01*
X137890980Y-66839087D01*
X137818420Y-66861098D01*
X137708106Y-66920063D01*
X137611415Y-66999415D01*
X137532063Y-67096106D01*
X137473098Y-67206420D01*
X137436788Y-67326118D01*
X137424528Y-67450600D01*
X137427600Y-68014850D01*
X137586350Y-68173600D01*
X138785600Y-68173600D01*
X138785600Y-68153600D01*
X139039600Y-68153600D01*
X139039600Y-68173600D01*
X140238850Y-68173600D01*
X140397600Y-68014850D01*
X140400672Y-67450600D01*
X140388412Y-67326118D01*
X140352102Y-67206420D01*
X140293137Y-67096106D01*
X140213785Y-66999415D01*
X140117094Y-66920063D01*
X140006780Y-66861098D01*
X139934220Y-66839087D01*
X140066075Y-66707232D01*
X140228590Y-66464011D01*
X140340532Y-66193758D01*
X140389252Y-65948830D01*
X142625000Y-68184579D01*
X142625001Y-68964999D01*
X140399662Y-68964999D01*
X140397600Y-68586350D01*
X140238850Y-68427600D01*
X139039600Y-68427600D01*
X139039600Y-68447600D01*
X138785600Y-68447600D01*
X138785600Y-68427600D01*
X137586350Y-68427600D01*
X137427600Y-68586350D01*
X137424528Y-69150600D01*
X137436788Y-69275082D01*
X137473098Y-69394780D01*
X137532063Y-69505094D01*
X137611415Y-69601785D01*
X137708106Y-69681137D01*
X137818420Y-69740102D01*
X137902717Y-69765673D01*
X118383391Y-89285000D01*
X80376579Y-89285000D01*
X76308578Y-85217000D01*
X81280000Y-85217000D01*
X81304776Y-85214560D01*
X81328601Y-85207333D01*
X81350557Y-85195597D01*
X81369803Y-85179803D01*
X81385597Y-85160557D01*
X81397333Y-85138601D01*
X81404560Y-85114776D01*
X81407000Y-85090000D01*
X81407000Y-82448061D01*
X119615000Y-82448061D01*
X119615000Y-82651939D01*
X119654774Y-82851898D01*
X119732795Y-83040256D01*
X119846063Y-83209774D01*
X119990226Y-83353937D01*
X120159744Y-83467205D01*
X120348102Y-83545226D01*
X120548061Y-83585000D01*
X120751939Y-83585000D01*
X120951898Y-83545226D01*
X121140256Y-83467205D01*
X121309774Y-83353937D01*
X121453937Y-83209774D01*
X121567205Y-83040256D01*
X121645226Y-82851898D01*
X121685000Y-82651939D01*
X121685000Y-82448061D01*
X121645226Y-82248102D01*
X121567205Y-82059744D01*
X121535000Y-82011546D01*
X121535000Y-79146536D01*
X121538815Y-79151185D01*
X121635506Y-79230537D01*
X121745820Y-79289502D01*
X121865518Y-79325812D01*
X121990000Y-79338072D01*
X124390000Y-79338072D01*
X124514482Y-79325812D01*
X124634180Y-79289502D01*
X124744494Y-79230537D01*
X124841185Y-79151185D01*
X124920537Y-79054494D01*
X124979502Y-78944180D01*
X125015812Y-78824482D01*
X125020391Y-78777980D01*
X125591626Y-78777980D01*
X125711514Y-79062836D01*
X126035210Y-79223699D01*
X126384069Y-79318322D01*
X126744684Y-79343067D01*
X127103198Y-79296985D01*
X127445833Y-79181846D01*
X127668486Y-79062836D01*
X127788374Y-78777980D01*
X126690000Y-77679605D01*
X125591626Y-78777980D01*
X125020391Y-78777980D01*
X125028072Y-78700000D01*
X125028072Y-78293097D01*
X125127164Y-78478486D01*
X125412020Y-78598374D01*
X126510395Y-77500000D01*
X126869605Y-77500000D01*
X127967980Y-78598374D01*
X128252836Y-78478486D01*
X128413699Y-78154790D01*
X128508322Y-77805931D01*
X128533067Y-77445316D01*
X128486985Y-77086802D01*
X128371846Y-76744167D01*
X128252836Y-76521514D01*
X127967980Y-76401626D01*
X126869605Y-77500000D01*
X126510395Y-77500000D01*
X125412020Y-76401626D01*
X125127164Y-76521514D01*
X125028072Y-76720912D01*
X125028072Y-76300000D01*
X125020392Y-76222020D01*
X125591626Y-76222020D01*
X126690000Y-77320395D01*
X127788374Y-76222020D01*
X127668486Y-75937164D01*
X127344790Y-75776301D01*
X126995931Y-75681678D01*
X126635316Y-75656933D01*
X126276802Y-75703015D01*
X125934167Y-75818154D01*
X125711514Y-75937164D01*
X125591626Y-76222020D01*
X125020392Y-76222020D01*
X125015812Y-76175518D01*
X124979502Y-76055820D01*
X124920537Y-75945506D01*
X124841185Y-75848815D01*
X124744494Y-75769463D01*
X124634180Y-75710498D01*
X124514482Y-75674188D01*
X124390000Y-75661928D01*
X124075000Y-75661928D01*
X124075000Y-72484500D01*
X127420928Y-72484500D01*
X127421251Y-72487777D01*
X127421137Y-72489342D01*
X127422422Y-72499669D01*
X127433188Y-72608982D01*
X127469498Y-72728680D01*
X127528463Y-72838994D01*
X127607815Y-72935685D01*
X127704506Y-73015037D01*
X127723145Y-73025000D01*
X127667623Y-73025000D01*
X128137716Y-73690965D01*
X128207815Y-73774185D01*
X128304506Y-73853537D01*
X128414820Y-73912502D01*
X128534518Y-73948812D01*
X128659000Y-73961072D01*
X129032000Y-73961072D01*
X129032000Y-73025000D01*
X129012000Y-73025000D01*
X129012000Y-72980750D01*
X129032000Y-72960750D01*
X129032000Y-71691500D01*
X129286000Y-71691500D01*
X129286000Y-72960750D01*
X129306000Y-72980750D01*
X129306000Y-73025000D01*
X129286000Y-73025000D01*
X129286000Y-73961072D01*
X129659000Y-73961072D01*
X129767413Y-73951795D01*
X129888001Y-73918562D01*
X129999790Y-73862443D01*
X130098481Y-73785593D01*
X130180284Y-73690965D01*
X130650377Y-73025000D01*
X130594855Y-73025000D01*
X130613494Y-73015037D01*
X130710185Y-72935685D01*
X130789537Y-72838994D01*
X130848502Y-72728680D01*
X130884812Y-72608982D01*
X130897072Y-72484500D01*
X130897019Y-72473539D01*
X130897072Y-72473000D01*
X130897013Y-72472405D01*
X130894000Y-71850250D01*
X130735250Y-71691500D01*
X129286000Y-71691500D01*
X129032000Y-71691500D01*
X127582750Y-71691500D01*
X127424000Y-71850250D01*
X127420928Y-72484500D01*
X124075000Y-72484500D01*
X124075000Y-63618072D01*
X124490000Y-63618072D01*
X124514450Y-63615664D01*
X124539009Y-63615664D01*
X124663490Y-63603404D01*
X124759623Y-63584282D01*
X124879319Y-63547973D01*
X124969875Y-63510464D01*
X125080192Y-63451498D01*
X125161691Y-63397042D01*
X125258382Y-63317690D01*
X125327690Y-63248382D01*
X125407042Y-63151691D01*
X125431558Y-63115000D01*
X125818322Y-63115000D01*
X125975871Y-63272550D01*
X125134951Y-64113471D01*
X125101184Y-64141183D01*
X125073471Y-64174951D01*
X125073468Y-64174954D01*
X124990590Y-64275941D01*
X124908412Y-64429687D01*
X124857805Y-64596510D01*
X124840719Y-64770000D01*
X124845001Y-64813479D01*
X124845000Y-67095531D01*
X124840719Y-67139000D01*
X124845000Y-67182469D01*
X124845000Y-67182476D01*
X124853960Y-67273450D01*
X124857805Y-67312490D01*
X124866975Y-67342718D01*
X124908411Y-67479312D01*
X124990589Y-67633058D01*
X125101183Y-67767817D01*
X125134956Y-67795534D01*
X126520928Y-69181507D01*
X126520928Y-69501000D01*
X126533188Y-69625482D01*
X126569498Y-69745180D01*
X126628463Y-69855494D01*
X126707815Y-69952185D01*
X126804506Y-70031537D01*
X126914820Y-70090502D01*
X127034518Y-70126812D01*
X127159000Y-70139072D01*
X127673910Y-70139072D01*
X127607815Y-70193315D01*
X127528463Y-70290006D01*
X127469498Y-70400320D01*
X127433188Y-70520018D01*
X127420928Y-70644500D01*
X127420976Y-70654317D01*
X127420928Y-70654800D01*
X127420980Y-70655333D01*
X127424000Y-71278750D01*
X127582750Y-71437500D01*
X129032000Y-71437500D01*
X129032000Y-69016728D01*
X129012000Y-69016728D01*
X129012000Y-68770500D01*
X129032000Y-68770500D01*
X129032000Y-67521250D01*
X128873250Y-67362500D01*
X128659000Y-67359428D01*
X128534518Y-67371688D01*
X128414820Y-67407998D01*
X128405726Y-67412859D01*
X128403180Y-67411498D01*
X128283482Y-67375188D01*
X128159000Y-67362928D01*
X127205507Y-67362928D01*
X126615000Y-66772422D01*
X126615000Y-66619665D01*
X126682106Y-66674737D01*
X126792420Y-66733702D01*
X126912118Y-66770012D01*
X127036600Y-66782272D01*
X127450850Y-66779200D01*
X127609600Y-66620450D01*
X127609600Y-65783700D01*
X127863600Y-65783700D01*
X127863600Y-66620450D01*
X128022350Y-66779200D01*
X128436600Y-66782272D01*
X128561082Y-66770012D01*
X128680780Y-66733702D01*
X128791094Y-66674737D01*
X128887785Y-66595385D01*
X128967137Y-66498694D01*
X129026102Y-66388380D01*
X129062412Y-66268682D01*
X129074672Y-66144200D01*
X129071600Y-65942450D01*
X128912850Y-65783700D01*
X127863600Y-65783700D01*
X127609600Y-65783700D01*
X127589600Y-65783700D01*
X127589600Y-65529700D01*
X127609600Y-65529700D01*
X127609600Y-65509700D01*
X127863600Y-65509700D01*
X127863600Y-65529700D01*
X128912850Y-65529700D01*
X129071600Y-65370950D01*
X129074672Y-65169200D01*
X129062412Y-65044718D01*
X129026102Y-64925020D01*
X128967137Y-64814706D01*
X128887785Y-64718015D01*
X128810036Y-64654208D01*
X128816392Y-64648992D01*
X128926058Y-64515364D01*
X129007547Y-64362909D01*
X129057728Y-64197485D01*
X129074672Y-64025450D01*
X129074672Y-63537950D01*
X129057728Y-63365915D01*
X129051384Y-63345000D01*
X129344928Y-63345000D01*
X129348000Y-63546750D01*
X129506750Y-63705500D01*
X130556000Y-63705500D01*
X130556000Y-62868750D01*
X130810000Y-62868750D01*
X130810000Y-63705500D01*
X131859250Y-63705500D01*
X132018000Y-63546750D01*
X132021072Y-63345000D01*
X132008812Y-63220518D01*
X131972502Y-63100820D01*
X131913537Y-62990506D01*
X131834185Y-62893815D01*
X131737494Y-62814463D01*
X131627180Y-62755498D01*
X131507482Y-62719188D01*
X131383000Y-62706928D01*
X130968750Y-62710000D01*
X130810000Y-62868750D01*
X130556000Y-62868750D01*
X130397250Y-62710000D01*
X129983000Y-62706928D01*
X129858518Y-62719188D01*
X129738820Y-62755498D01*
X129628506Y-62814463D01*
X129531815Y-62893815D01*
X129452463Y-62990506D01*
X129393498Y-63100820D01*
X129357188Y-63220518D01*
X129344928Y-63345000D01*
X129051384Y-63345000D01*
X129007547Y-63200491D01*
X128926058Y-63048036D01*
X128816392Y-62914408D01*
X128682764Y-62804742D01*
X128530309Y-62723253D01*
X128364885Y-62673072D01*
X128192850Y-62656128D01*
X127862607Y-62656128D01*
X126841434Y-61634956D01*
X126813717Y-61601183D01*
X126678959Y-61490589D01*
X126525213Y-61408411D01*
X126358390Y-61357805D01*
X126228377Y-61345000D01*
X126228369Y-61345000D01*
X126184900Y-61340719D01*
X126141431Y-61345000D01*
X125431558Y-61345000D01*
X125407042Y-61308309D01*
X125327690Y-61211618D01*
X125258382Y-61142310D01*
X125161691Y-61062958D01*
X125080192Y-61008502D01*
X124969875Y-60949536D01*
X124879319Y-60912027D01*
X124759623Y-60875718D01*
X124663490Y-60856596D01*
X124539009Y-60844336D01*
X124514450Y-60844336D01*
X124490000Y-60841928D01*
X123940000Y-60841928D01*
X123815518Y-60854188D01*
X123815000Y-60854345D01*
X123814482Y-60854188D01*
X123690000Y-60841928D01*
X122775000Y-60841928D01*
X122775000Y-60086578D01*
X123556579Y-59305000D01*
X124381928Y-59305000D01*
X124381928Y-59320000D01*
X124394188Y-59444482D01*
X124430498Y-59564180D01*
X124489463Y-59674494D01*
X124568815Y-59771185D01*
X124665506Y-59850537D01*
X124775820Y-59909502D01*
X124895518Y-59945812D01*
X125020000Y-59958072D01*
X127520000Y-59958072D01*
X127644482Y-59945812D01*
X127764180Y-59909502D01*
X127874494Y-59850537D01*
X127971185Y-59771185D01*
X128050537Y-59674494D01*
X128109502Y-59564180D01*
X128145812Y-59444482D01*
X128158072Y-59320000D01*
X128158072Y-57520000D01*
X128381928Y-57520000D01*
X128381928Y-59320000D01*
X128394188Y-59444482D01*
X128430498Y-59564180D01*
X128489463Y-59674494D01*
X128568815Y-59771185D01*
X128665506Y-59850537D01*
X128775820Y-59909502D01*
X128895518Y-59945812D01*
X129020000Y-59958072D01*
X131520000Y-59958072D01*
X131644482Y-59945812D01*
X131764180Y-59909502D01*
X131874494Y-59850537D01*
X131971185Y-59771185D01*
X132050537Y-59674494D01*
X132061821Y-59653383D01*
X132343465Y-59935028D01*
X132354774Y-59991882D01*
X132432795Y-60180240D01*
X132546063Y-60349758D01*
X132690226Y-60493921D01*
X132859744Y-60607189D01*
X133048102Y-60685210D01*
X133248061Y-60724984D01*
X133451939Y-60724984D01*
X133651898Y-60685210D01*
X133840256Y-60607189D01*
X134009774Y-60493921D01*
X134153937Y-60349758D01*
X134267205Y-60180240D01*
X134345226Y-59991882D01*
X134385000Y-59791923D01*
X134385000Y-59588045D01*
X134345226Y-59388086D01*
X134267205Y-59199728D01*
X134153937Y-59030210D01*
X134009774Y-58886047D01*
X133840256Y-58772779D01*
X133651898Y-58694758D01*
X133595044Y-58683449D01*
X132736550Y-57824956D01*
X132708833Y-57791183D01*
X132574075Y-57680589D01*
X132420329Y-57598411D01*
X132253506Y-57547805D01*
X132158072Y-57538406D01*
X132158072Y-57520000D01*
X132145812Y-57395518D01*
X132109502Y-57275820D01*
X132050537Y-57165506D01*
X131971185Y-57068815D01*
X131874494Y-56989463D01*
X131764180Y-56930498D01*
X131644482Y-56894188D01*
X131520000Y-56881928D01*
X129020000Y-56881928D01*
X128895518Y-56894188D01*
X128775820Y-56930498D01*
X128665506Y-56989463D01*
X128568815Y-57068815D01*
X128489463Y-57165506D01*
X128430498Y-57275820D01*
X128394188Y-57395518D01*
X128381928Y-57520000D01*
X128158072Y-57520000D01*
X128145812Y-57395518D01*
X128109502Y-57275820D01*
X128050537Y-57165506D01*
X127971185Y-57068815D01*
X127874494Y-56989463D01*
X127764180Y-56930498D01*
X127644482Y-56894188D01*
X127520000Y-56881928D01*
X125020000Y-56881928D01*
X124895518Y-56894188D01*
X124775820Y-56930498D01*
X124665506Y-56989463D01*
X124568815Y-57068815D01*
X124489463Y-57165506D01*
X124430498Y-57275820D01*
X124394188Y-57395518D01*
X124381928Y-57520000D01*
X124381928Y-57535000D01*
X123233469Y-57535000D01*
X123190000Y-57530719D01*
X123146531Y-57535000D01*
X123146523Y-57535000D01*
X123016510Y-57547805D01*
X122849686Y-57598411D01*
X122695941Y-57680589D01*
X122594953Y-57763468D01*
X122594951Y-57763470D01*
X122561183Y-57791183D01*
X122533470Y-57824951D01*
X121294956Y-59063466D01*
X121261183Y-59091183D01*
X121150589Y-59225942D01*
X121068411Y-59379688D01*
X121017805Y-59546511D01*
X121005000Y-59676524D01*
X121005000Y-59676531D01*
X121000719Y-59720000D01*
X121005000Y-59763469D01*
X121005001Y-61269265D01*
X120972958Y-61308309D01*
X120918502Y-61389808D01*
X120859536Y-61500125D01*
X120822027Y-61590681D01*
X120785718Y-61710377D01*
X120766596Y-61806510D01*
X120754336Y-61930991D01*
X120754336Y-61955550D01*
X120751928Y-61980000D01*
X120751928Y-62480000D01*
X120754336Y-62504450D01*
X120754336Y-62529009D01*
X120766596Y-62653490D01*
X120785718Y-62749623D01*
X120822027Y-62869319D01*
X120859536Y-62959875D01*
X120918502Y-63070192D01*
X120972958Y-63151691D01*
X121052310Y-63248382D01*
X121121618Y-63317690D01*
X121218309Y-63397042D01*
X121299808Y-63451498D01*
X121410125Y-63510464D01*
X121500681Y-63547973D01*
X121620377Y-63584282D01*
X121716510Y-63603404D01*
X121840991Y-63615664D01*
X121865550Y-63615664D01*
X121890000Y-63618072D01*
X122305001Y-63618072D01*
X122305000Y-75661928D01*
X121990000Y-75661928D01*
X121865518Y-75674188D01*
X121745820Y-75710498D01*
X121635506Y-75769463D01*
X121538815Y-75848815D01*
X121459463Y-75945506D01*
X121400498Y-76055820D01*
X121364188Y-76175518D01*
X121351928Y-76300000D01*
X121351928Y-76624317D01*
X121316510Y-76627805D01*
X121149687Y-76678411D01*
X120995941Y-76760589D01*
X120995939Y-76760590D01*
X120995940Y-76760590D01*
X120894953Y-76843468D01*
X120894951Y-76843470D01*
X120861183Y-76871183D01*
X120833470Y-76904951D01*
X120054951Y-77683471D01*
X120021184Y-77711183D01*
X119993471Y-77744951D01*
X119993468Y-77744954D01*
X119910590Y-77845941D01*
X119828412Y-77999687D01*
X119777805Y-78166510D01*
X119760719Y-78340000D01*
X119765001Y-78383479D01*
X119765000Y-82011545D01*
X119732795Y-82059744D01*
X119654774Y-82248102D01*
X119615000Y-82448061D01*
X81407000Y-82448061D01*
X81407000Y-50927000D01*
X148463000Y-50927000D01*
X148463000Y-148463000D01*
M02*
