G04 #@! TF.GenerationSoftware,KiCad,Pcbnew,5.1.5+dfsg1-2build2*
G04 #@! TF.CreationDate,2021-02-04T00:17:01-05:00*
G04 #@! TF.ProjectId,hbridgechassis,68627269-6467-4656-9368-61737369732e,rev?*
G04 #@! TF.SameCoordinates,Original*
G04 #@! TF.FileFunction,Legend,Top*
G04 #@! TF.FilePolarity,Positive*
%FSLAX46Y46*%
G04 Gerber Fmt 4.6, Leading zero omitted, Abs format (unit mm)*
G04 Created by KiCad (PCBNEW 5.1.5+dfsg1-2build2) date 2021-02-04 00:17:01*
%MOMM*%
%LPD*%
G04 APERTURE LIST*
%ADD10C,0.120000*%
%ADD11C,0.150000*%
G04 APERTURE END LIST*
D10*
X65000000Y-96000000D02*
X65000000Y-150000000D01*
X135000000Y-96000000D02*
X135000000Y-150000000D01*
X65000000Y-96000000D02*
X135000000Y-96000000D01*
X131559000Y-72011000D02*
X130359000Y-72011000D01*
X131559000Y-68011000D02*
X131559000Y-72011000D01*
X126759000Y-72011000D02*
X126759000Y-69311000D01*
X127959000Y-72011000D02*
X126759000Y-72011000D01*
X65470000Y-75930000D02*
X64070000Y-75930000D01*
X63370000Y-75230000D02*
X63370000Y-74630000D01*
X64070000Y-73930000D02*
X65470000Y-73930000D01*
X66170000Y-74630000D02*
X66170000Y-75230000D01*
X66170000Y-75230000D02*
G75*
G02X65470000Y-75930000I-700000J0D01*
G01*
X65470000Y-73930000D02*
G75*
G02X66170000Y-74630000I0J-700000D01*
G01*
X63370000Y-74630000D02*
G75*
G02X64070000Y-73930000I700000J0D01*
G01*
X64070000Y-75930000D02*
G75*
G02X63370000Y-75230000I0J700000D01*
G01*
X64070000Y-52340000D02*
X65470000Y-52340000D01*
X66170000Y-53040000D02*
X66170000Y-53640000D01*
X65470000Y-54340000D02*
X64070000Y-54340000D01*
X63370000Y-53640000D02*
X63370000Y-53040000D01*
X63370000Y-53040000D02*
G75*
G02X64070000Y-52340000I700000J0D01*
G01*
X64070000Y-54340000D02*
G75*
G02X63370000Y-53640000I0J700000D01*
G01*
X66170000Y-53640000D02*
G75*
G02X65470000Y-54340000I-700000J0D01*
G01*
X65470000Y-52340000D02*
G75*
G02X66170000Y-53040000I0J-700000D01*
G01*
X125240000Y-62530000D02*
G75*
G02X124540000Y-63230000I-700000J0D01*
G01*
X124540000Y-61230000D02*
G75*
G02X125240000Y-61930000I0J-700000D01*
G01*
X121140000Y-61930000D02*
G75*
G02X121840000Y-61230000I700000J0D01*
G01*
X121840000Y-63230000D02*
G75*
G02X121140000Y-62530000I0J700000D01*
G01*
X124590000Y-63230000D02*
X121790000Y-63230000D01*
X121140000Y-62530000D02*
X121140000Y-61930000D01*
X121790000Y-61230000D02*
X124590000Y-61230000D01*
X125240000Y-61930000D02*
X125240000Y-62530000D01*
X131393000Y-65028578D02*
X131393000Y-64511422D01*
X129973000Y-65028578D02*
X129973000Y-64511422D01*
X127026600Y-64460622D02*
X127026600Y-64977778D01*
X128446600Y-64460622D02*
X128446600Y-64977778D01*
X131670000Y-60070000D02*
X126270000Y-60070000D01*
X131670000Y-56770000D02*
X126270000Y-56770000D01*
X131670000Y-60070000D02*
X131670000Y-56770000D01*
X138912600Y-69630600D02*
X137582600Y-69630600D01*
X137582600Y-69630600D02*
X137582600Y-68300600D01*
X137582600Y-67030600D02*
X137582600Y-51730600D01*
X140242600Y-51730600D02*
X137582600Y-51730600D01*
X140242600Y-67030600D02*
X140242600Y-51730600D01*
X140242600Y-67030600D02*
X137582600Y-67030600D01*
X149188000Y-83878000D02*
X149188000Y-82378000D01*
X147448000Y-83878000D02*
X149188000Y-83878000D01*
X141828000Y-75818000D02*
X148948000Y-75818000D01*
X141828000Y-83638000D02*
X148948000Y-83638000D01*
X148948000Y-83638000D02*
X148948000Y-75818000D01*
X141828000Y-83638000D02*
X141828000Y-75818000D01*
X147388000Y-83638000D02*
X147388000Y-75818000D01*
X146843000Y-77978000D02*
G75*
G03X146843000Y-77978000I-1555000J0D01*
G01*
X146843492Y-81450989D02*
G75*
G02X146720000Y-82086000I-1555492J-27011D01*
G01*
X145895742Y-82910109D02*
G75*
G02X144680000Y-82910000I-607742J1432109D01*
G01*
X143855891Y-82085742D02*
G75*
G02X143856000Y-80870000I1432109J607742D01*
G01*
X144680258Y-80045891D02*
G75*
G02X145896000Y-80046000I607742J-1432109D01*
G01*
X146719385Y-80870413D02*
G75*
G02X146843000Y-81478000I-1431385J-607587D01*
G01*
X50812000Y-75578000D02*
X50812000Y-77078000D01*
X52552000Y-75578000D02*
X50812000Y-75578000D01*
X58172000Y-83638000D02*
X51052000Y-83638000D01*
X58172000Y-75818000D02*
X51052000Y-75818000D01*
X51052000Y-75818000D02*
X51052000Y-83638000D01*
X58172000Y-75818000D02*
X58172000Y-83638000D01*
X52612000Y-75818000D02*
X52612000Y-83638000D01*
X56267000Y-81478000D02*
G75*
G03X56267000Y-81478000I-1555000J0D01*
G01*
X53156508Y-78005011D02*
G75*
G02X53280000Y-77370000I1555492J27011D01*
G01*
X54104258Y-76545891D02*
G75*
G02X55320000Y-76546000I607742J-1432109D01*
G01*
X56144109Y-77370258D02*
G75*
G02X56144000Y-78586000I-1432109J-607742D01*
G01*
X55319742Y-79410109D02*
G75*
G02X54104000Y-79410000I-607742J1432109D01*
G01*
X53280615Y-78585587D02*
G75*
G02X53157000Y-77978000I1431385J607587D01*
G01*
X120790000Y-81400000D02*
X122290000Y-81400000D01*
X120790000Y-79660000D02*
X120790000Y-81400000D01*
X128850000Y-74040000D02*
X128850000Y-81160000D01*
X121030000Y-74040000D02*
X121030000Y-81160000D01*
X121030000Y-81160000D02*
X128850000Y-81160000D01*
X121030000Y-74040000D02*
X128850000Y-74040000D01*
X121030000Y-79600000D02*
X128850000Y-79600000D01*
X128245000Y-77500000D02*
G75*
G03X128245000Y-77500000I-1555000J0D01*
G01*
X123217011Y-79055492D02*
G75*
G02X122582000Y-78932000I-27011J1555492D01*
G01*
X121757891Y-78107742D02*
G75*
G02X121758000Y-76892000I1432109J607742D01*
G01*
X122582258Y-76067891D02*
G75*
G02X123798000Y-76068000I607742J-1432109D01*
G01*
X124622109Y-76892258D02*
G75*
G02X124622000Y-78108000I-1432109J-607742D01*
G01*
X123797587Y-78931385D02*
G75*
G02X123190000Y-79055000I-607587J1431385D01*
G01*
X59795400Y-59332200D02*
X64795400Y-59332200D01*
X61795400Y-72392200D02*
X67795400Y-72392200D01*
D11*
X131811380Y-71442904D02*
X132620904Y-71442904D01*
X132716142Y-71395285D01*
X132763761Y-71347666D01*
X132811380Y-71252428D01*
X132811380Y-71061952D01*
X132763761Y-70966714D01*
X132716142Y-70919095D01*
X132620904Y-70871476D01*
X131811380Y-70871476D01*
X131906619Y-70442904D02*
X131859000Y-70395285D01*
X131811380Y-70300047D01*
X131811380Y-70061952D01*
X131859000Y-69966714D01*
X131906619Y-69919095D01*
X132001857Y-69871476D01*
X132097095Y-69871476D01*
X132239952Y-69919095D01*
X132811380Y-70490523D01*
X132811380Y-69871476D01*
X63936666Y-76182380D02*
X63936666Y-76896666D01*
X63889047Y-77039523D01*
X63793809Y-77134761D01*
X63650952Y-77182380D01*
X63555714Y-77182380D01*
X64412857Y-77182380D02*
X64412857Y-76182380D01*
X64793809Y-76182380D01*
X64889047Y-76230000D01*
X64936666Y-76277619D01*
X64984285Y-76372857D01*
X64984285Y-76515714D01*
X64936666Y-76610952D01*
X64889047Y-76658571D01*
X64793809Y-76706190D01*
X64412857Y-76706190D01*
X65317619Y-76182380D02*
X65936666Y-76182380D01*
X65603333Y-76563333D01*
X65746190Y-76563333D01*
X65841428Y-76610952D01*
X65889047Y-76658571D01*
X65936666Y-76753809D01*
X65936666Y-76991904D01*
X65889047Y-77087142D01*
X65841428Y-77134761D01*
X65746190Y-77182380D01*
X65460476Y-77182380D01*
X65365238Y-77134761D01*
X65317619Y-77087142D01*
X63936666Y-50992380D02*
X63936666Y-51706666D01*
X63889047Y-51849523D01*
X63793809Y-51944761D01*
X63650952Y-51992380D01*
X63555714Y-51992380D01*
X64412857Y-51992380D02*
X64412857Y-50992380D01*
X64793809Y-50992380D01*
X64889047Y-51040000D01*
X64936666Y-51087619D01*
X64984285Y-51182857D01*
X64984285Y-51325714D01*
X64936666Y-51420952D01*
X64889047Y-51468571D01*
X64793809Y-51516190D01*
X64412857Y-51516190D01*
X65365238Y-51087619D02*
X65412857Y-51040000D01*
X65508095Y-50992380D01*
X65746190Y-50992380D01*
X65841428Y-51040000D01*
X65889047Y-51087619D01*
X65936666Y-51182857D01*
X65936666Y-51278095D01*
X65889047Y-51420952D01*
X65317619Y-51992380D01*
X65936666Y-51992380D01*
X122356666Y-63482380D02*
X122356666Y-64196666D01*
X122309047Y-64339523D01*
X122213809Y-64434761D01*
X122070952Y-64482380D01*
X121975714Y-64482380D01*
X122832857Y-64482380D02*
X122832857Y-63482380D01*
X123213809Y-63482380D01*
X123309047Y-63530000D01*
X123356666Y-63577619D01*
X123404285Y-63672857D01*
X123404285Y-63815714D01*
X123356666Y-63910952D01*
X123309047Y-63958571D01*
X123213809Y-64006190D01*
X122832857Y-64006190D01*
X124356666Y-64482380D02*
X123785238Y-64482380D01*
X124070952Y-64482380D02*
X124070952Y-63482380D01*
X123975714Y-63625238D01*
X123880476Y-63720476D01*
X123785238Y-63768095D01*
X126075714Y-62682380D02*
X125504285Y-62682380D01*
X125790000Y-62682380D02*
X125790000Y-61682380D01*
X125694761Y-61825238D01*
X125599523Y-61920476D01*
X125504285Y-61968095D01*
X120256666Y-61682380D02*
X120875714Y-61682380D01*
X120542380Y-62063333D01*
X120685238Y-62063333D01*
X120780476Y-62110952D01*
X120828095Y-62158571D01*
X120875714Y-62253809D01*
X120875714Y-62491904D01*
X120828095Y-62587142D01*
X120780476Y-62634761D01*
X120685238Y-62682380D01*
X120399523Y-62682380D01*
X120304285Y-62634761D01*
X120256666Y-62587142D01*
X133707142Y-63666666D02*
X133754761Y-63714285D01*
X133802380Y-63857142D01*
X133802380Y-63952380D01*
X133754761Y-64095238D01*
X133659523Y-64190476D01*
X133564285Y-64238095D01*
X133373809Y-64285714D01*
X133230952Y-64285714D01*
X133040476Y-64238095D01*
X132945238Y-64190476D01*
X132850000Y-64095238D01*
X132802380Y-63952380D01*
X132802380Y-63857142D01*
X132850000Y-63714285D01*
X132897619Y-63666666D01*
X132897619Y-63285714D02*
X132850000Y-63238095D01*
X132802380Y-63142857D01*
X132802380Y-62904761D01*
X132850000Y-62809523D01*
X132897619Y-62761904D01*
X132992857Y-62714285D01*
X133088095Y-62714285D01*
X133230952Y-62761904D01*
X133802380Y-63333333D01*
X133802380Y-62714285D01*
X124817142Y-66206666D02*
X124864761Y-66254285D01*
X124912380Y-66397142D01*
X124912380Y-66492380D01*
X124864761Y-66635238D01*
X124769523Y-66730476D01*
X124674285Y-66778095D01*
X124483809Y-66825714D01*
X124340952Y-66825714D01*
X124150476Y-66778095D01*
X124055238Y-66730476D01*
X123960000Y-66635238D01*
X123912380Y-66492380D01*
X123912380Y-66397142D01*
X123960000Y-66254285D01*
X124007619Y-66206666D01*
X124912380Y-65254285D02*
X124912380Y-65825714D01*
X124912380Y-65540000D02*
X123912380Y-65540000D01*
X124055238Y-65635238D01*
X124150476Y-65730476D01*
X124198095Y-65825714D01*
X127531904Y-55062380D02*
X127531904Y-54062380D01*
X127770000Y-54062380D01*
X127912857Y-54110000D01*
X128008095Y-54205238D01*
X128055714Y-54300476D01*
X128103333Y-54490952D01*
X128103333Y-54633809D01*
X128055714Y-54824285D01*
X128008095Y-54919523D01*
X127912857Y-55014761D01*
X127770000Y-55062380D01*
X127531904Y-55062380D01*
X129055714Y-55062380D02*
X128484285Y-55062380D01*
X128770000Y-55062380D02*
X128770000Y-54062380D01*
X128674761Y-54205238D01*
X128579523Y-54300476D01*
X128484285Y-54348095D01*
X138579266Y-70522980D02*
X138579266Y-71237266D01*
X138531647Y-71380123D01*
X138436409Y-71475361D01*
X138293552Y-71522980D01*
X138198314Y-71522980D01*
X139484028Y-70856314D02*
X139484028Y-71522980D01*
X139245933Y-70475361D02*
X139007838Y-71189647D01*
X139626885Y-71189647D01*
X140280380Y-80061333D02*
X140994666Y-80061333D01*
X141137523Y-80108952D01*
X141232761Y-80204190D01*
X141280380Y-80347047D01*
X141280380Y-80442285D01*
X140280380Y-79680380D02*
X140280380Y-79061333D01*
X140661333Y-79394666D01*
X140661333Y-79251809D01*
X140708952Y-79156571D01*
X140756571Y-79108952D01*
X140851809Y-79061333D01*
X141089904Y-79061333D01*
X141185142Y-79108952D01*
X141232761Y-79156571D01*
X141280380Y-79251809D01*
X141280380Y-79537523D01*
X141232761Y-79632761D01*
X141185142Y-79680380D01*
X58624380Y-80061333D02*
X59338666Y-80061333D01*
X59481523Y-80108952D01*
X59576761Y-80204190D01*
X59624380Y-80347047D01*
X59624380Y-80442285D01*
X58719619Y-79632761D02*
X58672000Y-79585142D01*
X58624380Y-79489904D01*
X58624380Y-79251809D01*
X58672000Y-79156571D01*
X58719619Y-79108952D01*
X58814857Y-79061333D01*
X58910095Y-79061333D01*
X59052952Y-79108952D01*
X59624380Y-79680380D01*
X59624380Y-79061333D01*
X124606666Y-72492380D02*
X124606666Y-73206666D01*
X124559047Y-73349523D01*
X124463809Y-73444761D01*
X124320952Y-73492380D01*
X124225714Y-73492380D01*
X125606666Y-73492380D02*
X125035238Y-73492380D01*
X125320952Y-73492380D02*
X125320952Y-72492380D01*
X125225714Y-72635238D01*
X125130476Y-72730476D01*
X125035238Y-72778095D01*
X60343495Y-57894580D02*
X60343495Y-58704104D01*
X60391114Y-58799342D01*
X60438733Y-58846961D01*
X60533971Y-58894580D01*
X60724447Y-58894580D01*
X60819685Y-58846961D01*
X60867304Y-58799342D01*
X60914923Y-58704104D01*
X60914923Y-57894580D01*
X61914923Y-58894580D02*
X61343495Y-58894580D01*
X61629209Y-58894580D02*
X61629209Y-57894580D01*
X61533971Y-58037438D01*
X61438733Y-58132676D01*
X61343495Y-58180295D01*
M02*
