G04 #@! TF.GenerationSoftware,KiCad,Pcbnew,5.1.5+dfsg1-2build2*
G04 #@! TF.CreationDate,2021-02-08T21:47:53-05:00*
G04 #@! TF.ProjectId,hbridgechassis,68627269-6467-4656-9368-61737369732e,rev?*
G04 #@! TF.SameCoordinates,Original*
G04 #@! TF.FileFunction,Legend,Top*
G04 #@! TF.FilePolarity,Positive*
%FSLAX46Y46*%
G04 Gerber Fmt 4.6, Leading zero omitted, Abs format (unit mm)*
G04 Created by KiCad (PCBNEW 5.1.5+dfsg1-2build2) date 2021-02-08 21:47:53*
%MOMM*%
%LPD*%
G04 APERTURE LIST*
%ADD10C,2.000000*%
%ADD11C,0.150000*%
%ADD12C,0.120000*%
%ADD13C,0.010000*%
G04 APERTURE END LIST*
D10*
X51000000Y-51000000D02*
X149000000Y-51000000D01*
X51000000Y-149000000D02*
X149000000Y-149000000D01*
X149000000Y-51000000D02*
X149000000Y-149000000D01*
X51000000Y-51000000D02*
X51000000Y-149000000D01*
D11*
X89521309Y-53682380D02*
X89521309Y-54396666D01*
X89473690Y-54539523D01*
X89378452Y-54634761D01*
X89235595Y-54682380D01*
X89140357Y-54682380D01*
X89997500Y-53682380D02*
X89997500Y-54491904D01*
X90045119Y-54587142D01*
X90092738Y-54634761D01*
X90187976Y-54682380D01*
X90378452Y-54682380D01*
X90473690Y-54634761D01*
X90521309Y-54587142D01*
X90568928Y-54491904D01*
X90568928Y-53682380D01*
X91045119Y-54682380D02*
X91045119Y-53682380D01*
X91378452Y-54396666D01*
X91711785Y-53682380D01*
X91711785Y-54682380D01*
X92187976Y-54682380D02*
X92187976Y-53682380D01*
X92568928Y-53682380D01*
X92664166Y-53730000D01*
X92711785Y-53777619D01*
X92759404Y-53872857D01*
X92759404Y-54015714D01*
X92711785Y-54110952D01*
X92664166Y-54158571D01*
X92568928Y-54206190D01*
X92187976Y-54206190D01*
X93187976Y-54158571D02*
X93521309Y-54158571D01*
X93664166Y-54682380D02*
X93187976Y-54682380D01*
X93187976Y-53682380D01*
X93664166Y-53682380D01*
X94664166Y-54682380D02*
X94330833Y-54206190D01*
X94092738Y-54682380D02*
X94092738Y-53682380D01*
X94473690Y-53682380D01*
X94568928Y-53730000D01*
X94616547Y-53777619D01*
X94664166Y-53872857D01*
X94664166Y-54015714D01*
X94616547Y-54110952D01*
X94568928Y-54158571D01*
X94473690Y-54206190D01*
X94092738Y-54206190D01*
X95807023Y-54396666D02*
X96283214Y-54396666D01*
X95711785Y-54682380D02*
X96045119Y-53682380D01*
X96378452Y-54682380D01*
X97187976Y-54682380D02*
X96711785Y-54682380D01*
X96711785Y-53682380D01*
X97521309Y-54682380D02*
X97521309Y-53682380D01*
X97997500Y-54682380D02*
X97997500Y-53682380D01*
X98330833Y-54396666D01*
X98664166Y-53682380D01*
X98664166Y-54682380D01*
X99140357Y-54158571D02*
X99473690Y-54158571D01*
X99616547Y-54682380D02*
X99140357Y-54682380D01*
X99140357Y-53682380D01*
X99616547Y-53682380D01*
X100045119Y-54682380D02*
X100045119Y-53682380D01*
X100616547Y-54682380D01*
X100616547Y-53682380D01*
X100949880Y-53682380D02*
X101521309Y-53682380D01*
X101235595Y-54682380D02*
X101235595Y-53682380D01*
X101807023Y-54396666D02*
X102283214Y-54396666D01*
X101711785Y-54682380D02*
X102045119Y-53682380D01*
X102378452Y-54682380D01*
X103283214Y-54587142D02*
X103235595Y-54634761D01*
X103092738Y-54682380D01*
X102997500Y-54682380D01*
X102854642Y-54634761D01*
X102759404Y-54539523D01*
X102711785Y-54444285D01*
X102664166Y-54253809D01*
X102664166Y-54110952D01*
X102711785Y-53920476D01*
X102759404Y-53825238D01*
X102854642Y-53730000D01*
X102997500Y-53682380D01*
X103092738Y-53682380D01*
X103235595Y-53730000D01*
X103283214Y-53777619D01*
X103711785Y-54682380D02*
X103711785Y-53682380D01*
X104378452Y-53682380D02*
X104568928Y-53682380D01*
X104664166Y-53730000D01*
X104759404Y-53825238D01*
X104807023Y-54015714D01*
X104807023Y-54349047D01*
X104759404Y-54539523D01*
X104664166Y-54634761D01*
X104568928Y-54682380D01*
X104378452Y-54682380D01*
X104283214Y-54634761D01*
X104187976Y-54539523D01*
X104140357Y-54349047D01*
X104140357Y-54015714D01*
X104187976Y-53825238D01*
X104283214Y-53730000D01*
X104378452Y-53682380D01*
X105235595Y-54682380D02*
X105235595Y-53682380D01*
X105807023Y-54682380D01*
X105807023Y-53682380D01*
X107330833Y-53682380D02*
X107330833Y-54396666D01*
X107283214Y-54539523D01*
X107187976Y-54634761D01*
X107045119Y-54682380D01*
X106949880Y-54682380D01*
X107807023Y-54682380D02*
X107807023Y-53682380D01*
X108187976Y-53682380D01*
X108283214Y-53730000D01*
X108330833Y-53777619D01*
X108378452Y-53872857D01*
X108378452Y-54015714D01*
X108330833Y-54110952D01*
X108283214Y-54158571D01*
X108187976Y-54206190D01*
X107807023Y-54206190D01*
X109330833Y-54682380D02*
X108759404Y-54682380D01*
X109045119Y-54682380D02*
X109045119Y-53682380D01*
X108949880Y-53825238D01*
X108854642Y-53920476D01*
X108759404Y-53968095D01*
X89235595Y-56332380D02*
X89235595Y-55332380D01*
X89568928Y-56046666D01*
X89902261Y-55332380D01*
X89902261Y-56332380D01*
X90378452Y-55808571D02*
X90711785Y-55808571D01*
X90854642Y-56332380D02*
X90378452Y-56332380D01*
X90378452Y-55332380D01*
X90854642Y-55332380D01*
X91283214Y-56332380D02*
X91283214Y-55332380D01*
X91854642Y-56332380D01*
X91854642Y-55332380D01*
X92521309Y-55332380D02*
X92711785Y-55332380D01*
X92807023Y-55380000D01*
X92902261Y-55475238D01*
X92949880Y-55665714D01*
X92949880Y-55999047D01*
X92902261Y-56189523D01*
X92807023Y-56284761D01*
X92711785Y-56332380D01*
X92521309Y-56332380D01*
X92426071Y-56284761D01*
X92330833Y-56189523D01*
X92283214Y-55999047D01*
X92283214Y-55665714D01*
X92330833Y-55475238D01*
X92426071Y-55380000D01*
X92521309Y-55332380D01*
X93949880Y-56332380D02*
X93616547Y-55856190D01*
X93378452Y-56332380D02*
X93378452Y-55332380D01*
X93759404Y-55332380D01*
X93854642Y-55380000D01*
X93902261Y-55427619D01*
X93949880Y-55522857D01*
X93949880Y-55665714D01*
X93902261Y-55760952D01*
X93854642Y-55808571D01*
X93759404Y-55856190D01*
X93378452Y-55856190D01*
X95283214Y-56332380D02*
X95187976Y-56284761D01*
X95140357Y-56237142D01*
X95092738Y-56141904D01*
X95092738Y-55856190D01*
X95140357Y-55760952D01*
X95187976Y-55713333D01*
X95283214Y-55665714D01*
X95426071Y-55665714D01*
X95521309Y-55713333D01*
X95568928Y-55760952D01*
X95616547Y-55856190D01*
X95616547Y-56141904D01*
X95568928Y-56237142D01*
X95521309Y-56284761D01*
X95426071Y-56332380D01*
X95283214Y-56332380D01*
X96807023Y-56332380D02*
X96807023Y-55332380D01*
X97807023Y-55380000D02*
X97711785Y-55332380D01*
X97568928Y-55332380D01*
X97426071Y-55380000D01*
X97330833Y-55475238D01*
X97283214Y-55570476D01*
X97235595Y-55760952D01*
X97235595Y-55903809D01*
X97283214Y-56094285D01*
X97330833Y-56189523D01*
X97426071Y-56284761D01*
X97568928Y-56332380D01*
X97664166Y-56332380D01*
X97807023Y-56284761D01*
X97854642Y-56237142D01*
X97854642Y-55903809D01*
X97664166Y-55903809D01*
X98283214Y-55332380D02*
X98283214Y-56141904D01*
X98330833Y-56237142D01*
X98378452Y-56284761D01*
X98473690Y-56332380D01*
X98664166Y-56332380D01*
X98759404Y-56284761D01*
X98807023Y-56237142D01*
X98854642Y-56141904D01*
X98854642Y-55332380D01*
X99283214Y-56046666D02*
X99759404Y-56046666D01*
X99187976Y-56332380D02*
X99521309Y-55332380D01*
X99854642Y-56332380D01*
X100664166Y-56332380D02*
X100187976Y-56332380D01*
X100187976Y-55332380D01*
X101711785Y-56046666D02*
X102187976Y-56046666D01*
X101616547Y-56332380D02*
X101949880Y-55332380D01*
X102283214Y-56332380D01*
X103807023Y-55332380D02*
X103616547Y-55332380D01*
X103521309Y-55380000D01*
X103473690Y-55427619D01*
X103378452Y-55570476D01*
X103330833Y-55760952D01*
X103330833Y-56141904D01*
X103378452Y-56237142D01*
X103426071Y-56284761D01*
X103521309Y-56332380D01*
X103711785Y-56332380D01*
X103807023Y-56284761D01*
X103854642Y-56237142D01*
X103902261Y-56141904D01*
X103902261Y-55903809D01*
X103854642Y-55808571D01*
X103807023Y-55760952D01*
X103711785Y-55713333D01*
X103521309Y-55713333D01*
X103426071Y-55760952D01*
X103378452Y-55808571D01*
X103330833Y-55903809D01*
X104187976Y-55332380D02*
X104521309Y-56332380D01*
X104854642Y-55332380D01*
X105902261Y-56284761D02*
X106045119Y-56332380D01*
X106283214Y-56332380D01*
X106378452Y-56284761D01*
X106426071Y-56237142D01*
X106473690Y-56141904D01*
X106473690Y-56046666D01*
X106426071Y-55951428D01*
X106378452Y-55903809D01*
X106283214Y-55856190D01*
X106092738Y-55808571D01*
X105997500Y-55760952D01*
X105949880Y-55713333D01*
X105902261Y-55618095D01*
X105902261Y-55522857D01*
X105949880Y-55427619D01*
X105997500Y-55380000D01*
X106092738Y-55332380D01*
X106330833Y-55332380D01*
X106473690Y-55380000D01*
X107092738Y-55332380D02*
X107283214Y-55332380D01*
X107378452Y-55380000D01*
X107473690Y-55475238D01*
X107521309Y-55665714D01*
X107521309Y-55999047D01*
X107473690Y-56189523D01*
X107378452Y-56284761D01*
X107283214Y-56332380D01*
X107092738Y-56332380D01*
X106997500Y-56284761D01*
X106902261Y-56189523D01*
X106854642Y-55999047D01*
X106854642Y-55665714D01*
X106902261Y-55475238D01*
X106997500Y-55380000D01*
X107092738Y-55332380D01*
X108426071Y-56332380D02*
X107949880Y-56332380D01*
X107949880Y-55332380D01*
X108759404Y-56332380D02*
X108759404Y-55332380D01*
X108997500Y-55332380D01*
X109140357Y-55380000D01*
X109235595Y-55475238D01*
X109283214Y-55570476D01*
X109330833Y-55760952D01*
X109330833Y-55903809D01*
X109283214Y-56094285D01*
X109235595Y-56189523D01*
X109140357Y-56284761D01*
X108997500Y-56332380D01*
X108759404Y-56332380D01*
X109711785Y-56046666D02*
X110187976Y-56046666D01*
X109616547Y-56332380D02*
X109949880Y-55332380D01*
X110283214Y-56332380D01*
X111187976Y-56332380D02*
X110854642Y-55856190D01*
X110616547Y-56332380D02*
X110616547Y-55332380D01*
X110997500Y-55332380D01*
X111092738Y-55380000D01*
X111140357Y-55427619D01*
X111187976Y-55522857D01*
X111187976Y-55665714D01*
X111140357Y-55760952D01*
X111092738Y-55808571D01*
X110997500Y-55856190D01*
X110616547Y-55856190D01*
X112283214Y-55332380D02*
X112902261Y-55332380D01*
X112568928Y-55713333D01*
X112711785Y-55713333D01*
X112807023Y-55760952D01*
X112854642Y-55808571D01*
X112902261Y-55903809D01*
X112902261Y-56141904D01*
X112854642Y-56237142D01*
X112807023Y-56284761D01*
X112711785Y-56332380D01*
X112426071Y-56332380D01*
X112330833Y-56284761D01*
X112283214Y-56237142D01*
X113330833Y-55951428D02*
X114092738Y-55951428D01*
X114521309Y-55427619D02*
X114568928Y-55380000D01*
X114664166Y-55332380D01*
X114902261Y-55332380D01*
X114997500Y-55380000D01*
X115045119Y-55427619D01*
X115092738Y-55522857D01*
X115092738Y-55618095D01*
X115045119Y-55760952D01*
X114473690Y-56332380D01*
X115092738Y-56332380D01*
X89235595Y-57982380D02*
X89235595Y-56982380D01*
X89568928Y-57696666D01*
X89902261Y-56982380D01*
X89902261Y-57982380D01*
X90330833Y-57696666D02*
X90807023Y-57696666D01*
X90235595Y-57982380D02*
X90568928Y-56982380D01*
X90902261Y-57982380D01*
X91426071Y-57506190D02*
X91426071Y-57982380D01*
X91092738Y-56982380D02*
X91426071Y-57506190D01*
X91759404Y-56982380D01*
X92283214Y-56982380D02*
X92473690Y-56982380D01*
X92568928Y-57030000D01*
X92664166Y-57125238D01*
X92711785Y-57315714D01*
X92711785Y-57649047D01*
X92664166Y-57839523D01*
X92568928Y-57934761D01*
X92473690Y-57982380D01*
X92283214Y-57982380D01*
X92187976Y-57934761D01*
X92092738Y-57839523D01*
X92045119Y-57649047D01*
X92045119Y-57315714D01*
X92092738Y-57125238D01*
X92187976Y-57030000D01*
X92283214Y-56982380D01*
X93711785Y-57982380D02*
X93378452Y-57506190D01*
X93140357Y-57982380D02*
X93140357Y-56982380D01*
X93521309Y-56982380D01*
X93616547Y-57030000D01*
X93664166Y-57077619D01*
X93711785Y-57172857D01*
X93711785Y-57315714D01*
X93664166Y-57410952D01*
X93616547Y-57458571D01*
X93521309Y-57506190D01*
X93140357Y-57506190D01*
X94854642Y-57696666D02*
X95330833Y-57696666D01*
X94759404Y-57982380D02*
X95092738Y-56982380D01*
X95426071Y-57982380D01*
X96949880Y-56982380D02*
X96759404Y-56982380D01*
X96664166Y-57030000D01*
X96616547Y-57077619D01*
X96521309Y-57220476D01*
X96473690Y-57410952D01*
X96473690Y-57791904D01*
X96521309Y-57887142D01*
X96568928Y-57934761D01*
X96664166Y-57982380D01*
X96854642Y-57982380D01*
X96949880Y-57934761D01*
X96997500Y-57887142D01*
X97045119Y-57791904D01*
X97045119Y-57553809D01*
X96997500Y-57458571D01*
X96949880Y-57410952D01*
X96854642Y-57363333D01*
X96664166Y-57363333D01*
X96568928Y-57410952D01*
X96521309Y-57458571D01*
X96473690Y-57553809D01*
X97330833Y-56982380D02*
X97664166Y-57982380D01*
X97997500Y-56982380D01*
X99045119Y-57934761D02*
X99187976Y-57982380D01*
X99426071Y-57982380D01*
X99521309Y-57934761D01*
X99568928Y-57887142D01*
X99616547Y-57791904D01*
X99616547Y-57696666D01*
X99568928Y-57601428D01*
X99521309Y-57553809D01*
X99426071Y-57506190D01*
X99235595Y-57458571D01*
X99140357Y-57410952D01*
X99092738Y-57363333D01*
X99045119Y-57268095D01*
X99045119Y-57172857D01*
X99092738Y-57077619D01*
X99140357Y-57030000D01*
X99235595Y-56982380D01*
X99473690Y-56982380D01*
X99616547Y-57030000D01*
X100235595Y-56982380D02*
X100426071Y-56982380D01*
X100521309Y-57030000D01*
X100616547Y-57125238D01*
X100664166Y-57315714D01*
X100664166Y-57649047D01*
X100616547Y-57839523D01*
X100521309Y-57934761D01*
X100426071Y-57982380D01*
X100235595Y-57982380D01*
X100140357Y-57934761D01*
X100045119Y-57839523D01*
X99997500Y-57649047D01*
X99997500Y-57315714D01*
X100045119Y-57125238D01*
X100140357Y-57030000D01*
X100235595Y-56982380D01*
X101568928Y-57982380D02*
X101092738Y-57982380D01*
X101092738Y-56982380D01*
X101902261Y-57982380D02*
X101902261Y-56982380D01*
X102140357Y-56982380D01*
X102283214Y-57030000D01*
X102378452Y-57125238D01*
X102426071Y-57220476D01*
X102473690Y-57410952D01*
X102473690Y-57553809D01*
X102426071Y-57744285D01*
X102378452Y-57839523D01*
X102283214Y-57934761D01*
X102140357Y-57982380D01*
X101902261Y-57982380D01*
X102854642Y-57696666D02*
X103330833Y-57696666D01*
X102759404Y-57982380D02*
X103092738Y-56982380D01*
X103426071Y-57982380D01*
X104330833Y-57982380D02*
X103997500Y-57506190D01*
X103759404Y-57982380D02*
X103759404Y-56982380D01*
X104140357Y-56982380D01*
X104235595Y-57030000D01*
X104283214Y-57077619D01*
X104330833Y-57172857D01*
X104330833Y-57315714D01*
X104283214Y-57410952D01*
X104235595Y-57458571D01*
X104140357Y-57506190D01*
X103759404Y-57506190D01*
X105473690Y-57077619D02*
X105521309Y-57030000D01*
X105616547Y-56982380D01*
X105854642Y-56982380D01*
X105949880Y-57030000D01*
X105997500Y-57077619D01*
X106045119Y-57172857D01*
X106045119Y-57268095D01*
X105997500Y-57410952D01*
X105426071Y-57982380D01*
X106045119Y-57982380D01*
X106473690Y-57601428D02*
X107235595Y-57601428D01*
X108235595Y-57982380D02*
X107664166Y-57982380D01*
X107949880Y-57982380D02*
X107949880Y-56982380D01*
X107854642Y-57125238D01*
X107759404Y-57220476D01*
X107664166Y-57268095D01*
X119562857Y-72318571D02*
X119705714Y-72366190D01*
X119753333Y-72413809D01*
X119800952Y-72509047D01*
X119800952Y-72651904D01*
X119753333Y-72747142D01*
X119705714Y-72794761D01*
X119610476Y-72842380D01*
X119229523Y-72842380D01*
X119229523Y-71842380D01*
X119562857Y-71842380D01*
X119658095Y-71890000D01*
X119705714Y-71937619D01*
X119753333Y-72032857D01*
X119753333Y-72128095D01*
X119705714Y-72223333D01*
X119658095Y-72270952D01*
X119562857Y-72318571D01*
X119229523Y-72318571D01*
X120181904Y-72556666D02*
X120658095Y-72556666D01*
X120086666Y-72842380D02*
X120420000Y-71842380D01*
X120753333Y-72842380D01*
X120943809Y-71842380D02*
X121515238Y-71842380D01*
X121229523Y-72842380D02*
X121229523Y-71842380D01*
X121848571Y-72318571D02*
X122181904Y-72318571D01*
X122324761Y-72842380D02*
X121848571Y-72842380D01*
X121848571Y-71842380D01*
X122324761Y-71842380D01*
X123324761Y-72842380D02*
X122991428Y-72366190D01*
X122753333Y-72842380D02*
X122753333Y-71842380D01*
X123134285Y-71842380D01*
X123229523Y-71890000D01*
X123277142Y-71937619D01*
X123324761Y-72032857D01*
X123324761Y-72175714D01*
X123277142Y-72270952D01*
X123229523Y-72318571D01*
X123134285Y-72366190D01*
X122753333Y-72366190D01*
X123753333Y-72842380D02*
X123753333Y-71842380D01*
X124181904Y-72556666D02*
X124658095Y-72556666D01*
X124086666Y-72842380D02*
X124420000Y-71842380D01*
X124753333Y-72842380D01*
X140367142Y-88082380D02*
X140367142Y-87082380D01*
X140700476Y-87796666D01*
X141033809Y-87082380D01*
X141033809Y-88082380D01*
X141700476Y-87082380D02*
X141890952Y-87082380D01*
X141986190Y-87130000D01*
X142081428Y-87225238D01*
X142129047Y-87415714D01*
X142129047Y-87749047D01*
X142081428Y-87939523D01*
X141986190Y-88034761D01*
X141890952Y-88082380D01*
X141700476Y-88082380D01*
X141605238Y-88034761D01*
X141510000Y-87939523D01*
X141462380Y-87749047D01*
X141462380Y-87415714D01*
X141510000Y-87225238D01*
X141605238Y-87130000D01*
X141700476Y-87082380D01*
X142414761Y-87082380D02*
X142986190Y-87082380D01*
X142700476Y-88082380D02*
X142700476Y-87082380D01*
X143510000Y-87082380D02*
X143700476Y-87082380D01*
X143795714Y-87130000D01*
X143890952Y-87225238D01*
X143938571Y-87415714D01*
X143938571Y-87749047D01*
X143890952Y-87939523D01*
X143795714Y-88034761D01*
X143700476Y-88082380D01*
X143510000Y-88082380D01*
X143414761Y-88034761D01*
X143319523Y-87939523D01*
X143271904Y-87749047D01*
X143271904Y-87415714D01*
X143319523Y-87225238D01*
X143414761Y-87130000D01*
X143510000Y-87082380D01*
X144938571Y-88082380D02*
X144605238Y-87606190D01*
X144367142Y-88082380D02*
X144367142Y-87082380D01*
X144748095Y-87082380D01*
X144843333Y-87130000D01*
X144890952Y-87177619D01*
X144938571Y-87272857D01*
X144938571Y-87415714D01*
X144890952Y-87510952D01*
X144843333Y-87558571D01*
X144748095Y-87606190D01*
X144367142Y-87606190D01*
X146462380Y-87558571D02*
X146605238Y-87606190D01*
X146652857Y-87653809D01*
X146700476Y-87749047D01*
X146700476Y-87891904D01*
X146652857Y-87987142D01*
X146605238Y-88034761D01*
X146510000Y-88082380D01*
X146129047Y-88082380D01*
X146129047Y-87082380D01*
X146462380Y-87082380D01*
X146557619Y-87130000D01*
X146605238Y-87177619D01*
X146652857Y-87272857D01*
X146652857Y-87368095D01*
X146605238Y-87463333D01*
X146557619Y-87510952D01*
X146462380Y-87558571D01*
X146129047Y-87558571D01*
X52808571Y-88082380D02*
X52808571Y-87082380D01*
X53141904Y-87796666D01*
X53475238Y-87082380D01*
X53475238Y-88082380D01*
X54141904Y-87082380D02*
X54332380Y-87082380D01*
X54427619Y-87130000D01*
X54522857Y-87225238D01*
X54570476Y-87415714D01*
X54570476Y-87749047D01*
X54522857Y-87939523D01*
X54427619Y-88034761D01*
X54332380Y-88082380D01*
X54141904Y-88082380D01*
X54046666Y-88034761D01*
X53951428Y-87939523D01*
X53903809Y-87749047D01*
X53903809Y-87415714D01*
X53951428Y-87225238D01*
X54046666Y-87130000D01*
X54141904Y-87082380D01*
X54856190Y-87082380D02*
X55427619Y-87082380D01*
X55141904Y-88082380D02*
X55141904Y-87082380D01*
X55951428Y-87082380D02*
X56141904Y-87082380D01*
X56237142Y-87130000D01*
X56332380Y-87225238D01*
X56380000Y-87415714D01*
X56380000Y-87749047D01*
X56332380Y-87939523D01*
X56237142Y-88034761D01*
X56141904Y-88082380D01*
X55951428Y-88082380D01*
X55856190Y-88034761D01*
X55760952Y-87939523D01*
X55713333Y-87749047D01*
X55713333Y-87415714D01*
X55760952Y-87225238D01*
X55856190Y-87130000D01*
X55951428Y-87082380D01*
X57380000Y-88082380D02*
X57046666Y-87606190D01*
X56808571Y-88082380D02*
X56808571Y-87082380D01*
X57189523Y-87082380D01*
X57284761Y-87130000D01*
X57332380Y-87177619D01*
X57380000Y-87272857D01*
X57380000Y-87415714D01*
X57332380Y-87510952D01*
X57284761Y-87558571D01*
X57189523Y-87606190D01*
X56808571Y-87606190D01*
X58522857Y-87796666D02*
X58999047Y-87796666D01*
X58427619Y-88082380D02*
X58760952Y-87082380D01*
X59094285Y-88082380D01*
X130048095Y-77612857D02*
X131571904Y-77612857D01*
X117348095Y-77612857D02*
X118871904Y-77612857D01*
X118110000Y-78374761D02*
X118110000Y-76850952D01*
D12*
X65000000Y-96000000D02*
X65000000Y-150000000D01*
X135000000Y-96000000D02*
X135000000Y-150000000D01*
X65000000Y-96000000D02*
X135000000Y-96000000D01*
D13*
G36*
X115005555Y-117051667D02*
G01*
X116424398Y-117051667D01*
X116402893Y-117386806D01*
X116381389Y-117721945D01*
X115693472Y-117742138D01*
X115005555Y-117762332D01*
X115005555Y-118877731D01*
X115007228Y-119353170D01*
X115020369Y-119705493D01*
X115057164Y-119952694D01*
X115129799Y-120112764D01*
X115250459Y-120203697D01*
X115431330Y-120243488D01*
X115684597Y-120250127D01*
X115930928Y-120244132D01*
X116557778Y-120226320D01*
X116557778Y-120536445D01*
X116552921Y-120695428D01*
X116522892Y-120804208D01*
X116444501Y-120874330D01*
X116294562Y-120917337D01*
X116049884Y-120944772D01*
X115690951Y-120967963D01*
X115329744Y-120981381D01*
X115061250Y-120969144D01*
X114838729Y-120927177D01*
X114693796Y-120881016D01*
X114464978Y-120780893D01*
X114287544Y-120653742D01*
X114155228Y-120481709D01*
X114061764Y-120246941D01*
X114000885Y-119931583D01*
X113966327Y-119517783D01*
X113951821Y-118987687D01*
X113950295Y-118762639D01*
X113947222Y-117757222D01*
X113382778Y-117757222D01*
X113382778Y-117059398D01*
X113715920Y-117037894D01*
X114049062Y-117016389D01*
X114344090Y-116028611D01*
X114674823Y-116007107D01*
X115005555Y-115985602D01*
X115005555Y-117051667D01*
G37*
X115005555Y-117051667D02*
X116424398Y-117051667D01*
X116402893Y-117386806D01*
X116381389Y-117721945D01*
X115693472Y-117742138D01*
X115005555Y-117762332D01*
X115005555Y-118877731D01*
X115007228Y-119353170D01*
X115020369Y-119705493D01*
X115057164Y-119952694D01*
X115129799Y-120112764D01*
X115250459Y-120203697D01*
X115431330Y-120243488D01*
X115684597Y-120250127D01*
X115930928Y-120244132D01*
X116557778Y-120226320D01*
X116557778Y-120536445D01*
X116552921Y-120695428D01*
X116522892Y-120804208D01*
X116444501Y-120874330D01*
X116294562Y-120917337D01*
X116049884Y-120944772D01*
X115690951Y-120967963D01*
X115329744Y-120981381D01*
X115061250Y-120969144D01*
X114838729Y-120927177D01*
X114693796Y-120881016D01*
X114464978Y-120780893D01*
X114287544Y-120653742D01*
X114155228Y-120481709D01*
X114061764Y-120246941D01*
X114000885Y-119931583D01*
X113966327Y-119517783D01*
X113951821Y-118987687D01*
X113950295Y-118762639D01*
X113947222Y-117757222D01*
X113382778Y-117757222D01*
X113382778Y-117059398D01*
X113715920Y-117037894D01*
X114049062Y-117016389D01*
X114344090Y-116028611D01*
X114674823Y-116007107D01*
X115005555Y-115985602D01*
X115005555Y-117051667D01*
G36*
X111035219Y-117017223D02*
G01*
X111418648Y-117129753D01*
X111711577Y-117328549D01*
X111930112Y-117621909D01*
X111980082Y-117721945D01*
X112032797Y-117860522D01*
X112069676Y-118026302D01*
X112093383Y-118246280D01*
X112106578Y-118547450D01*
X112111925Y-118956807D01*
X112112308Y-119062500D01*
X112117427Y-119441226D01*
X112129753Y-119774319D01*
X112147667Y-120034114D01*
X112169551Y-120192949D01*
X112180289Y-120224156D01*
X112294130Y-120303572D01*
X112443791Y-120336154D01*
X112573001Y-120355845D01*
X112629076Y-120427704D01*
X112641892Y-120593983D01*
X112641944Y-120616401D01*
X112629759Y-120797480D01*
X112567637Y-120890062D01*
X112417229Y-120946284D01*
X112395000Y-120952136D01*
X112100125Y-120989663D01*
X111803315Y-120964026D01*
X111559526Y-120882715D01*
X111478748Y-120827268D01*
X111355393Y-120673978D01*
X111266051Y-120508744D01*
X111182541Y-120307134D01*
X110960845Y-120559632D01*
X110773244Y-120737406D01*
X110571051Y-120877850D01*
X110511007Y-120907454D01*
X110188921Y-120987151D01*
X109827528Y-120993175D01*
X109492573Y-120927545D01*
X109362281Y-120872148D01*
X109106159Y-120701720D01*
X108943926Y-120499236D01*
X108858303Y-120231025D01*
X108832012Y-119863413D01*
X108831944Y-119838611D01*
X108832560Y-119818564D01*
X109854457Y-119818564D01*
X109921898Y-120057543D01*
X109996111Y-120156111D01*
X110196654Y-120278556D01*
X110430316Y-120270109D01*
X110636724Y-120176850D01*
X110852921Y-119975661D01*
X111001375Y-119691548D01*
X111054444Y-119386976D01*
X111054444Y-119168334D01*
X110627904Y-119168334D01*
X110369098Y-119178055D01*
X110200828Y-119216808D01*
X110073280Y-119298978D01*
X110028182Y-119341515D01*
X109890548Y-119563062D01*
X109854457Y-119818564D01*
X108832560Y-119818564D01*
X108841315Y-119534010D01*
X108875274Y-119326277D01*
X108942591Y-119172055D01*
X108977186Y-119120591D01*
X109214007Y-118895332D01*
X109536597Y-118719623D01*
X109891746Y-118618583D01*
X110071769Y-118603889D01*
X110363773Y-118593066D01*
X110669556Y-118566311D01*
X110727097Y-118559021D01*
X110925595Y-118525866D01*
X111021407Y-118475326D01*
X111051919Y-118372934D01*
X111054444Y-118257220D01*
X111025864Y-118040089D01*
X110956444Y-117860824D01*
X110950257Y-117851539D01*
X110774986Y-117698911D01*
X110560090Y-117642223D01*
X110346548Y-117675930D01*
X110175337Y-117794487D01*
X110091594Y-117967725D01*
X110061934Y-118083525D01*
X110008013Y-118147184D01*
X109894177Y-118174298D01*
X109684772Y-118180461D01*
X109605007Y-118180556D01*
X109293074Y-118175100D01*
X109100804Y-118151291D01*
X109006927Y-118097965D01*
X108990179Y-118003956D01*
X109023492Y-117875279D01*
X109212031Y-117520315D01*
X109507652Y-117250370D01*
X109900786Y-117071057D01*
X110381864Y-116987987D01*
X110545183Y-116982661D01*
X111035219Y-117017223D01*
G37*
X111035219Y-117017223D02*
X111418648Y-117129753D01*
X111711577Y-117328549D01*
X111930112Y-117621909D01*
X111980082Y-117721945D01*
X112032797Y-117860522D01*
X112069676Y-118026302D01*
X112093383Y-118246280D01*
X112106578Y-118547450D01*
X112111925Y-118956807D01*
X112112308Y-119062500D01*
X112117427Y-119441226D01*
X112129753Y-119774319D01*
X112147667Y-120034114D01*
X112169551Y-120192949D01*
X112180289Y-120224156D01*
X112294130Y-120303572D01*
X112443791Y-120336154D01*
X112573001Y-120355845D01*
X112629076Y-120427704D01*
X112641892Y-120593983D01*
X112641944Y-120616401D01*
X112629759Y-120797480D01*
X112567637Y-120890062D01*
X112417229Y-120946284D01*
X112395000Y-120952136D01*
X112100125Y-120989663D01*
X111803315Y-120964026D01*
X111559526Y-120882715D01*
X111478748Y-120827268D01*
X111355393Y-120673978D01*
X111266051Y-120508744D01*
X111182541Y-120307134D01*
X110960845Y-120559632D01*
X110773244Y-120737406D01*
X110571051Y-120877850D01*
X110511007Y-120907454D01*
X110188921Y-120987151D01*
X109827528Y-120993175D01*
X109492573Y-120927545D01*
X109362281Y-120872148D01*
X109106159Y-120701720D01*
X108943926Y-120499236D01*
X108858303Y-120231025D01*
X108832012Y-119863413D01*
X108831944Y-119838611D01*
X108832560Y-119818564D01*
X109854457Y-119818564D01*
X109921898Y-120057543D01*
X109996111Y-120156111D01*
X110196654Y-120278556D01*
X110430316Y-120270109D01*
X110636724Y-120176850D01*
X110852921Y-119975661D01*
X111001375Y-119691548D01*
X111054444Y-119386976D01*
X111054444Y-119168334D01*
X110627904Y-119168334D01*
X110369098Y-119178055D01*
X110200828Y-119216808D01*
X110073280Y-119298978D01*
X110028182Y-119341515D01*
X109890548Y-119563062D01*
X109854457Y-119818564D01*
X108832560Y-119818564D01*
X108841315Y-119534010D01*
X108875274Y-119326277D01*
X108942591Y-119172055D01*
X108977186Y-119120591D01*
X109214007Y-118895332D01*
X109536597Y-118719623D01*
X109891746Y-118618583D01*
X110071769Y-118603889D01*
X110363773Y-118593066D01*
X110669556Y-118566311D01*
X110727097Y-118559021D01*
X110925595Y-118525866D01*
X111021407Y-118475326D01*
X111051919Y-118372934D01*
X111054444Y-118257220D01*
X111025864Y-118040089D01*
X110956444Y-117860824D01*
X110950257Y-117851539D01*
X110774986Y-117698911D01*
X110560090Y-117642223D01*
X110346548Y-117675930D01*
X110175337Y-117794487D01*
X110091594Y-117967725D01*
X110061934Y-118083525D01*
X110008013Y-118147184D01*
X109894177Y-118174298D01*
X109684772Y-118180461D01*
X109605007Y-118180556D01*
X109293074Y-118175100D01*
X109100804Y-118151291D01*
X109006927Y-118097965D01*
X108990179Y-118003956D01*
X109023492Y-117875279D01*
X109212031Y-117520315D01*
X109507652Y-117250370D01*
X109900786Y-117071057D01*
X110381864Y-116987987D01*
X110545183Y-116982661D01*
X111035219Y-117017223D01*
G36*
X106784084Y-116053284D02*
G01*
X107240412Y-116224355D01*
X107481134Y-116378351D01*
X107636836Y-116530827D01*
X107796488Y-116740060D01*
X107937556Y-116968335D01*
X108037508Y-117177934D01*
X108073811Y-117331143D01*
X108068520Y-117361549D01*
X107986433Y-117426327D01*
X107816434Y-117491049D01*
X107601808Y-117546590D01*
X107385844Y-117583825D01*
X107211827Y-117593626D01*
X107123045Y-117566868D01*
X107120386Y-117561438D01*
X107066025Y-117454724D01*
X106964820Y-117290724D01*
X106937197Y-117249077D01*
X106703058Y-116998704D01*
X106439574Y-116874594D01*
X106168503Y-116871477D01*
X105911601Y-116984083D01*
X105690625Y-117207140D01*
X105527331Y-117535380D01*
X105508641Y-117595133D01*
X105439314Y-117953996D01*
X105412398Y-118372852D01*
X105425699Y-118806900D01*
X105477023Y-119211338D01*
X105564178Y-119541364D01*
X105608906Y-119643130D01*
X105819970Y-119925388D01*
X106080756Y-120092109D01*
X106364229Y-120144914D01*
X106643356Y-120085423D01*
X106891102Y-119915256D01*
X107080432Y-119636034D01*
X107114203Y-119552898D01*
X107212781Y-119373199D01*
X107325701Y-119309445D01*
X107450816Y-119322509D01*
X107648367Y-119355358D01*
X107870605Y-119398478D01*
X108069777Y-119442354D01*
X108198134Y-119477471D01*
X108219763Y-119487596D01*
X108204126Y-119556519D01*
X108140607Y-119715613D01*
X108057094Y-119900041D01*
X107836441Y-120257069D01*
X107545650Y-120572294D01*
X107221525Y-120811006D01*
X106975850Y-120919803D01*
X106640692Y-120981298D01*
X106249377Y-120995654D01*
X105868096Y-120963861D01*
X105595384Y-120899190D01*
X105170258Y-120675681D01*
X104823607Y-120341286D01*
X104559725Y-119905159D01*
X104382904Y-119376453D01*
X104297437Y-118764321D01*
X104302657Y-118142695D01*
X104386050Y-117545172D01*
X104546747Y-117056728D01*
X104789413Y-116665464D01*
X104947294Y-116498529D01*
X105347706Y-116220659D01*
X105807478Y-116052871D01*
X106296355Y-115996601D01*
X106784084Y-116053284D01*
G37*
X106784084Y-116053284D02*
X107240412Y-116224355D01*
X107481134Y-116378351D01*
X107636836Y-116530827D01*
X107796488Y-116740060D01*
X107937556Y-116968335D01*
X108037508Y-117177934D01*
X108073811Y-117331143D01*
X108068520Y-117361549D01*
X107986433Y-117426327D01*
X107816434Y-117491049D01*
X107601808Y-117546590D01*
X107385844Y-117583825D01*
X107211827Y-117593626D01*
X107123045Y-117566868D01*
X107120386Y-117561438D01*
X107066025Y-117454724D01*
X106964820Y-117290724D01*
X106937197Y-117249077D01*
X106703058Y-116998704D01*
X106439574Y-116874594D01*
X106168503Y-116871477D01*
X105911601Y-116984083D01*
X105690625Y-117207140D01*
X105527331Y-117535380D01*
X105508641Y-117595133D01*
X105439314Y-117953996D01*
X105412398Y-118372852D01*
X105425699Y-118806900D01*
X105477023Y-119211338D01*
X105564178Y-119541364D01*
X105608906Y-119643130D01*
X105819970Y-119925388D01*
X106080756Y-120092109D01*
X106364229Y-120144914D01*
X106643356Y-120085423D01*
X106891102Y-119915256D01*
X107080432Y-119636034D01*
X107114203Y-119552898D01*
X107212781Y-119373199D01*
X107325701Y-119309445D01*
X107450816Y-119322509D01*
X107648367Y-119355358D01*
X107870605Y-119398478D01*
X108069777Y-119442354D01*
X108198134Y-119477471D01*
X108219763Y-119487596D01*
X108204126Y-119556519D01*
X108140607Y-119715613D01*
X108057094Y-119900041D01*
X107836441Y-120257069D01*
X107545650Y-120572294D01*
X107221525Y-120811006D01*
X106975850Y-120919803D01*
X106640692Y-120981298D01*
X106249377Y-120995654D01*
X105868096Y-120963861D01*
X105595384Y-120899190D01*
X105170258Y-120675681D01*
X104823607Y-120341286D01*
X104559725Y-119905159D01*
X104382904Y-119376453D01*
X104297437Y-118764321D01*
X104302657Y-118142695D01*
X104386050Y-117545172D01*
X104546747Y-117056728D01*
X104789413Y-116665464D01*
X104947294Y-116498529D01*
X105347706Y-116220659D01*
X105807478Y-116052871D01*
X106296355Y-115996601D01*
X106784084Y-116053284D01*
G36*
X118842762Y-118162917D02*
G01*
X118985883Y-118568009D01*
X119121150Y-118958317D01*
X119237296Y-119300790D01*
X119323054Y-119562378D01*
X119353902Y-119662222D01*
X119468414Y-120050278D01*
X119697425Y-119274167D01*
X119822498Y-118862767D01*
X119966998Y-118406487D01*
X120107914Y-117977346D01*
X120170860Y-117792500D01*
X120415285Y-117086945D01*
X120964724Y-117066180D01*
X121248193Y-117060534D01*
X121412213Y-117071987D01*
X121477726Y-117103422D01*
X121477087Y-117136736D01*
X121442819Y-117223163D01*
X121363585Y-117424046D01*
X121246029Y-117722507D01*
X121096796Y-118101669D01*
X120922530Y-118544652D01*
X120729874Y-119034578D01*
X120650777Y-119235779D01*
X120391578Y-119892866D01*
X120176263Y-120432057D01*
X119998358Y-120867274D01*
X119851390Y-121212440D01*
X119728888Y-121481481D01*
X119624378Y-121688318D01*
X119531387Y-121846876D01*
X119443443Y-121971078D01*
X119354073Y-122074848D01*
X119309694Y-122120562D01*
X119019251Y-122321342D01*
X118648953Y-122445846D01*
X118243441Y-122484228D01*
X117880694Y-122435809D01*
X117802902Y-122382212D01*
X117765510Y-122251856D01*
X117757222Y-122055938D01*
X117757222Y-121708334D01*
X118065207Y-121708334D01*
X118385408Y-121655172D01*
X118633507Y-121488744D01*
X118824380Y-121198639D01*
X118839017Y-121166654D01*
X118959088Y-120896945D01*
X118154162Y-118974306D01*
X117349237Y-117051667D01*
X118446134Y-117051667D01*
X118842762Y-118162917D01*
G37*
X118842762Y-118162917D02*
X118985883Y-118568009D01*
X119121150Y-118958317D01*
X119237296Y-119300790D01*
X119323054Y-119562378D01*
X119353902Y-119662222D01*
X119468414Y-120050278D01*
X119697425Y-119274167D01*
X119822498Y-118862767D01*
X119966998Y-118406487D01*
X120107914Y-117977346D01*
X120170860Y-117792500D01*
X120415285Y-117086945D01*
X120964724Y-117066180D01*
X121248193Y-117060534D01*
X121412213Y-117071987D01*
X121477726Y-117103422D01*
X121477087Y-117136736D01*
X121442819Y-117223163D01*
X121363585Y-117424046D01*
X121246029Y-117722507D01*
X121096796Y-118101669D01*
X120922530Y-118544652D01*
X120729874Y-119034578D01*
X120650777Y-119235779D01*
X120391578Y-119892866D01*
X120176263Y-120432057D01*
X119998358Y-120867274D01*
X119851390Y-121212440D01*
X119728888Y-121481481D01*
X119624378Y-121688318D01*
X119531387Y-121846876D01*
X119443443Y-121971078D01*
X119354073Y-122074848D01*
X119309694Y-122120562D01*
X119019251Y-122321342D01*
X118648953Y-122445846D01*
X118243441Y-122484228D01*
X117880694Y-122435809D01*
X117802902Y-122382212D01*
X117765510Y-122251856D01*
X117757222Y-122055938D01*
X117757222Y-121708334D01*
X118065207Y-121708334D01*
X118385408Y-121655172D01*
X118633507Y-121488744D01*
X118824380Y-121198639D01*
X118839017Y-121166654D01*
X118959088Y-120896945D01*
X118154162Y-118974306D01*
X117349237Y-117051667D01*
X118446134Y-117051667D01*
X118842762Y-118162917D01*
G36*
X122272778Y-129398889D02*
G01*
X123542778Y-129398889D01*
X123542778Y-130175000D01*
X121706119Y-130175000D01*
X121133279Y-130173801D01*
X120686770Y-130169687D01*
X120351825Y-130161883D01*
X120113679Y-130149613D01*
X119957567Y-130132103D01*
X119868724Y-130108576D01*
X119832385Y-130078259D01*
X119831695Y-130076587D01*
X119812433Y-129944854D01*
X119813437Y-129746526D01*
X119816271Y-129706170D01*
X119838611Y-129434167D01*
X120561805Y-129414060D01*
X121285000Y-129393953D01*
X121285000Y-125518334D01*
X120226667Y-125518334D01*
X120226667Y-124812778D01*
X122272778Y-124812778D01*
X122272778Y-129398889D01*
G37*
X122272778Y-129398889D02*
X123542778Y-129398889D01*
X123542778Y-130175000D01*
X121706119Y-130175000D01*
X121133279Y-130173801D01*
X120686770Y-130169687D01*
X120351825Y-130161883D01*
X120113679Y-130149613D01*
X119957567Y-130132103D01*
X119868724Y-130108576D01*
X119832385Y-130078259D01*
X119831695Y-130076587D01*
X119812433Y-129944854D01*
X119813437Y-129746526D01*
X119816271Y-129706170D01*
X119838611Y-129434167D01*
X120561805Y-129414060D01*
X121285000Y-129393953D01*
X121285000Y-125518334D01*
X120226667Y-125518334D01*
X120226667Y-124812778D01*
X122272778Y-124812778D01*
X122272778Y-129398889D01*
G36*
X113495845Y-126168640D02*
G01*
X113874823Y-126246938D01*
X114165726Y-126421853D01*
X114397440Y-126711047D01*
X114405833Y-126725153D01*
X114451856Y-126814162D01*
X114487261Y-126918080D01*
X114513795Y-127056654D01*
X114533206Y-127249633D01*
X114547243Y-127516764D01*
X114557652Y-127877795D01*
X114566182Y-128352473D01*
X114569382Y-128573049D01*
X114591820Y-130181376D01*
X114075493Y-130160549D01*
X113559167Y-130139722D01*
X113523889Y-128669316D01*
X113511604Y-128178109D01*
X113499913Y-127808462D01*
X113486361Y-127540855D01*
X113468494Y-127355769D01*
X113443857Y-127233686D01*
X113409995Y-127155086D01*
X113364454Y-127100451D01*
X113322045Y-127064177D01*
X113074437Y-126946271D01*
X112806544Y-126958281D01*
X112580458Y-127076027D01*
X112460245Y-127178992D01*
X112369507Y-127287360D01*
X112303393Y-127422610D01*
X112257051Y-127606224D01*
X112225631Y-127859681D01*
X112204280Y-128204463D01*
X112188149Y-128662048D01*
X112183333Y-128834445D01*
X112148055Y-130139722D01*
X111636528Y-130160452D01*
X111125000Y-130181182D01*
X111125000Y-126217442D01*
X111601250Y-126238304D01*
X112077500Y-126259167D01*
X112099416Y-126604389D01*
X112121333Y-126949611D01*
X112290861Y-126700128D01*
X112560817Y-126422872D01*
X112914967Y-126239692D01*
X113321205Y-126164752D01*
X113495845Y-126168640D01*
G37*
X113495845Y-126168640D02*
X113874823Y-126246938D01*
X114165726Y-126421853D01*
X114397440Y-126711047D01*
X114405833Y-126725153D01*
X114451856Y-126814162D01*
X114487261Y-126918080D01*
X114513795Y-127056654D01*
X114533206Y-127249633D01*
X114547243Y-127516764D01*
X114557652Y-127877795D01*
X114566182Y-128352473D01*
X114569382Y-128573049D01*
X114591820Y-130181376D01*
X114075493Y-130160549D01*
X113559167Y-130139722D01*
X113523889Y-128669316D01*
X113511604Y-128178109D01*
X113499913Y-127808462D01*
X113486361Y-127540855D01*
X113468494Y-127355769D01*
X113443857Y-127233686D01*
X113409995Y-127155086D01*
X113364454Y-127100451D01*
X113322045Y-127064177D01*
X113074437Y-126946271D01*
X112806544Y-126958281D01*
X112580458Y-127076027D01*
X112460245Y-127178992D01*
X112369507Y-127287360D01*
X112303393Y-127422610D01*
X112257051Y-127606224D01*
X112225631Y-127859681D01*
X112204280Y-128204463D01*
X112188149Y-128662048D01*
X112183333Y-128834445D01*
X112148055Y-130139722D01*
X111636528Y-130160452D01*
X111125000Y-130181182D01*
X111125000Y-126217442D01*
X111601250Y-126238304D01*
X112077500Y-126259167D01*
X112099416Y-126604389D01*
X112121333Y-126949611D01*
X112290861Y-126700128D01*
X112560817Y-126422872D01*
X112914967Y-126239692D01*
X113321205Y-126164752D01*
X113495845Y-126168640D01*
G36*
X103379690Y-126296002D02*
G01*
X103399167Y-127355892D01*
X104164959Y-126296002D01*
X104930751Y-125236111D01*
X105523153Y-125236111D01*
X105792203Y-125241925D01*
X105997171Y-125257428D01*
X106105534Y-125279709D01*
X106114633Y-125289028D01*
X106072613Y-125358928D01*
X105956567Y-125520286D01*
X105780576Y-125754336D01*
X105558725Y-126042312D01*
X105338522Y-126323186D01*
X105087943Y-126644080D01*
X104871100Y-126928852D01*
X104702107Y-127158387D01*
X104595072Y-127313572D01*
X104563333Y-127373185D01*
X104599134Y-127450849D01*
X104699311Y-127629577D01*
X104853024Y-127891042D01*
X105049433Y-128216912D01*
X105277698Y-128588859D01*
X105374722Y-128745191D01*
X105612588Y-129130162D01*
X105822910Y-129476130D01*
X105994855Y-129764811D01*
X106117588Y-129977923D01*
X106180276Y-130097182D01*
X106186111Y-130114466D01*
X106120499Y-130142860D01*
X105942802Y-130159674D01*
X105681730Y-130162773D01*
X105572500Y-130160108D01*
X104958890Y-130139722D01*
X104409230Y-129187521D01*
X104216435Y-128859095D01*
X104044636Y-128576828D01*
X103907423Y-128362248D01*
X103818381Y-128236883D01*
X103794557Y-128213649D01*
X103715939Y-128251120D01*
X103595731Y-128370993D01*
X103546716Y-128431676D01*
X103464756Y-128549162D01*
X103411748Y-128665882D01*
X103381442Y-128815725D01*
X103367590Y-129032580D01*
X103363944Y-129350335D01*
X103363889Y-129423188D01*
X103363889Y-130175000D01*
X102305555Y-130175000D01*
X102305555Y-125236111D01*
X103360213Y-125236111D01*
X103379690Y-126296002D01*
G37*
X103379690Y-126296002D02*
X103399167Y-127355892D01*
X104164959Y-126296002D01*
X104930751Y-125236111D01*
X105523153Y-125236111D01*
X105792203Y-125241925D01*
X105997171Y-125257428D01*
X106105534Y-125279709D01*
X106114633Y-125289028D01*
X106072613Y-125358928D01*
X105956567Y-125520286D01*
X105780576Y-125754336D01*
X105558725Y-126042312D01*
X105338522Y-126323186D01*
X105087943Y-126644080D01*
X104871100Y-126928852D01*
X104702107Y-127158387D01*
X104595072Y-127313572D01*
X104563333Y-127373185D01*
X104599134Y-127450849D01*
X104699311Y-127629577D01*
X104853024Y-127891042D01*
X105049433Y-128216912D01*
X105277698Y-128588859D01*
X105374722Y-128745191D01*
X105612588Y-129130162D01*
X105822910Y-129476130D01*
X105994855Y-129764811D01*
X106117588Y-129977923D01*
X106180276Y-130097182D01*
X106186111Y-130114466D01*
X106120499Y-130142860D01*
X105942802Y-130159674D01*
X105681730Y-130162773D01*
X105572500Y-130160108D01*
X104958890Y-130139722D01*
X104409230Y-129187521D01*
X104216435Y-128859095D01*
X104044636Y-128576828D01*
X103907423Y-128362248D01*
X103818381Y-128236883D01*
X103794557Y-128213649D01*
X103715939Y-128251120D01*
X103595731Y-128370993D01*
X103546716Y-128431676D01*
X103464756Y-128549162D01*
X103411748Y-128665882D01*
X103381442Y-128815725D01*
X103367590Y-129032580D01*
X103363944Y-129350335D01*
X103363889Y-129423188D01*
X103363889Y-130175000D01*
X102305555Y-130175000D01*
X102305555Y-125236111D01*
X103360213Y-125236111D01*
X103379690Y-126296002D01*
G36*
X117505246Y-126177750D02*
G01*
X117909046Y-126282910D01*
X118243315Y-126475174D01*
X118251454Y-126481949D01*
X118408649Y-126626337D01*
X118525442Y-126773377D01*
X118608470Y-126947277D01*
X118664368Y-127172240D01*
X118699772Y-127472473D01*
X118721318Y-127872181D01*
X118731965Y-128234722D01*
X118745574Y-128624317D01*
X118765447Y-128967084D01*
X118789451Y-129236888D01*
X118815453Y-129407593D01*
X118831311Y-129451806D01*
X118954037Y-129521657D01*
X119071139Y-129540000D01*
X119180650Y-129557554D01*
X119228464Y-129636685D01*
X119238889Y-129813993D01*
X119222806Y-129983202D01*
X119157531Y-130089739D01*
X119017520Y-130147627D01*
X118777230Y-130170889D01*
X118583043Y-130174037D01*
X118258621Y-130118158D01*
X118016279Y-129955256D01*
X117870259Y-129695514D01*
X117859497Y-129656775D01*
X117814922Y-129479176D01*
X117600007Y-129723951D01*
X117271493Y-130011753D01*
X116902979Y-130166096D01*
X116482452Y-130191197D01*
X116326283Y-130171174D01*
X115970463Y-130069710D01*
X115710225Y-129891863D01*
X115555829Y-129693460D01*
X115441432Y-129398374D01*
X115401620Y-129043537D01*
X115411377Y-128946173D01*
X116487222Y-128946173D01*
X116534632Y-129231010D01*
X116668884Y-129408582D01*
X116878009Y-129472366D01*
X117150039Y-129415838D01*
X117258091Y-129366322D01*
X117426867Y-129215231D01*
X117571073Y-128974849D01*
X117664859Y-128696991D01*
X117686667Y-128507297D01*
X117680577Y-128409046D01*
X117640990Y-128356770D01*
X117535926Y-128339619D01*
X117333406Y-128346745D01*
X117232049Y-128353065D01*
X116888304Y-128397732D01*
X116662700Y-128489847D01*
X116535966Y-128644756D01*
X116488831Y-128877803D01*
X116487222Y-128946173D01*
X115411377Y-128946173D01*
X115437109Y-128689432D01*
X115540602Y-128409862D01*
X115729389Y-128156945D01*
X115968693Y-127975977D01*
X116280505Y-127858267D01*
X116686814Y-127795124D01*
X117139861Y-127777794D01*
X117686667Y-127776111D01*
X117686667Y-127569038D01*
X117657681Y-127330139D01*
X117584074Y-127102433D01*
X117485870Y-126942013D01*
X117452947Y-126914322D01*
X117325189Y-126875567D01*
X117157500Y-126861050D01*
X116930308Y-126888834D01*
X116789792Y-126992902D01*
X116705049Y-127160186D01*
X116660271Y-127258244D01*
X116596032Y-127315698D01*
X116478352Y-127343379D01*
X116273253Y-127352119D01*
X116100913Y-127352778D01*
X115847525Y-127344728D01*
X115659899Y-127323428D01*
X115572450Y-127293155D01*
X115570000Y-127286816D01*
X115618506Y-127086466D01*
X115745641Y-126844563D01*
X115923832Y-126612466D01*
X115942820Y-126592372D01*
X116250703Y-126367006D01*
X116638671Y-126221587D01*
X117069320Y-126157905D01*
X117505246Y-126177750D01*
G37*
X117505246Y-126177750D02*
X117909046Y-126282910D01*
X118243315Y-126475174D01*
X118251454Y-126481949D01*
X118408649Y-126626337D01*
X118525442Y-126773377D01*
X118608470Y-126947277D01*
X118664368Y-127172240D01*
X118699772Y-127472473D01*
X118721318Y-127872181D01*
X118731965Y-128234722D01*
X118745574Y-128624317D01*
X118765447Y-128967084D01*
X118789451Y-129236888D01*
X118815453Y-129407593D01*
X118831311Y-129451806D01*
X118954037Y-129521657D01*
X119071139Y-129540000D01*
X119180650Y-129557554D01*
X119228464Y-129636685D01*
X119238889Y-129813993D01*
X119222806Y-129983202D01*
X119157531Y-130089739D01*
X119017520Y-130147627D01*
X118777230Y-130170889D01*
X118583043Y-130174037D01*
X118258621Y-130118158D01*
X118016279Y-129955256D01*
X117870259Y-129695514D01*
X117859497Y-129656775D01*
X117814922Y-129479176D01*
X117600007Y-129723951D01*
X117271493Y-130011753D01*
X116902979Y-130166096D01*
X116482452Y-130191197D01*
X116326283Y-130171174D01*
X115970463Y-130069710D01*
X115710225Y-129891863D01*
X115555829Y-129693460D01*
X115441432Y-129398374D01*
X115401620Y-129043537D01*
X115411377Y-128946173D01*
X116487222Y-128946173D01*
X116534632Y-129231010D01*
X116668884Y-129408582D01*
X116878009Y-129472366D01*
X117150039Y-129415838D01*
X117258091Y-129366322D01*
X117426867Y-129215231D01*
X117571073Y-128974849D01*
X117664859Y-128696991D01*
X117686667Y-128507297D01*
X117680577Y-128409046D01*
X117640990Y-128356770D01*
X117535926Y-128339619D01*
X117333406Y-128346745D01*
X117232049Y-128353065D01*
X116888304Y-128397732D01*
X116662700Y-128489847D01*
X116535966Y-128644756D01*
X116488831Y-128877803D01*
X116487222Y-128946173D01*
X115411377Y-128946173D01*
X115437109Y-128689432D01*
X115540602Y-128409862D01*
X115729389Y-128156945D01*
X115968693Y-127975977D01*
X116280505Y-127858267D01*
X116686814Y-127795124D01*
X117139861Y-127777794D01*
X117686667Y-127776111D01*
X117686667Y-127569038D01*
X117657681Y-127330139D01*
X117584074Y-127102433D01*
X117485870Y-126942013D01*
X117452947Y-126914322D01*
X117325189Y-126875567D01*
X117157500Y-126861050D01*
X116930308Y-126888834D01*
X116789792Y-126992902D01*
X116705049Y-127160186D01*
X116660271Y-127258244D01*
X116596032Y-127315698D01*
X116478352Y-127343379D01*
X116273253Y-127352119D01*
X116100913Y-127352778D01*
X115847525Y-127344728D01*
X115659899Y-127323428D01*
X115572450Y-127293155D01*
X115570000Y-127286816D01*
X115618506Y-127086466D01*
X115745641Y-126844563D01*
X115923832Y-126612466D01*
X115942820Y-126592372D01*
X116250703Y-126367006D01*
X116638671Y-126221587D01*
X117069320Y-126157905D01*
X117505246Y-126177750D01*
G36*
X108816150Y-126206782D02*
G01*
X109218143Y-126338876D01*
X109316680Y-126391184D01*
X109507755Y-126517744D01*
X109651889Y-126657737D01*
X109756143Y-126832958D01*
X109827575Y-127065206D01*
X109873244Y-127376277D01*
X109900210Y-127787969D01*
X109913730Y-128234722D01*
X109926705Y-128635138D01*
X109946142Y-128981681D01*
X109970071Y-129249687D01*
X109996517Y-129414495D01*
X110011073Y-129451806D01*
X110134518Y-129521685D01*
X110251695Y-129540000D01*
X110361205Y-129557554D01*
X110409019Y-129636685D01*
X110419444Y-129813993D01*
X110399892Y-129992702D01*
X110323656Y-130101244D01*
X110164366Y-130156063D01*
X109895651Y-130173597D01*
X109841954Y-130174037D01*
X109511734Y-130139663D01*
X109278497Y-130023445D01*
X109114774Y-129810052D01*
X109087261Y-129752817D01*
X108960952Y-129470697D01*
X108870831Y-129639090D01*
X108657911Y-129894880D01*
X108348202Y-130077014D01*
X107971338Y-130174522D01*
X107556955Y-130176431D01*
X107458334Y-130161998D01*
X107141126Y-130050963D01*
X106895271Y-129858753D01*
X106764695Y-129717515D01*
X106687674Y-129588341D01*
X106647251Y-129424018D01*
X106626465Y-129177332D01*
X106622446Y-129099234D01*
X106618890Y-128960178D01*
X107667778Y-128960178D01*
X107719073Y-129230847D01*
X107861221Y-129401951D01*
X108076616Y-129464195D01*
X108347652Y-129408283D01*
X108437878Y-129366719D01*
X108635084Y-129195945D01*
X108785580Y-128936497D01*
X108862506Y-128639409D01*
X108867222Y-128550979D01*
X108867222Y-128324117D01*
X108399183Y-128353919D01*
X108055807Y-128404238D01*
X107830240Y-128512222D01*
X107706295Y-128691286D01*
X107667788Y-128954847D01*
X107667778Y-128960178D01*
X106618890Y-128960178D01*
X106615153Y-128814066D01*
X106633256Y-128620422D01*
X106685773Y-128469667D01*
X106763107Y-128340556D01*
X106956030Y-128117927D01*
X107204456Y-127959912D01*
X107532316Y-127857175D01*
X107963542Y-127800377D01*
X108179305Y-127788055D01*
X108867222Y-127759699D01*
X108867222Y-127516322D01*
X108828594Y-127243937D01*
X108727057Y-127017240D01*
X108627354Y-126912886D01*
X108458994Y-126863860D01*
X108241602Y-126871148D01*
X108049933Y-126928078D01*
X107990317Y-126969762D01*
X107899178Y-127119720D01*
X107879444Y-127216707D01*
X107866488Y-127284389D01*
X107808876Y-127325072D01*
X107678491Y-127345477D01*
X107447216Y-127352327D01*
X107310245Y-127352778D01*
X107029589Y-127351043D01*
X106863938Y-127340522D01*
X106787187Y-127313243D01*
X106773234Y-127261233D01*
X106790500Y-127194028D01*
X106880658Y-126935019D01*
X106975245Y-126758017D01*
X107108246Y-126607046D01*
X107194724Y-126528257D01*
X107522485Y-126325553D01*
X107928514Y-126202691D01*
X108373005Y-126162244D01*
X108816150Y-126206782D01*
G37*
X108816150Y-126206782D02*
X109218143Y-126338876D01*
X109316680Y-126391184D01*
X109507755Y-126517744D01*
X109651889Y-126657737D01*
X109756143Y-126832958D01*
X109827575Y-127065206D01*
X109873244Y-127376277D01*
X109900210Y-127787969D01*
X109913730Y-128234722D01*
X109926705Y-128635138D01*
X109946142Y-128981681D01*
X109970071Y-129249687D01*
X109996517Y-129414495D01*
X110011073Y-129451806D01*
X110134518Y-129521685D01*
X110251695Y-129540000D01*
X110361205Y-129557554D01*
X110409019Y-129636685D01*
X110419444Y-129813993D01*
X110399892Y-129992702D01*
X110323656Y-130101244D01*
X110164366Y-130156063D01*
X109895651Y-130173597D01*
X109841954Y-130174037D01*
X109511734Y-130139663D01*
X109278497Y-130023445D01*
X109114774Y-129810052D01*
X109087261Y-129752817D01*
X108960952Y-129470697D01*
X108870831Y-129639090D01*
X108657911Y-129894880D01*
X108348202Y-130077014D01*
X107971338Y-130174522D01*
X107556955Y-130176431D01*
X107458334Y-130161998D01*
X107141126Y-130050963D01*
X106895271Y-129858753D01*
X106764695Y-129717515D01*
X106687674Y-129588341D01*
X106647251Y-129424018D01*
X106626465Y-129177332D01*
X106622446Y-129099234D01*
X106618890Y-128960178D01*
X107667778Y-128960178D01*
X107719073Y-129230847D01*
X107861221Y-129401951D01*
X108076616Y-129464195D01*
X108347652Y-129408283D01*
X108437878Y-129366719D01*
X108635084Y-129195945D01*
X108785580Y-128936497D01*
X108862506Y-128639409D01*
X108867222Y-128550979D01*
X108867222Y-128324117D01*
X108399183Y-128353919D01*
X108055807Y-128404238D01*
X107830240Y-128512222D01*
X107706295Y-128691286D01*
X107667788Y-128954847D01*
X107667778Y-128960178D01*
X106618890Y-128960178D01*
X106615153Y-128814066D01*
X106633256Y-128620422D01*
X106685773Y-128469667D01*
X106763107Y-128340556D01*
X106956030Y-128117927D01*
X107204456Y-127959912D01*
X107532316Y-127857175D01*
X107963542Y-127800377D01*
X108179305Y-127788055D01*
X108867222Y-127759699D01*
X108867222Y-127516322D01*
X108828594Y-127243937D01*
X108727057Y-127017240D01*
X108627354Y-126912886D01*
X108458994Y-126863860D01*
X108241602Y-126871148D01*
X108049933Y-126928078D01*
X107990317Y-126969762D01*
X107899178Y-127119720D01*
X107879444Y-127216707D01*
X107866488Y-127284389D01*
X107808876Y-127325072D01*
X107678491Y-127345477D01*
X107447216Y-127352327D01*
X107310245Y-127352778D01*
X107029589Y-127351043D01*
X106863938Y-127340522D01*
X106787187Y-127313243D01*
X106773234Y-127261233D01*
X106790500Y-127194028D01*
X106880658Y-126935019D01*
X106975245Y-126758017D01*
X107108246Y-126607046D01*
X107194724Y-126528257D01*
X107522485Y-126325553D01*
X107928514Y-126202691D01*
X108373005Y-126162244D01*
X108816150Y-126206782D01*
G36*
X88203152Y-113002706D02*
G01*
X88750543Y-113037709D01*
X89212796Y-113092801D01*
X89393889Y-113126444D01*
X90586428Y-113453515D01*
X91709857Y-113898389D01*
X92757793Y-114454564D01*
X93723855Y-115115538D01*
X94601658Y-115874810D01*
X95384822Y-116725880D01*
X96066963Y-117662245D01*
X96641700Y-118677404D01*
X97102649Y-119764857D01*
X97443428Y-120918102D01*
X97552164Y-121436588D01*
X97619462Y-121933402D01*
X97660822Y-122524101D01*
X97676244Y-123163861D01*
X97665728Y-123807859D01*
X97629273Y-124411273D01*
X97566880Y-124929281D01*
X97552164Y-125013968D01*
X97265568Y-126192076D01*
X96855583Y-127308443D01*
X96328815Y-128356227D01*
X95691867Y-129328584D01*
X94951347Y-130218669D01*
X94113860Y-131019640D01*
X93186011Y-131724652D01*
X92174406Y-132326863D01*
X91085650Y-132819427D01*
X89926349Y-133195503D01*
X89570278Y-133283555D01*
X89160034Y-133355436D01*
X88648666Y-133410762D01*
X88075320Y-133448378D01*
X87479138Y-133467132D01*
X86899265Y-133465868D01*
X86374847Y-133443433D01*
X85945026Y-133398674D01*
X85901389Y-133391702D01*
X84695675Y-133121786D01*
X83553867Y-132727647D01*
X82479855Y-132211248D01*
X81477529Y-131574549D01*
X80550780Y-130819514D01*
X80466609Y-130739445D01*
X81557516Y-130739445D01*
X82973333Y-130739445D01*
X82973333Y-123503714D01*
X83820393Y-123503714D01*
X83883423Y-123920777D01*
X84056763Y-124308019D01*
X84319095Y-124633767D01*
X84649103Y-124866346D01*
X84772500Y-124918417D01*
X85105941Y-125005814D01*
X85412898Y-125005652D01*
X85677077Y-124948800D01*
X86048046Y-124778192D01*
X86344566Y-124509371D01*
X86557001Y-124169465D01*
X86675717Y-123785607D01*
X86683332Y-123586996D01*
X87899169Y-123586996D01*
X87962769Y-124019410D01*
X88136899Y-124386692D01*
X88401568Y-124677336D01*
X88736781Y-124879836D01*
X89122545Y-124982688D01*
X89538868Y-124974384D01*
X89965756Y-124843419D01*
X90029036Y-124812703D01*
X90342370Y-124579499D01*
X90566113Y-124263264D01*
X90696905Y-123892666D01*
X90731389Y-123496371D01*
X90666204Y-123103045D01*
X90497993Y-122741356D01*
X90299375Y-122505451D01*
X89955025Y-122274500D01*
X89561342Y-122157140D01*
X89149905Y-122151477D01*
X88752290Y-122255616D01*
X88400075Y-122467662D01*
X88237502Y-122629177D01*
X88038639Y-122908748D01*
X87933303Y-123187775D01*
X87899452Y-123528660D01*
X87899169Y-123586996D01*
X86683332Y-123586996D01*
X86691080Y-123384927D01*
X86593455Y-122994554D01*
X86458075Y-122749483D01*
X86161599Y-122440576D01*
X85797188Y-122235042D01*
X85394300Y-122138463D01*
X84982395Y-122156422D01*
X84590930Y-122294499D01*
X84464803Y-122371817D01*
X84232298Y-122589536D01*
X84028570Y-122880415D01*
X83881945Y-123194700D01*
X83820749Y-123482638D01*
X83820393Y-123503714D01*
X82973333Y-123503714D01*
X82973333Y-121637778D01*
X91581111Y-121637778D01*
X91581111Y-130739445D01*
X92992222Y-130739445D01*
X92991295Y-125218472D01*
X92990941Y-124197470D01*
X92990096Y-123307256D01*
X92988536Y-122537507D01*
X92986041Y-121877901D01*
X92982386Y-121318115D01*
X92977349Y-120847825D01*
X92970707Y-120456710D01*
X92962238Y-120134446D01*
X92951719Y-119870711D01*
X92938927Y-119655181D01*
X92923639Y-119477535D01*
X92905633Y-119327449D01*
X92884686Y-119194601D01*
X92860575Y-119068667D01*
X92858376Y-119057967D01*
X92615323Y-118214289D01*
X92254198Y-117434963D01*
X91786583Y-116728867D01*
X91224059Y-116104878D01*
X90578208Y-115571874D01*
X89860612Y-115138730D01*
X89082853Y-114814325D01*
X88256512Y-114607535D01*
X87393172Y-114527238D01*
X86959722Y-114536783D01*
X86331858Y-114598928D01*
X85779310Y-114712996D01*
X85241211Y-114893948D01*
X84889603Y-115045620D01*
X84106724Y-115482358D01*
X83411594Y-116026879D01*
X82810775Y-116671547D01*
X82310832Y-117408727D01*
X81918329Y-118230783D01*
X81759703Y-118686536D01*
X81731162Y-118781101D01*
X81706225Y-118873212D01*
X81684610Y-118972691D01*
X81666035Y-119089360D01*
X81650218Y-119233041D01*
X81636876Y-119413556D01*
X81625727Y-119640725D01*
X81616490Y-119924372D01*
X81608882Y-120274317D01*
X81602621Y-120700383D01*
X81597425Y-121212391D01*
X81593012Y-121820163D01*
X81589099Y-122533521D01*
X81585406Y-123362287D01*
X81581648Y-124316282D01*
X81579176Y-124971528D01*
X81557516Y-130739445D01*
X80466609Y-130739445D01*
X80269914Y-130552337D01*
X79452106Y-129648353D01*
X78753312Y-128668757D01*
X78174227Y-127614826D01*
X77715540Y-126487837D01*
X77377945Y-125289067D01*
X77350928Y-125165556D01*
X77288591Y-124764893D01*
X77245252Y-124261383D01*
X77220912Y-123692007D01*
X77215571Y-123093745D01*
X77229229Y-122503577D01*
X77261885Y-121958482D01*
X77313540Y-121495442D01*
X77350928Y-121285000D01*
X77603964Y-120324361D01*
X77946454Y-119371181D01*
X78362743Y-118461096D01*
X78837175Y-117629739D01*
X79166667Y-117152002D01*
X79542089Y-116687639D01*
X79987115Y-116197909D01*
X80466263Y-115718190D01*
X80944055Y-115283860D01*
X81385011Y-114930299D01*
X81420825Y-114904262D01*
X82264220Y-114365271D01*
X83199437Y-113888726D01*
X84184205Y-113493130D01*
X85176254Y-113196985D01*
X85478055Y-113128392D01*
X85898738Y-113063223D01*
X86418415Y-113018051D01*
X87000261Y-112992895D01*
X87607449Y-112987774D01*
X88203152Y-113002706D01*
G37*
X88203152Y-113002706D02*
X88750543Y-113037709D01*
X89212796Y-113092801D01*
X89393889Y-113126444D01*
X90586428Y-113453515D01*
X91709857Y-113898389D01*
X92757793Y-114454564D01*
X93723855Y-115115538D01*
X94601658Y-115874810D01*
X95384822Y-116725880D01*
X96066963Y-117662245D01*
X96641700Y-118677404D01*
X97102649Y-119764857D01*
X97443428Y-120918102D01*
X97552164Y-121436588D01*
X97619462Y-121933402D01*
X97660822Y-122524101D01*
X97676244Y-123163861D01*
X97665728Y-123807859D01*
X97629273Y-124411273D01*
X97566880Y-124929281D01*
X97552164Y-125013968D01*
X97265568Y-126192076D01*
X96855583Y-127308443D01*
X96328815Y-128356227D01*
X95691867Y-129328584D01*
X94951347Y-130218669D01*
X94113860Y-131019640D01*
X93186011Y-131724652D01*
X92174406Y-132326863D01*
X91085650Y-132819427D01*
X89926349Y-133195503D01*
X89570278Y-133283555D01*
X89160034Y-133355436D01*
X88648666Y-133410762D01*
X88075320Y-133448378D01*
X87479138Y-133467132D01*
X86899265Y-133465868D01*
X86374847Y-133443433D01*
X85945026Y-133398674D01*
X85901389Y-133391702D01*
X84695675Y-133121786D01*
X83553867Y-132727647D01*
X82479855Y-132211248D01*
X81477529Y-131574549D01*
X80550780Y-130819514D01*
X80466609Y-130739445D01*
X81557516Y-130739445D01*
X82973333Y-130739445D01*
X82973333Y-123503714D01*
X83820393Y-123503714D01*
X83883423Y-123920777D01*
X84056763Y-124308019D01*
X84319095Y-124633767D01*
X84649103Y-124866346D01*
X84772500Y-124918417D01*
X85105941Y-125005814D01*
X85412898Y-125005652D01*
X85677077Y-124948800D01*
X86048046Y-124778192D01*
X86344566Y-124509371D01*
X86557001Y-124169465D01*
X86675717Y-123785607D01*
X86683332Y-123586996D01*
X87899169Y-123586996D01*
X87962769Y-124019410D01*
X88136899Y-124386692D01*
X88401568Y-124677336D01*
X88736781Y-124879836D01*
X89122545Y-124982688D01*
X89538868Y-124974384D01*
X89965756Y-124843419D01*
X90029036Y-124812703D01*
X90342370Y-124579499D01*
X90566113Y-124263264D01*
X90696905Y-123892666D01*
X90731389Y-123496371D01*
X90666204Y-123103045D01*
X90497993Y-122741356D01*
X90299375Y-122505451D01*
X89955025Y-122274500D01*
X89561342Y-122157140D01*
X89149905Y-122151477D01*
X88752290Y-122255616D01*
X88400075Y-122467662D01*
X88237502Y-122629177D01*
X88038639Y-122908748D01*
X87933303Y-123187775D01*
X87899452Y-123528660D01*
X87899169Y-123586996D01*
X86683332Y-123586996D01*
X86691080Y-123384927D01*
X86593455Y-122994554D01*
X86458075Y-122749483D01*
X86161599Y-122440576D01*
X85797188Y-122235042D01*
X85394300Y-122138463D01*
X84982395Y-122156422D01*
X84590930Y-122294499D01*
X84464803Y-122371817D01*
X84232298Y-122589536D01*
X84028570Y-122880415D01*
X83881945Y-123194700D01*
X83820749Y-123482638D01*
X83820393Y-123503714D01*
X82973333Y-123503714D01*
X82973333Y-121637778D01*
X91581111Y-121637778D01*
X91581111Y-130739445D01*
X92992222Y-130739445D01*
X92991295Y-125218472D01*
X92990941Y-124197470D01*
X92990096Y-123307256D01*
X92988536Y-122537507D01*
X92986041Y-121877901D01*
X92982386Y-121318115D01*
X92977349Y-120847825D01*
X92970707Y-120456710D01*
X92962238Y-120134446D01*
X92951719Y-119870711D01*
X92938927Y-119655181D01*
X92923639Y-119477535D01*
X92905633Y-119327449D01*
X92884686Y-119194601D01*
X92860575Y-119068667D01*
X92858376Y-119057967D01*
X92615323Y-118214289D01*
X92254198Y-117434963D01*
X91786583Y-116728867D01*
X91224059Y-116104878D01*
X90578208Y-115571874D01*
X89860612Y-115138730D01*
X89082853Y-114814325D01*
X88256512Y-114607535D01*
X87393172Y-114527238D01*
X86959722Y-114536783D01*
X86331858Y-114598928D01*
X85779310Y-114712996D01*
X85241211Y-114893948D01*
X84889603Y-115045620D01*
X84106724Y-115482358D01*
X83411594Y-116026879D01*
X82810775Y-116671547D01*
X82310832Y-117408727D01*
X81918329Y-118230783D01*
X81759703Y-118686536D01*
X81731162Y-118781101D01*
X81706225Y-118873212D01*
X81684610Y-118972691D01*
X81666035Y-119089360D01*
X81650218Y-119233041D01*
X81636876Y-119413556D01*
X81625727Y-119640725D01*
X81616490Y-119924372D01*
X81608882Y-120274317D01*
X81602621Y-120700383D01*
X81597425Y-121212391D01*
X81593012Y-121820163D01*
X81589099Y-122533521D01*
X81585406Y-123362287D01*
X81581648Y-124316282D01*
X81579176Y-124971528D01*
X81557516Y-130739445D01*
X80466609Y-130739445D01*
X80269914Y-130552337D01*
X79452106Y-129648353D01*
X78753312Y-128668757D01*
X78174227Y-127614826D01*
X77715540Y-126487837D01*
X77377945Y-125289067D01*
X77350928Y-125165556D01*
X77288591Y-124764893D01*
X77245252Y-124261383D01*
X77220912Y-123692007D01*
X77215571Y-123093745D01*
X77229229Y-122503577D01*
X77261885Y-121958482D01*
X77313540Y-121495442D01*
X77350928Y-121285000D01*
X77603964Y-120324361D01*
X77946454Y-119371181D01*
X78362743Y-118461096D01*
X78837175Y-117629739D01*
X79166667Y-117152002D01*
X79542089Y-116687639D01*
X79987115Y-116197909D01*
X80466263Y-115718190D01*
X80944055Y-115283860D01*
X81385011Y-114930299D01*
X81420825Y-114904262D01*
X82264220Y-114365271D01*
X83199437Y-113888726D01*
X84184205Y-113493130D01*
X85176254Y-113196985D01*
X85478055Y-113128392D01*
X85898738Y-113063223D01*
X86418415Y-113018051D01*
X87000261Y-112992895D01*
X87607449Y-112987774D01*
X88203152Y-113002706D01*
D12*
X131559000Y-72011000D02*
X130359000Y-72011000D01*
X131559000Y-68011000D02*
X131559000Y-72011000D01*
X126759000Y-72011000D02*
X126759000Y-69311000D01*
X127959000Y-72011000D02*
X126759000Y-72011000D01*
X65470000Y-75930000D02*
X64070000Y-75930000D01*
X63370000Y-75230000D02*
X63370000Y-74630000D01*
X64070000Y-73930000D02*
X65470000Y-73930000D01*
X66170000Y-74630000D02*
X66170000Y-75230000D01*
X66170000Y-75230000D02*
G75*
G02X65470000Y-75930000I-700000J0D01*
G01*
X65470000Y-73930000D02*
G75*
G02X66170000Y-74630000I0J-700000D01*
G01*
X63370000Y-74630000D02*
G75*
G02X64070000Y-73930000I700000J0D01*
G01*
X64070000Y-75930000D02*
G75*
G02X63370000Y-75230000I0J700000D01*
G01*
X64070000Y-52340000D02*
X65470000Y-52340000D01*
X66170000Y-53040000D02*
X66170000Y-53640000D01*
X65470000Y-54340000D02*
X64070000Y-54340000D01*
X63370000Y-53640000D02*
X63370000Y-53040000D01*
X63370000Y-53040000D02*
G75*
G02X64070000Y-52340000I700000J0D01*
G01*
X64070000Y-54340000D02*
G75*
G02X63370000Y-53640000I0J700000D01*
G01*
X66170000Y-53640000D02*
G75*
G02X65470000Y-54340000I-700000J0D01*
G01*
X65470000Y-52340000D02*
G75*
G02X66170000Y-53040000I0J-700000D01*
G01*
X125240000Y-62530000D02*
G75*
G02X124540000Y-63230000I-700000J0D01*
G01*
X124540000Y-61230000D02*
G75*
G02X125240000Y-61930000I0J-700000D01*
G01*
X121140000Y-61930000D02*
G75*
G02X121840000Y-61230000I700000J0D01*
G01*
X121840000Y-63230000D02*
G75*
G02X121140000Y-62530000I0J700000D01*
G01*
X124590000Y-63230000D02*
X121790000Y-63230000D01*
X121140000Y-62530000D02*
X121140000Y-61930000D01*
X121790000Y-61230000D02*
X124590000Y-61230000D01*
X125240000Y-61930000D02*
X125240000Y-62530000D01*
X131393000Y-65028578D02*
X131393000Y-64511422D01*
X129973000Y-65028578D02*
X129973000Y-64511422D01*
X127026600Y-64460622D02*
X127026600Y-64977778D01*
X128446600Y-64460622D02*
X128446600Y-64977778D01*
X131670000Y-60070000D02*
X126270000Y-60070000D01*
X131670000Y-56770000D02*
X126270000Y-56770000D01*
X131670000Y-60070000D02*
X131670000Y-56770000D01*
X138912600Y-69630600D02*
X137582600Y-69630600D01*
X137582600Y-69630600D02*
X137582600Y-68300600D01*
X137582600Y-67030600D02*
X137582600Y-51730600D01*
X140242600Y-51730600D02*
X137582600Y-51730600D01*
X140242600Y-67030600D02*
X140242600Y-51730600D01*
X140242600Y-67030600D02*
X137582600Y-67030600D01*
X149188000Y-83878000D02*
X149188000Y-82378000D01*
X147448000Y-83878000D02*
X149188000Y-83878000D01*
X141828000Y-75818000D02*
X148948000Y-75818000D01*
X141828000Y-83638000D02*
X148948000Y-83638000D01*
X148948000Y-83638000D02*
X148948000Y-75818000D01*
X141828000Y-83638000D02*
X141828000Y-75818000D01*
X147388000Y-83638000D02*
X147388000Y-75818000D01*
X146843000Y-77978000D02*
G75*
G03X146843000Y-77978000I-1555000J0D01*
G01*
X146843492Y-81450989D02*
G75*
G02X146720000Y-82086000I-1555492J-27011D01*
G01*
X145895742Y-82910109D02*
G75*
G02X144680000Y-82910000I-607742J1432109D01*
G01*
X143855891Y-82085742D02*
G75*
G02X143856000Y-80870000I1432109J607742D01*
G01*
X144680258Y-80045891D02*
G75*
G02X145896000Y-80046000I607742J-1432109D01*
G01*
X146719385Y-80870413D02*
G75*
G02X146843000Y-81478000I-1431385J-607587D01*
G01*
X50812000Y-75578000D02*
X50812000Y-77078000D01*
X52552000Y-75578000D02*
X50812000Y-75578000D01*
X58172000Y-83638000D02*
X51052000Y-83638000D01*
X58172000Y-75818000D02*
X51052000Y-75818000D01*
X51052000Y-75818000D02*
X51052000Y-83638000D01*
X58172000Y-75818000D02*
X58172000Y-83638000D01*
X52612000Y-75818000D02*
X52612000Y-83638000D01*
X56267000Y-81478000D02*
G75*
G03X56267000Y-81478000I-1555000J0D01*
G01*
X53156508Y-78005011D02*
G75*
G02X53280000Y-77370000I1555492J27011D01*
G01*
X54104258Y-76545891D02*
G75*
G02X55320000Y-76546000I607742J-1432109D01*
G01*
X56144109Y-77370258D02*
G75*
G02X56144000Y-78586000I-1432109J-607742D01*
G01*
X55319742Y-79410109D02*
G75*
G02X54104000Y-79410000I-607742J1432109D01*
G01*
X53280615Y-78585587D02*
G75*
G02X53157000Y-77978000I1431385J607587D01*
G01*
X120790000Y-81400000D02*
X122290000Y-81400000D01*
X120790000Y-79660000D02*
X120790000Y-81400000D01*
X128850000Y-74040000D02*
X128850000Y-81160000D01*
X121030000Y-74040000D02*
X121030000Y-81160000D01*
X121030000Y-81160000D02*
X128850000Y-81160000D01*
X121030000Y-74040000D02*
X128850000Y-74040000D01*
X121030000Y-79600000D02*
X128850000Y-79600000D01*
X128245000Y-77500000D02*
G75*
G03X128245000Y-77500000I-1555000J0D01*
G01*
X123217011Y-79055492D02*
G75*
G02X122582000Y-78932000I-27011J1555492D01*
G01*
X121757891Y-78107742D02*
G75*
G02X121758000Y-76892000I1432109J607742D01*
G01*
X122582258Y-76067891D02*
G75*
G02X123798000Y-76068000I607742J-1432109D01*
G01*
X124622109Y-76892258D02*
G75*
G02X124622000Y-78108000I-1432109J-607742D01*
G01*
X123797587Y-78931385D02*
G75*
G02X123190000Y-79055000I-607587J1431385D01*
G01*
X59795400Y-59332200D02*
X64795400Y-59332200D01*
X61795400Y-72392200D02*
X67795400Y-72392200D01*
D11*
X131811380Y-71442904D02*
X132620904Y-71442904D01*
X132716142Y-71395285D01*
X132763761Y-71347666D01*
X132811380Y-71252428D01*
X132811380Y-71061952D01*
X132763761Y-70966714D01*
X132716142Y-70919095D01*
X132620904Y-70871476D01*
X131811380Y-70871476D01*
X131906619Y-70442904D02*
X131859000Y-70395285D01*
X131811380Y-70300047D01*
X131811380Y-70061952D01*
X131859000Y-69966714D01*
X131906619Y-69919095D01*
X132001857Y-69871476D01*
X132097095Y-69871476D01*
X132239952Y-69919095D01*
X132811380Y-70490523D01*
X132811380Y-69871476D01*
X63936666Y-76182380D02*
X63936666Y-76896666D01*
X63889047Y-77039523D01*
X63793809Y-77134761D01*
X63650952Y-77182380D01*
X63555714Y-77182380D01*
X64412857Y-77182380D02*
X64412857Y-76182380D01*
X64793809Y-76182380D01*
X64889047Y-76230000D01*
X64936666Y-76277619D01*
X64984285Y-76372857D01*
X64984285Y-76515714D01*
X64936666Y-76610952D01*
X64889047Y-76658571D01*
X64793809Y-76706190D01*
X64412857Y-76706190D01*
X65317619Y-76182380D02*
X65936666Y-76182380D01*
X65603333Y-76563333D01*
X65746190Y-76563333D01*
X65841428Y-76610952D01*
X65889047Y-76658571D01*
X65936666Y-76753809D01*
X65936666Y-76991904D01*
X65889047Y-77087142D01*
X65841428Y-77134761D01*
X65746190Y-77182380D01*
X65460476Y-77182380D01*
X65365238Y-77134761D01*
X65317619Y-77087142D01*
X63936666Y-50992380D02*
X63936666Y-51706666D01*
X63889047Y-51849523D01*
X63793809Y-51944761D01*
X63650952Y-51992380D01*
X63555714Y-51992380D01*
X64412857Y-51992380D02*
X64412857Y-50992380D01*
X64793809Y-50992380D01*
X64889047Y-51040000D01*
X64936666Y-51087619D01*
X64984285Y-51182857D01*
X64984285Y-51325714D01*
X64936666Y-51420952D01*
X64889047Y-51468571D01*
X64793809Y-51516190D01*
X64412857Y-51516190D01*
X65365238Y-51087619D02*
X65412857Y-51040000D01*
X65508095Y-50992380D01*
X65746190Y-50992380D01*
X65841428Y-51040000D01*
X65889047Y-51087619D01*
X65936666Y-51182857D01*
X65936666Y-51278095D01*
X65889047Y-51420952D01*
X65317619Y-51992380D01*
X65936666Y-51992380D01*
X122356666Y-63482380D02*
X122356666Y-64196666D01*
X122309047Y-64339523D01*
X122213809Y-64434761D01*
X122070952Y-64482380D01*
X121975714Y-64482380D01*
X122832857Y-64482380D02*
X122832857Y-63482380D01*
X123213809Y-63482380D01*
X123309047Y-63530000D01*
X123356666Y-63577619D01*
X123404285Y-63672857D01*
X123404285Y-63815714D01*
X123356666Y-63910952D01*
X123309047Y-63958571D01*
X123213809Y-64006190D01*
X122832857Y-64006190D01*
X124356666Y-64482380D02*
X123785238Y-64482380D01*
X124070952Y-64482380D02*
X124070952Y-63482380D01*
X123975714Y-63625238D01*
X123880476Y-63720476D01*
X123785238Y-63768095D01*
X126075714Y-62682380D02*
X125504285Y-62682380D01*
X125790000Y-62682380D02*
X125790000Y-61682380D01*
X125694761Y-61825238D01*
X125599523Y-61920476D01*
X125504285Y-61968095D01*
X120256666Y-61682380D02*
X120875714Y-61682380D01*
X120542380Y-62063333D01*
X120685238Y-62063333D01*
X120780476Y-62110952D01*
X120828095Y-62158571D01*
X120875714Y-62253809D01*
X120875714Y-62491904D01*
X120828095Y-62587142D01*
X120780476Y-62634761D01*
X120685238Y-62682380D01*
X120399523Y-62682380D01*
X120304285Y-62634761D01*
X120256666Y-62587142D01*
X133707142Y-63666666D02*
X133754761Y-63714285D01*
X133802380Y-63857142D01*
X133802380Y-63952380D01*
X133754761Y-64095238D01*
X133659523Y-64190476D01*
X133564285Y-64238095D01*
X133373809Y-64285714D01*
X133230952Y-64285714D01*
X133040476Y-64238095D01*
X132945238Y-64190476D01*
X132850000Y-64095238D01*
X132802380Y-63952380D01*
X132802380Y-63857142D01*
X132850000Y-63714285D01*
X132897619Y-63666666D01*
X132897619Y-63285714D02*
X132850000Y-63238095D01*
X132802380Y-63142857D01*
X132802380Y-62904761D01*
X132850000Y-62809523D01*
X132897619Y-62761904D01*
X132992857Y-62714285D01*
X133088095Y-62714285D01*
X133230952Y-62761904D01*
X133802380Y-63333333D01*
X133802380Y-62714285D01*
X124817142Y-66206666D02*
X124864761Y-66254285D01*
X124912380Y-66397142D01*
X124912380Y-66492380D01*
X124864761Y-66635238D01*
X124769523Y-66730476D01*
X124674285Y-66778095D01*
X124483809Y-66825714D01*
X124340952Y-66825714D01*
X124150476Y-66778095D01*
X124055238Y-66730476D01*
X123960000Y-66635238D01*
X123912380Y-66492380D01*
X123912380Y-66397142D01*
X123960000Y-66254285D01*
X124007619Y-66206666D01*
X124912380Y-65254285D02*
X124912380Y-65825714D01*
X124912380Y-65540000D02*
X123912380Y-65540000D01*
X124055238Y-65635238D01*
X124150476Y-65730476D01*
X124198095Y-65825714D01*
X127531904Y-55062380D02*
X127531904Y-54062380D01*
X127770000Y-54062380D01*
X127912857Y-54110000D01*
X128008095Y-54205238D01*
X128055714Y-54300476D01*
X128103333Y-54490952D01*
X128103333Y-54633809D01*
X128055714Y-54824285D01*
X128008095Y-54919523D01*
X127912857Y-55014761D01*
X127770000Y-55062380D01*
X127531904Y-55062380D01*
X129055714Y-55062380D02*
X128484285Y-55062380D01*
X128770000Y-55062380D02*
X128770000Y-54062380D01*
X128674761Y-54205238D01*
X128579523Y-54300476D01*
X128484285Y-54348095D01*
X138579266Y-70522980D02*
X138579266Y-71237266D01*
X138531647Y-71380123D01*
X138436409Y-71475361D01*
X138293552Y-71522980D01*
X138198314Y-71522980D01*
X139484028Y-70856314D02*
X139484028Y-71522980D01*
X139245933Y-70475361D02*
X139007838Y-71189647D01*
X139626885Y-71189647D01*
X144446666Y-84542380D02*
X144446666Y-85256666D01*
X144399047Y-85399523D01*
X144303809Y-85494761D01*
X144160952Y-85542380D01*
X144065714Y-85542380D01*
X144827619Y-84542380D02*
X145446666Y-84542380D01*
X145113333Y-84923333D01*
X145256190Y-84923333D01*
X145351428Y-84970952D01*
X145399047Y-85018571D01*
X145446666Y-85113809D01*
X145446666Y-85351904D01*
X145399047Y-85447142D01*
X145351428Y-85494761D01*
X145256190Y-85542380D01*
X144970476Y-85542380D01*
X144875238Y-85494761D01*
X144827619Y-85447142D01*
X54276666Y-84542380D02*
X54276666Y-85256666D01*
X54229047Y-85399523D01*
X54133809Y-85494761D01*
X53990952Y-85542380D01*
X53895714Y-85542380D01*
X54705238Y-84637619D02*
X54752857Y-84590000D01*
X54848095Y-84542380D01*
X55086190Y-84542380D01*
X55181428Y-84590000D01*
X55229047Y-84637619D01*
X55276666Y-84732857D01*
X55276666Y-84828095D01*
X55229047Y-84970952D01*
X54657619Y-85542380D01*
X55276666Y-85542380D01*
X124126666Y-82002380D02*
X124126666Y-82716666D01*
X124079047Y-82859523D01*
X123983809Y-82954761D01*
X123840952Y-83002380D01*
X123745714Y-83002380D01*
X125126666Y-83002380D02*
X124555238Y-83002380D01*
X124840952Y-83002380D02*
X124840952Y-82002380D01*
X124745714Y-82145238D01*
X124650476Y-82240476D01*
X124555238Y-82288095D01*
X60343495Y-57894580D02*
X60343495Y-58704104D01*
X60391114Y-58799342D01*
X60438733Y-58846961D01*
X60533971Y-58894580D01*
X60724447Y-58894580D01*
X60819685Y-58846961D01*
X60867304Y-58799342D01*
X60914923Y-58704104D01*
X60914923Y-57894580D01*
X61914923Y-58894580D02*
X61343495Y-58894580D01*
X61629209Y-58894580D02*
X61629209Y-57894580D01*
X61533971Y-58037438D01*
X61438733Y-58132676D01*
X61343495Y-58180295D01*
M02*
