G04 #@! TF.GenerationSoftware,KiCad,Pcbnew,5.1.5+dfsg1-2build2*
G04 #@! TF.CreationDate,2021-02-04T00:17:01-05:00*
G04 #@! TF.ProjectId,hbridgechassis,68627269-6467-4656-9368-61737369732e,rev?*
G04 #@! TF.SameCoordinates,Original*
G04 #@! TF.FileFunction,Paste,Top*
G04 #@! TF.FilePolarity,Positive*
%FSLAX46Y46*%
G04 Gerber Fmt 4.6, Leading zero omitted, Abs format (unit mm)*
G04 Created by KiCad (PCBNEW 5.1.5+dfsg1-2build2) date 2021-02-04 00:17:01*
%MOMM*%
%LPD*%
G04 APERTURE LIST*
%ADD10C,0.100000*%
%ADD11R,2.200000X1.840000*%
%ADD12R,1.000000X1.500000*%
%ADD13R,1.000000X1.800000*%
%ADD14R,2.500000X1.800000*%
%ADD15R,1.500000X0.600000*%
G04 APERTURE END LIST*
D10*
G36*
X128059000Y-70654800D02*
G01*
X128759000Y-69654800D01*
X129559000Y-69654800D01*
X130259000Y-70654800D01*
X128059000Y-70654800D01*
G37*
D11*
X129159000Y-71564500D03*
D12*
X127659000Y-68751000D03*
D13*
X129159000Y-68897500D03*
D12*
X130659000Y-68751000D03*
D10*
G36*
X130259000Y-72473000D02*
G01*
X129659000Y-73323000D01*
X128659000Y-73323000D01*
X128059000Y-72473000D01*
X130259000Y-72473000D01*
G37*
G36*
X131163142Y-63346174D02*
G01*
X131186803Y-63349684D01*
X131210007Y-63355496D01*
X131232529Y-63363554D01*
X131254153Y-63373782D01*
X131274670Y-63386079D01*
X131293883Y-63400329D01*
X131311607Y-63416393D01*
X131327671Y-63434117D01*
X131341921Y-63453330D01*
X131354218Y-63473847D01*
X131364446Y-63495471D01*
X131372504Y-63517993D01*
X131378316Y-63541197D01*
X131381826Y-63564858D01*
X131383000Y-63588750D01*
X131383000Y-64076250D01*
X131381826Y-64100142D01*
X131378316Y-64123803D01*
X131372504Y-64147007D01*
X131364446Y-64169529D01*
X131354218Y-64191153D01*
X131341921Y-64211670D01*
X131327671Y-64230883D01*
X131311607Y-64248607D01*
X131293883Y-64264671D01*
X131274670Y-64278921D01*
X131254153Y-64291218D01*
X131232529Y-64301446D01*
X131210007Y-64309504D01*
X131186803Y-64315316D01*
X131163142Y-64318826D01*
X131139250Y-64320000D01*
X130226750Y-64320000D01*
X130202858Y-64318826D01*
X130179197Y-64315316D01*
X130155993Y-64309504D01*
X130133471Y-64301446D01*
X130111847Y-64291218D01*
X130091330Y-64278921D01*
X130072117Y-64264671D01*
X130054393Y-64248607D01*
X130038329Y-64230883D01*
X130024079Y-64211670D01*
X130011782Y-64191153D01*
X130001554Y-64169529D01*
X129993496Y-64147007D01*
X129987684Y-64123803D01*
X129984174Y-64100142D01*
X129983000Y-64076250D01*
X129983000Y-63588750D01*
X129984174Y-63564858D01*
X129987684Y-63541197D01*
X129993496Y-63517993D01*
X130001554Y-63495471D01*
X130011782Y-63473847D01*
X130024079Y-63453330D01*
X130038329Y-63434117D01*
X130054393Y-63416393D01*
X130072117Y-63400329D01*
X130091330Y-63386079D01*
X130111847Y-63373782D01*
X130133471Y-63363554D01*
X130155993Y-63355496D01*
X130179197Y-63349684D01*
X130202858Y-63346174D01*
X130226750Y-63345000D01*
X131139250Y-63345000D01*
X131163142Y-63346174D01*
G37*
G36*
X131163142Y-65221174D02*
G01*
X131186803Y-65224684D01*
X131210007Y-65230496D01*
X131232529Y-65238554D01*
X131254153Y-65248782D01*
X131274670Y-65261079D01*
X131293883Y-65275329D01*
X131311607Y-65291393D01*
X131327671Y-65309117D01*
X131341921Y-65328330D01*
X131354218Y-65348847D01*
X131364446Y-65370471D01*
X131372504Y-65392993D01*
X131378316Y-65416197D01*
X131381826Y-65439858D01*
X131383000Y-65463750D01*
X131383000Y-65951250D01*
X131381826Y-65975142D01*
X131378316Y-65998803D01*
X131372504Y-66022007D01*
X131364446Y-66044529D01*
X131354218Y-66066153D01*
X131341921Y-66086670D01*
X131327671Y-66105883D01*
X131311607Y-66123607D01*
X131293883Y-66139671D01*
X131274670Y-66153921D01*
X131254153Y-66166218D01*
X131232529Y-66176446D01*
X131210007Y-66184504D01*
X131186803Y-66190316D01*
X131163142Y-66193826D01*
X131139250Y-66195000D01*
X130226750Y-66195000D01*
X130202858Y-66193826D01*
X130179197Y-66190316D01*
X130155993Y-66184504D01*
X130133471Y-66176446D01*
X130111847Y-66166218D01*
X130091330Y-66153921D01*
X130072117Y-66139671D01*
X130054393Y-66123607D01*
X130038329Y-66105883D01*
X130024079Y-66086670D01*
X130011782Y-66066153D01*
X130001554Y-66044529D01*
X129993496Y-66022007D01*
X129987684Y-65998803D01*
X129984174Y-65975142D01*
X129983000Y-65951250D01*
X129983000Y-65463750D01*
X129984174Y-65439858D01*
X129987684Y-65416197D01*
X129993496Y-65392993D01*
X130001554Y-65370471D01*
X130011782Y-65348847D01*
X130024079Y-65328330D01*
X130038329Y-65309117D01*
X130054393Y-65291393D01*
X130072117Y-65275329D01*
X130091330Y-65261079D01*
X130111847Y-65248782D01*
X130133471Y-65238554D01*
X130155993Y-65230496D01*
X130179197Y-65224684D01*
X130202858Y-65221174D01*
X130226750Y-65220000D01*
X131139250Y-65220000D01*
X131163142Y-65221174D01*
G37*
G36*
X128216742Y-65170374D02*
G01*
X128240403Y-65173884D01*
X128263607Y-65179696D01*
X128286129Y-65187754D01*
X128307753Y-65197982D01*
X128328270Y-65210279D01*
X128347483Y-65224529D01*
X128365207Y-65240593D01*
X128381271Y-65258317D01*
X128395521Y-65277530D01*
X128407818Y-65298047D01*
X128418046Y-65319671D01*
X128426104Y-65342193D01*
X128431916Y-65365397D01*
X128435426Y-65389058D01*
X128436600Y-65412950D01*
X128436600Y-65900450D01*
X128435426Y-65924342D01*
X128431916Y-65948003D01*
X128426104Y-65971207D01*
X128418046Y-65993729D01*
X128407818Y-66015353D01*
X128395521Y-66035870D01*
X128381271Y-66055083D01*
X128365207Y-66072807D01*
X128347483Y-66088871D01*
X128328270Y-66103121D01*
X128307753Y-66115418D01*
X128286129Y-66125646D01*
X128263607Y-66133704D01*
X128240403Y-66139516D01*
X128216742Y-66143026D01*
X128192850Y-66144200D01*
X127280350Y-66144200D01*
X127256458Y-66143026D01*
X127232797Y-66139516D01*
X127209593Y-66133704D01*
X127187071Y-66125646D01*
X127165447Y-66115418D01*
X127144930Y-66103121D01*
X127125717Y-66088871D01*
X127107993Y-66072807D01*
X127091929Y-66055083D01*
X127077679Y-66035870D01*
X127065382Y-66015353D01*
X127055154Y-65993729D01*
X127047096Y-65971207D01*
X127041284Y-65948003D01*
X127037774Y-65924342D01*
X127036600Y-65900450D01*
X127036600Y-65412950D01*
X127037774Y-65389058D01*
X127041284Y-65365397D01*
X127047096Y-65342193D01*
X127055154Y-65319671D01*
X127065382Y-65298047D01*
X127077679Y-65277530D01*
X127091929Y-65258317D01*
X127107993Y-65240593D01*
X127125717Y-65224529D01*
X127144930Y-65210279D01*
X127165447Y-65197982D01*
X127187071Y-65187754D01*
X127209593Y-65179696D01*
X127232797Y-65173884D01*
X127256458Y-65170374D01*
X127280350Y-65169200D01*
X128192850Y-65169200D01*
X128216742Y-65170374D01*
G37*
G36*
X128216742Y-63295374D02*
G01*
X128240403Y-63298884D01*
X128263607Y-63304696D01*
X128286129Y-63312754D01*
X128307753Y-63322982D01*
X128328270Y-63335279D01*
X128347483Y-63349529D01*
X128365207Y-63365593D01*
X128381271Y-63383317D01*
X128395521Y-63402530D01*
X128407818Y-63423047D01*
X128418046Y-63444671D01*
X128426104Y-63467193D01*
X128431916Y-63490397D01*
X128435426Y-63514058D01*
X128436600Y-63537950D01*
X128436600Y-64025450D01*
X128435426Y-64049342D01*
X128431916Y-64073003D01*
X128426104Y-64096207D01*
X128418046Y-64118729D01*
X128407818Y-64140353D01*
X128395521Y-64160870D01*
X128381271Y-64180083D01*
X128365207Y-64197807D01*
X128347483Y-64213871D01*
X128328270Y-64228121D01*
X128307753Y-64240418D01*
X128286129Y-64250646D01*
X128263607Y-64258704D01*
X128240403Y-64264516D01*
X128216742Y-64268026D01*
X128192850Y-64269200D01*
X127280350Y-64269200D01*
X127256458Y-64268026D01*
X127232797Y-64264516D01*
X127209593Y-64258704D01*
X127187071Y-64250646D01*
X127165447Y-64240418D01*
X127144930Y-64228121D01*
X127125717Y-64213871D01*
X127107993Y-64197807D01*
X127091929Y-64180083D01*
X127077679Y-64160870D01*
X127065382Y-64140353D01*
X127055154Y-64118729D01*
X127047096Y-64096207D01*
X127041284Y-64073003D01*
X127037774Y-64049342D01*
X127036600Y-64025450D01*
X127036600Y-63537950D01*
X127037774Y-63514058D01*
X127041284Y-63490397D01*
X127047096Y-63467193D01*
X127055154Y-63444671D01*
X127065382Y-63423047D01*
X127077679Y-63402530D01*
X127091929Y-63383317D01*
X127107993Y-63365593D01*
X127125717Y-63349529D01*
X127144930Y-63335279D01*
X127165447Y-63322982D01*
X127187071Y-63312754D01*
X127209593Y-63304696D01*
X127232797Y-63298884D01*
X127256458Y-63295374D01*
X127280350Y-63294200D01*
X128192850Y-63294200D01*
X128216742Y-63295374D01*
G37*
D14*
X126270000Y-58420000D03*
X130270000Y-58420000D03*
D15*
X69545400Y-60147200D03*
X69545400Y-61417200D03*
X69545400Y-62687200D03*
X69545400Y-63957200D03*
X69545400Y-65227200D03*
X69545400Y-66497200D03*
X69545400Y-67767200D03*
X69545400Y-69037200D03*
X69545400Y-70307200D03*
X69545400Y-71577200D03*
X60045400Y-71577200D03*
X60045400Y-70307200D03*
X60045400Y-69037200D03*
X60045400Y-67767200D03*
X60045400Y-60147200D03*
X60045400Y-61417200D03*
X60045400Y-62687200D03*
X60045400Y-63957200D03*
X60045400Y-65227200D03*
X60045400Y-66497200D03*
M02*
