G04 #@! TF.GenerationSoftware,KiCad,Pcbnew,5.1.5+dfsg1-2build2*
G04 #@! TF.CreationDate,2021-02-04T00:17:01-05:00*
G04 #@! TF.ProjectId,hbridgechassis,68627269-6467-4656-9368-61737369732e,rev?*
G04 #@! TF.SameCoordinates,Original*
G04 #@! TF.FileFunction,Soldermask,Bot*
G04 #@! TF.FilePolarity,Negative*
%FSLAX46Y46*%
G04 Gerber Fmt 4.6, Leading zero omitted, Abs format (unit mm)*
G04 Created by KiCad (PCBNEW 5.1.5+dfsg1-2build2) date 2021-02-04 00:17:01*
%MOMM*%
%LPD*%
G04 APERTURE LIST*
%ADD10C,0.100000*%
G04 APERTURE END LIST*
D10*
G36*
X55076903Y-80275075D02*
G01*
X55304571Y-80369378D01*
X55509466Y-80506285D01*
X55683715Y-80680534D01*
X55820622Y-80885429D01*
X55914925Y-81113097D01*
X55963000Y-81354787D01*
X55963000Y-81601213D01*
X55914925Y-81842903D01*
X55820622Y-82070571D01*
X55683715Y-82275466D01*
X55509466Y-82449715D01*
X55304571Y-82586622D01*
X55304570Y-82586623D01*
X55304569Y-82586623D01*
X55076903Y-82680925D01*
X54835214Y-82729000D01*
X54588786Y-82729000D01*
X54347097Y-82680925D01*
X54119431Y-82586623D01*
X54119430Y-82586623D01*
X54119429Y-82586622D01*
X53914534Y-82449715D01*
X53740285Y-82275466D01*
X53603378Y-82070571D01*
X53509075Y-81842903D01*
X53461000Y-81601213D01*
X53461000Y-81354787D01*
X53509075Y-81113097D01*
X53603378Y-80885429D01*
X53740285Y-80680534D01*
X53914534Y-80506285D01*
X54119429Y-80369378D01*
X54347097Y-80275075D01*
X54588786Y-80227000D01*
X54835214Y-80227000D01*
X55076903Y-80275075D01*
G37*
G36*
X146539000Y-82729000D02*
G01*
X144037000Y-82729000D01*
X144037000Y-80227000D01*
X146539000Y-80227000D01*
X146539000Y-82729000D01*
G37*
G36*
X145652903Y-76775075D02*
G01*
X145880571Y-76869378D01*
X146085466Y-77006285D01*
X146259715Y-77180534D01*
X146396622Y-77385429D01*
X146396623Y-77385431D01*
X146490925Y-77613097D01*
X146539000Y-77854786D01*
X146539000Y-78101214D01*
X146490925Y-78342903D01*
X146437570Y-78471715D01*
X146396622Y-78570571D01*
X146259715Y-78775466D01*
X146085466Y-78949715D01*
X145880571Y-79086622D01*
X145880570Y-79086623D01*
X145880569Y-79086623D01*
X145652903Y-79180925D01*
X145411214Y-79229000D01*
X145164786Y-79229000D01*
X144923097Y-79180925D01*
X144695431Y-79086623D01*
X144695430Y-79086623D01*
X144695429Y-79086622D01*
X144490534Y-78949715D01*
X144316285Y-78775466D01*
X144179378Y-78570571D01*
X144138431Y-78471715D01*
X144085075Y-78342903D01*
X144037000Y-78101214D01*
X144037000Y-77854786D01*
X144085075Y-77613097D01*
X144179377Y-77385431D01*
X144179378Y-77385429D01*
X144316285Y-77180534D01*
X144490534Y-77006285D01*
X144695429Y-76869378D01*
X144923097Y-76775075D01*
X145164786Y-76727000D01*
X145411214Y-76727000D01*
X145652903Y-76775075D01*
G37*
G36*
X55963000Y-79229000D02*
G01*
X53461000Y-79229000D01*
X53461000Y-76727000D01*
X55963000Y-76727000D01*
X55963000Y-79229000D01*
G37*
G36*
X124441000Y-78751000D02*
G01*
X121939000Y-78751000D01*
X121939000Y-76249000D01*
X124441000Y-76249000D01*
X124441000Y-78751000D01*
G37*
G36*
X127054903Y-76297075D02*
G01*
X127282571Y-76391378D01*
X127487466Y-76528285D01*
X127661715Y-76702534D01*
X127773196Y-76869377D01*
X127798623Y-76907431D01*
X127892925Y-77135097D01*
X127941000Y-77376787D01*
X127941000Y-77623213D01*
X127892925Y-77864903D01*
X127798622Y-78092571D01*
X127661715Y-78297466D01*
X127487466Y-78471715D01*
X127282571Y-78608622D01*
X127282570Y-78608623D01*
X127282569Y-78608623D01*
X127054903Y-78702925D01*
X126813214Y-78751000D01*
X126566786Y-78751000D01*
X126325097Y-78702925D01*
X126097431Y-78608623D01*
X126097430Y-78608623D01*
X126097429Y-78608622D01*
X125892534Y-78471715D01*
X125718285Y-78297466D01*
X125581378Y-78092571D01*
X125487075Y-77864903D01*
X125439000Y-77623213D01*
X125439000Y-77376787D01*
X125487075Y-77135097D01*
X125581377Y-76907431D01*
X125606804Y-76869377D01*
X125718285Y-76702534D01*
X125892534Y-76528285D01*
X126097429Y-76391378D01*
X126325097Y-76297075D01*
X126566786Y-76249000D01*
X126813214Y-76249000D01*
X127054903Y-76297075D01*
G37*
G36*
X139813600Y-69201600D02*
G01*
X138011600Y-69201600D01*
X138011600Y-67399600D01*
X139813600Y-67399600D01*
X139813600Y-69201600D01*
G37*
G36*
X139026112Y-64864527D02*
G01*
X139175412Y-64894224D01*
X139339384Y-64962144D01*
X139486954Y-65060747D01*
X139612453Y-65186246D01*
X139711056Y-65333816D01*
X139778976Y-65497788D01*
X139813600Y-65671859D01*
X139813600Y-65849341D01*
X139778976Y-66023412D01*
X139711056Y-66187384D01*
X139612453Y-66334954D01*
X139486954Y-66460453D01*
X139339384Y-66559056D01*
X139175412Y-66626976D01*
X139026112Y-66656673D01*
X139001342Y-66661600D01*
X138823858Y-66661600D01*
X138799088Y-66656673D01*
X138649788Y-66626976D01*
X138485816Y-66559056D01*
X138338246Y-66460453D01*
X138212747Y-66334954D01*
X138114144Y-66187384D01*
X138046224Y-66023412D01*
X138011600Y-65849341D01*
X138011600Y-65671859D01*
X138046224Y-65497788D01*
X138114144Y-65333816D01*
X138212747Y-65186246D01*
X138338246Y-65060747D01*
X138485816Y-64962144D01*
X138649788Y-64894224D01*
X138799088Y-64864527D01*
X138823858Y-64859600D01*
X139001342Y-64859600D01*
X139026112Y-64864527D01*
G37*
G36*
X139026112Y-62324527D02*
G01*
X139175412Y-62354224D01*
X139339384Y-62422144D01*
X139486954Y-62520747D01*
X139612453Y-62646246D01*
X139711056Y-62793816D01*
X139778976Y-62957788D01*
X139813600Y-63131859D01*
X139813600Y-63309341D01*
X139778976Y-63483412D01*
X139711056Y-63647384D01*
X139612453Y-63794954D01*
X139486954Y-63920453D01*
X139339384Y-64019056D01*
X139175412Y-64086976D01*
X139026112Y-64116673D01*
X139001342Y-64121600D01*
X138823858Y-64121600D01*
X138799088Y-64116673D01*
X138649788Y-64086976D01*
X138485816Y-64019056D01*
X138338246Y-63920453D01*
X138212747Y-63794954D01*
X138114144Y-63647384D01*
X138046224Y-63483412D01*
X138011600Y-63309341D01*
X138011600Y-63131859D01*
X138046224Y-62957788D01*
X138114144Y-62793816D01*
X138212747Y-62646246D01*
X138338246Y-62520747D01*
X138485816Y-62422144D01*
X138649788Y-62354224D01*
X138799088Y-62324527D01*
X138823858Y-62319600D01*
X139001342Y-62319600D01*
X139026112Y-62324527D01*
G37*
G36*
X139026112Y-59784527D02*
G01*
X139175412Y-59814224D01*
X139339384Y-59882144D01*
X139486954Y-59980747D01*
X139612453Y-60106246D01*
X139711056Y-60253816D01*
X139778976Y-60417788D01*
X139813600Y-60591859D01*
X139813600Y-60769341D01*
X139778976Y-60943412D01*
X139711056Y-61107384D01*
X139612453Y-61254954D01*
X139486954Y-61380453D01*
X139339384Y-61479056D01*
X139175412Y-61546976D01*
X139026112Y-61576673D01*
X139001342Y-61581600D01*
X138823858Y-61581600D01*
X138799088Y-61576673D01*
X138649788Y-61546976D01*
X138485816Y-61479056D01*
X138338246Y-61380453D01*
X138212747Y-61254954D01*
X138114144Y-61107384D01*
X138046224Y-60943412D01*
X138011600Y-60769341D01*
X138011600Y-60591859D01*
X138046224Y-60417788D01*
X138114144Y-60253816D01*
X138212747Y-60106246D01*
X138338246Y-59980747D01*
X138485816Y-59882144D01*
X138649788Y-59814224D01*
X138799088Y-59784527D01*
X138823858Y-59779600D01*
X139001342Y-59779600D01*
X139026112Y-59784527D01*
G37*
G36*
X139026112Y-57244527D02*
G01*
X139175412Y-57274224D01*
X139339384Y-57342144D01*
X139486954Y-57440747D01*
X139612453Y-57566246D01*
X139711056Y-57713816D01*
X139778976Y-57877788D01*
X139813600Y-58051859D01*
X139813600Y-58229341D01*
X139778976Y-58403412D01*
X139711056Y-58567384D01*
X139612453Y-58714954D01*
X139486954Y-58840453D01*
X139339384Y-58939056D01*
X139175412Y-59006976D01*
X139026112Y-59036673D01*
X139001342Y-59041600D01*
X138823858Y-59041600D01*
X138799088Y-59036673D01*
X138649788Y-59006976D01*
X138485816Y-58939056D01*
X138338246Y-58840453D01*
X138212747Y-58714954D01*
X138114144Y-58567384D01*
X138046224Y-58403412D01*
X138011600Y-58229341D01*
X138011600Y-58051859D01*
X138046224Y-57877788D01*
X138114144Y-57713816D01*
X138212747Y-57566246D01*
X138338246Y-57440747D01*
X138485816Y-57342144D01*
X138649788Y-57274224D01*
X138799088Y-57244527D01*
X138823858Y-57239600D01*
X139001342Y-57239600D01*
X139026112Y-57244527D01*
G37*
G36*
X139026112Y-54704527D02*
G01*
X139175412Y-54734224D01*
X139339384Y-54802144D01*
X139486954Y-54900747D01*
X139612453Y-55026246D01*
X139711056Y-55173816D01*
X139778976Y-55337788D01*
X139813600Y-55511859D01*
X139813600Y-55689341D01*
X139778976Y-55863412D01*
X139711056Y-56027384D01*
X139612453Y-56174954D01*
X139486954Y-56300453D01*
X139339384Y-56399056D01*
X139175412Y-56466976D01*
X139026112Y-56496673D01*
X139001342Y-56501600D01*
X138823858Y-56501600D01*
X138799088Y-56496673D01*
X138649788Y-56466976D01*
X138485816Y-56399056D01*
X138338246Y-56300453D01*
X138212747Y-56174954D01*
X138114144Y-56027384D01*
X138046224Y-55863412D01*
X138011600Y-55689341D01*
X138011600Y-55511859D01*
X138046224Y-55337788D01*
X138114144Y-55173816D01*
X138212747Y-55026246D01*
X138338246Y-54900747D01*
X138485816Y-54802144D01*
X138649788Y-54734224D01*
X138799088Y-54704527D01*
X138823858Y-54699600D01*
X139001342Y-54699600D01*
X139026112Y-54704527D01*
G37*
G36*
X139026112Y-52164527D02*
G01*
X139175412Y-52194224D01*
X139339384Y-52262144D01*
X139486954Y-52360747D01*
X139612453Y-52486246D01*
X139711056Y-52633816D01*
X139778976Y-52797788D01*
X139813600Y-52971859D01*
X139813600Y-53149341D01*
X139778976Y-53323412D01*
X139711056Y-53487384D01*
X139612453Y-53634954D01*
X139486954Y-53760453D01*
X139339384Y-53859056D01*
X139175412Y-53926976D01*
X139026112Y-53956673D01*
X139001342Y-53961600D01*
X138823858Y-53961600D01*
X138799088Y-53956673D01*
X138649788Y-53926976D01*
X138485816Y-53859056D01*
X138338246Y-53760453D01*
X138212747Y-53634954D01*
X138114144Y-53487384D01*
X138046224Y-53323412D01*
X138011600Y-53149341D01*
X138011600Y-52971859D01*
X138046224Y-52797788D01*
X138114144Y-52633816D01*
X138212747Y-52486246D01*
X138338246Y-52360747D01*
X138485816Y-52262144D01*
X138649788Y-52194224D01*
X138799088Y-52164527D01*
X138823858Y-52159600D01*
X139001342Y-52159600D01*
X139026112Y-52164527D01*
G37*
M02*
