M48
; DRILL file {KiCad 5.1.5+dfsg1-2build2} date jue 04 feb 2021 00:16:51
; FORMAT={-:-/ absolute / metric / decimal}
; #@! TF.CreationDate,2021-02-04T00:16:51-05:00
; #@! TF.GenerationSoftware,Kicad,Pcbnew,5.1.5+dfsg1-2build2
; #@! TF.FileFunction,Plated,1,2,PTH
FMAT,2
METRIC
T1C0.400
T2C1.000
T3C1.200
%
G90
G05
T1
X55.88Y-74.93
X57.15Y-63.5
X62.23Y-62.23
X63.5Y-69.85
X64.77Y-60.96
X67.31Y-62.23
X69.85Y-77.47
X69.85Y-81.28
X71.12Y-74.93
X71.12Y-81.28
X72.39Y-58.42
X72.39Y-68.58
X72.39Y-81.28
X76.2Y-77.47
X78.74Y-55.88
X120.65Y-82.55
X124.139Y-86.039
X133.35Y-59.69
X133.35Y-67.31
X134.62Y-82.55
X135.89Y-64.77
X135.89Y-67.31
T2
X138.913Y-53.061
X138.913Y-55.601
X138.913Y-58.141
X138.913Y-60.681
X138.913Y-63.221
X138.913Y-65.761
X138.913Y-68.301
T3
X145.288Y-77.978
X145.288Y-81.478
X54.712Y-77.978
X54.712Y-81.478
X123.19Y-77.5
X126.69Y-77.5
T0
M30
